<svg width="24" height="24" fill="none" xmlns="http://www.w3.org/2000/svg"><path fill-rule="evenodd" clip-rule="evenodd" d="M10 2C8.469 2 7 3.132 7 5v12c0 2.895 2.498 5 5 5s5-2.105 5-5V6a1 1 0 112 0v11c0 4.105-3.502 7-7 7s-7-2.895-7-7V5c0-3.132 2.531-5 5-5s5 1.868 5 5v11c0 .825-.402 1.567-.918 2.082-.515.515-1.257.918-2.082.918s-1.567-.402-2.082-.918C9.403 17.567 9 16.825 9 16V6h2v10c0 .175.098.433.332.668.235.235.493.332.668.332.175 0 .433-.098.668-.332.235-.235.332-.493.332-.668V5c0-1.868-1.469-3-3-3zm0 3a1 1 0 011 1H9a1 1 0 011-1z" fill="#00417E"/></svg>