<svg width="40" height="40" fill="none" xmlns="http://www.w3.org/2000/svg"><path d="M32.181 23.096l-1.383.219c.012.074.03.146.053.217l1.33-.436zm-1.02-8.787l-1.398.055v.003l1.399-.058zm-22.333.003l-1.399-.056 1.4.056zm-1.016 8.762l1.331.432c.023-.07.04-.14.051-.212l-1.382-.22zm6.649 8.003v-1.4a1.4 1.4 0 00-1.4 1.4h1.4zm0-1.4a1.4 1.4 0 100 2.8v-2.8zm11.077 1.4h1.4a1.4 1.4 0 00-1.4-1.4v1.4zm6.643 1.4c2.445 0 4.446-1.98 4.446-4.419h-2.8c0 .874-.73 1.619-1.646 1.619v2.8zm4.446-4.419c0-1.579-1-2.442-1.558-2.994-.574-.567-1.152-1.167-1.558-2.404l-2.66.872c.61 1.862 1.556 2.838 2.25 3.524.71.702.726.77.726 1.002h2.8zm-4.446-4.962l1.383-.22v-.002l-.003-.012-.007-.046-.028-.18a149.853 149.853 0 01-.417-2.92c-.238-1.794-.485-3.937-.548-5.465l-2.798.116c.07 1.665.332 3.916.57 5.717a152.881 152.881 0 00.426 2.978l.029.186.008.05.002.012v.004l1.383-.218zm.38-8.842c-.266-6.745-5.606-12.256-12.565-12.256v2.8c5.376 0 9.557 4.243 9.767 9.566l2.798-.11zM19.996 1.998c-6.96 0-12.298 5.523-12.567 12.258l2.798.112c.213-5.317 4.395-9.57 9.77-9.57v-2.8zM7.43 14.256c-.06 1.527-.307 3.662-.545 5.45a144.105 144.105 0 01-.445 3.087l-.007.046-.002.01a.17.17 0 000 .004l1.382.22a949.634 949.634 0 001.382.22l.001-.003.002-.013.008-.049a77.82 77.82 0 00.132-.868c.086-.577.203-1.38.323-2.285.239-1.795.5-4.04.567-5.707l-2.798-.112zm-.949 8.386c-.408 1.259-.987 1.862-1.573 2.46-.603.616-1.541 1.494-1.541 3.123h2.8c0-.357.075-.484.74-1.163.683-.696 1.627-1.675 2.237-3.556l-2.663-.864zm-3.114 5.583c0 2.521 2.102 4.252 4.446 4.252v-2.8c-1.019 0-1.646-.69-1.646-1.452h-2.8zm4.446 4.252H32.18v-2.8H7.811v2.8zm5.249-1.4A6.94 6.94 0 0020 38.016v-2.8a4.14 4.14 0 01-4.138-4.139h-2.8zM20 38.016a6.94 6.94 0 006.939-6.939h-2.8A4.14 4.14 0 0120 35.216v2.8zm5.539-8.339H14.46v2.8h11.077v-2.8z" fill="#A29061"/></svg>