<svg width="20" height="19" fill="none" xmlns="http://www.w3.org/2000/svg"><path fill-rule="evenodd" clip-rule="evenodd" d="M1.5 4.5v12a.5.5 0 00.5.5h16a.5.5 0 00.5-.5v-12A.5.5 0 0018 4h-3.459a1.6 1.6 0 01-1.13-.469L11.878 2H8.12L6.59 3.531A1.6 1.6 0 015.459 4H2a.5.5 0 00-.5.5zM0 4.5v12a2 2 0 002 2h16a2 2 0 002-2v-12a2 2 0 00-2-2h-3.459a.1.1 0 01-.07-.03L12.646.647A.5.5 0 0012.293.5H7.707a.5.5 0 00-.353.146L5.529 2.471a.1.1 0 01-.07.029H2a2 2 0 00-2 2z" fill="#00417E"/><path fill-rule="evenodd" clip-rule="evenodd" d="M13.5 10.5a3.5 3.5 0 10-7 0 3.5 3.5 0 007 0zm1.5 0a5 5 0 10-10 0 5 5 0 0010 0z" fill="#00417E"/></svg>