<svg width="16" height="16" fill="none" xmlns="http://www.w3.org/2000/svg"><path d="M2.668 1.167a.5.5 0 01.5-.5h6.167a.5.5 0 01.353.146l3.5 3.5a.5.5 0 01.147.354v10.166a.5.5 0 01-.5.5H3.168a.5.5 0 01-.5-.5V1.167zm1 .5v12.666h8.667V5.167h-3a.5.5 0 01-.5-.5v-3H3.668zm6.167.707v1.793h1.792L9.835 2.374zm-5 4.96a.5.5 0 01.5-.5h5.333a.5.5 0 010 1H5.335a.5.5 0 01-.5-.5zm0 2.666a.5.5 0 01.5-.5h5.333a.5.5 0 010 1H5.335a.5.5 0 01-.5-.5zm0 2.667a.5.5 0 01.5-.5h3.333a.5.5 0 010 1H5.335a.5.5 0 01-.5-.5z" fill="#00417E"/></svg>