<svg width="17" height="16" fill="none" xmlns="http://www.w3.org/2000/svg"><path clip-rule="evenodd" d="M5.5 5.997h-3a1 1 0 01-1-1V2a1 1 0 011-1h3a1 1 0 011 1v2.997a1 1 0 01-1 1zm9 0h-3a1 1 0 01-1-1V2a1 1 0 011-.999h3a1 1 0 011 1v2.997a1 1 0 01-1 1zm-9 8.993h-3a1 1 0 01-1-.998v-2.999a1 1 0 011-.999h3a1 1 0 011 1v2.998a1 1 0 01-1 .999zm9 0h-3a1 1 0 01-1-.998v-2.999a1 1 0 011-.999h3a1 1 0 011 1v2.998a1 1 0 01-1 .999z" stroke="currentColor" stroke-width="1.5" stroke-linecap="round" stroke-linejoin="round"/></svg>