<svg width="32" height="43" fill="none" xmlns="http://www.w3.org/2000/svg"><path d="M25.6 41.5H6.4a4.875 4.875 0 01-3.46-1.446A4.976 4.976 0 011.5 36.55V6.45c0-1.317.52-2.577 1.44-3.504A4.875 4.875 0 016.4 1.5h14.054a.625.625 0 01.436.183l.002.001 9.42 9.495.002.001c.117.12.185.283.186.456V36.55c0 1.317-.52 2.577-1.44 3.504A4.875 4.875 0 0125.6 41.5z" stroke="#A29061" stroke-width="3"/><path d="M30.828 12.094h-7.643a3.172 3.172 0 01-2.252-.94A3.222 3.222 0 0120 8.884V1.181A1.184 1.184 0 0120.72.09a1.16 1.16 0 011.276.257l9.66 9.736a1.18 1.18 0 01.255 1.285 1.175 1.175 0 01-1.083.726zM9.68 34.096c-.544 0-1.02-.12-1.428-.36-.408-.24-.728-.604-.96-1.092-.224-.496-.336-1.12-.336-1.872 0-.76.108-1.384.324-1.872.216-.488.528-.852.936-1.092.408-.24.896-.36 1.464-.36.608 0 1.152.14 1.632.42.488.272.872.656 1.152 1.152.288.496.432 1.08.432 1.752 0 .68-.144 1.268-.432 1.764-.28.496-.664.88-1.152 1.152a3.252 3.252 0 01-1.632.408zm-3.816 2.232v-8.784h1.788v1.32l-.036 1.92.12 1.908v3.636H5.864zm3.492-3.768c.312 0 .588-.072.828-.216.248-.144.444-.348.588-.612.152-.272.228-.592.228-.96 0-.376-.076-.696-.228-.96a1.548 1.548 0 00-.588-.612 1.578 1.578 0 00-.828-.216c-.312 0-.592.072-.84.216a1.548 1.548 0 00-.588.612c-.144.264-.216.584-.216.96 0 .368.072.688.216.96.144.264.34.468.588.612.248.144.528.216.84.216zm7.565 1.536a3.319 3.319 0 01-1.644-.408 3.126 3.126 0 01-1.164-1.164c-.28-.496-.42-1.08-.42-1.752 0-.68.14-1.268.42-1.764.288-.496.676-.88 1.164-1.152a3.319 3.319 0 011.644-.408c.544 0 1.02.12 1.428.36.408.24.724.604.948 1.092.224.488.336 1.112.336 1.872 0 .752-.108 1.376-.324 1.872-.216.488-.528.852-.936 1.092-.4.24-.884.36-1.452.36zm.324-1.536c.304 0 .58-.072.828-.216.248-.144.444-.348.588-.612.152-.272.228-.592.228-.96 0-.376-.076-.696-.228-.96a1.548 1.548 0 00-.588-.612 1.619 1.619 0 00-.828-.216c-.312 0-.592.072-.84.216a1.633 1.633 0 00-.6.612c-.144.264-.216.584-.216.96 0 .368.072.688.216.96.152.264.352.468.6.612.248.144.528.216.84.216zM18.937 34v-1.32l.036-1.92-.12-1.908v-3.756h1.872V34h-1.788zm3.749 0v-6.6c0-.728.216-1.308.648-1.74.432-.44 1.048-.66 1.848-.66.272 0 .532.028.78.084.256.056.472.144.648.264l-.492 1.356a1.275 1.275 0 00-.348-.168 1.36 1.36 0 00-.408-.06c-.272 0-.484.08-.636.24-.144.152-.216.384-.216.696v.6l.048.804V34h-1.872zm-.996-4.872v-1.44h4.476v1.44H21.69z" fill="#A29061"/></svg>