<svg width="32" height="32" fill="none" xmlns="http://www.w3.org/2000/svg"><path fill-rule="evenodd" clip-rule="evenodd" d="M26.111 1.304c-4.921 4.265-10.333 4.65-14.656 1.04L10.17 1.272 8.85 2.585 7.53 3.897l1.01.89c2.79 2.46 5.478 3.533 8.868 3.542 1.254.003 2.364.09 2.467.195.103.105-4.327 4.762-9.844 10.35L0 29.034l1.446 1.483c.796.816 1.57 1.483 1.72 1.483.15 0 4.713-4.494 10.138-9.985 5.832-5.903 9.986-9.91 10.162-9.8.192.12.24.678.136 1.581-.337 2.93 1.067 6.947 3.355 9.593l1.041 1.206L29.2 23.4c.66-.657 1.201-1.3 1.201-1.43 0-.128-.416-.748-.924-1.377-1.682-2.078-2.13-3.443-2.13-6.492 0-2.575.046-2.797.981-4.706.54-1.101 1.587-2.725 2.327-3.608L32 4.183 29.945 2.09C28.815.94 27.828 0 27.751 0c-.076.001-.814.588-1.64 1.304z" fill="#fff" fill-opacity=".4"/></svg>