<svg width="49" height="48" fill="none" xmlns="http://www.w3.org/2000/svg"><path fill-rule="evenodd" clip-rule="evenodd" d="M44.86 19.991c-7.62-.645-12.478-4.874-13.158-11.456L31.5 6.58l-2.181-.036-2.182-.035.12 1.576c.332 4.353 1.712 7.488 4.551 10.341 1.05 1.056 1.911 2.06 1.913 2.232 0 .172-7.527.26-16.728.196L.261 20.738l.002 2.427c.002 1.335.106 2.53.232 2.657.126.126 7.63.283 16.676.349 9.723.07 16.488.283 16.545.52.063.26-.353.755-1.179 1.407-2.678 2.112-4.782 6.576-5.026 10.66l-.11 1.86 1.985.033c1.091.018 2.071-.054 2.177-.16.105-.105.263-.961.35-1.902.286-3.111 1.027-4.604 3.519-7.096 2.106-2.106 2.326-2.249 4.672-3.024 1.354-.447 3.56-.896 4.903-.996l2.442-.183-.014-3.436c-.008-1.89-.068-3.488-.133-3.552-.066-.062-1.165-.203-2.444-.31z" fill="currentColor"/></svg>