<svg width="16" height="16" fill="none" xmlns="http://www.w3.org/2000/svg"><path fill-rule="evenodd" clip-rule="evenodd" d="M15.34 1.03c-.098.043-.116.059-.371.335-.28.302-.277.3-.548.595a310.585 310.585 0 01-1.611 1.752c-.187.206-.59.645-.655.712-.052.054-.308.333-.627.681a36.95 36.95 0 01-.359.391l-.282.307-.306.333a828.183 828.183 0 01-4.193 4.554 1.226 1.226 0 01-.228.206.421.421 0 01-.36-.01 9.255 9.255 0 01-.58-.491 20.115 20.115 0 00-.35-.306 37.434 37.434 0 01-.519-.453 28.961 28.961 0 00-.415-.364 13.665 13.665 0 01-.246-.214 70.429 70.429 0 00-.56-.49c-.426-.37-.556-.467-.74-.553a1.684 1.684 0 00-2.117.56C.083 8.85 0 9.118 0 9.46c0 .233.012.314.07.472.112.301.196.422.762 1.087a870.79 870.79 0 012.525 2.97c.026.028.146.17.266.314.12.145.243.289.273.32.03.03.082.09.116.132.06.074.422.509.51.61.123.143.307.318.399.377a1.626 1.626 0 001.817-.04c.194-.138.335-.298.53-.602.09-.141.196-.304.234-.361.039-.058.151-.232.251-.388s.215-.334.257-.396c.041-.063.101-.156.133-.208l.147-.23c.05-.075.165-.253.257-.397l.243-.373c.042-.061.085-.13.096-.152.01-.022.071-.119.135-.214a41.4 41.4 0 00.501-.771c.028-.048.633-.981.772-1.192a136.59 136.59 0 001.72-2.673l.32-.496a35.785 35.785 0 01.414-.636c.084-.136.339-.53.48-.744.065-.096.271-.415.46-.71a142.652 142.652 0 01.924-1.432 21.46 21.46 0 00.368-.578l.114-.174c.033-.051.113-.17.177-.262.064-.092.116-.173.116-.178 0-.01.1-.168.41-.644.169-.258.203-.33.203-.424a.514.514 0 00-.214-.394.54.54 0 00-.445-.043z" fill="#A29061"/></svg>