<svg width="16" height="16" fill="none" xmlns="http://www.w3.org/2000/svg"><circle cx="8" cy="8" r="8" fill="#fff"/><path d="M5.12 12L8 9.12 10.88 12 12 10.88 9.12 8 12 5.12 10.88 4 8 6.88 5.12 4 4 5.12 6.88 8 4 10.88 5.12 12zM8 16a7.785 7.785 0 01-3.12-.63 8.073 8.073 0 01-2.54-1.71 8.074 8.074 0 01-1.71-2.54A7.786 7.786 0 010 8c0-1.107.21-2.147.63-3.12.42-.973.99-1.82 1.71-2.54A8.085 8.085 0 014.88.63 7.794 7.794 0 018 0c1.107 0 2.147.21 3.12.63.973.42 1.82.99 2.54 1.71s1.29 1.567 1.71 2.54c.42.973.63 2.013.63 3.12 0 1.107-.21 2.147-.63 3.12-.42.973-.99 1.82-1.71 2.54a8.073 8.073 0 01-2.54 1.71c-.973.42-2.013.63-3.12.63z" fill="#FF370B"/></svg>