<svg width="16" height="16" fill="none" xmlns="http://www.w3.org/2000/svg"><path d="M6 3.66S6 3 6.667 3c.138 0 .363.112.632.246.308.154.673.336 1.034.413.845.181 1.667.413 1.667.413s0 .535-1 1.607L8 6.75 7 5.679c-1-1.072-1-2.02-1-2.02zm-.8 10.09S5.511 12 8 12s2.8 1.75 2.8 1.75H5.2zm2-3.15a.8.8 0 111.6 0 .8.8 0 01-1.6 0z" fill="#00417E" fill-opacity=".4"/><path d="M2 .5a.5.5 0 01.5-.5h11a.5.5 0 01.5.5V1a.5.5 0 01-.5.5h-.138c-.151.962-.468 2.232-1.131 3.335-1.07 1.78-2.1 2.809-2.396 3.087a.107.107 0 000 .155c.296.279 1.325 1.308 2.396 3.088.663 1.102.98 2.373 1.13 3.335h.139a.5.5 0 01.5.5v.5a.5.5 0 01-.5.5h-11a.5.5 0 01-.5-.5V15a.5.5 0 01.5-.5h.138c.151-.962.468-2.233 1.131-3.335 1.07-1.78 2.1-2.809 2.396-3.087a.107.107 0 000-.156C5.87 7.644 4.84 6.615 3.77 4.835 3.106 3.732 2.79 2.462 2.64 1.5H2.5A.5.5 0 012 1V.5zm2.16 1c.147.824.42 1.772.895 2.562.984 1.637 1.918 2.561 2.138 2.768a1.607 1.607 0 010 2.34c-.22.207-1.154 1.131-2.138 2.768-.476.79-.748 1.738-.896 2.562h7.682c-.148-.824-.42-1.772-.896-2.562C9.961 10.3 9.027 9.377 8.807 9.17a1.607 1.607 0 010-2.34c.22-.207 1.154-1.131 2.138-2.768.476-.79.748-1.738.896-2.562H4.159z" fill="#00417E" fill-opacity=".4"/></svg>