<svg width="24" height="24" fill="none" xmlns="http://www.w3.org/2000/svg"><path d="M16 9a4 4 0 10-8 0 4 4 0 008 0zm-1.5 0a2.5 2.5 0 11-5 0 2.5 2.5 0 015 0z" fill="#00417E"/><path d="M12 23c6.075 0 11-4.925 11-11S18.075 1 12 1 1 5.925 1 12s4.925 11 11 11zm0-1.5a9.47 9.47 0 01-6.723-2.788c.064-.081.148-.183.252-.3a8.858 8.858 0 011.296-1.187A8.504 8.504 0 0112 15.5c2.3 0 4.022.86 5.175 1.725a8.86 8.86 0 011.296 1.187c.104.117.188.219.252.3A9.47 9.47 0 0112 21.5zm7.592-4.084c-.34-.382-.845-.887-1.517-1.391A10.003 10.003 0 0012 14c-2.7 0-4.728 1.015-6.075 2.025a10.348 10.348 0 00-1.635 1.527A9.457 9.457 0 012.5 12a9.5 9.5 0 1119 0c0 2.072-.664 3.99-1.79 5.552a8.466 8.466 0 00-.118-.136z" fill="#00417E"/><mask id="a" style="mask-type:alpha" maskUnits="userSpaceOnUse" x="1" y="1" width="22" height="22"><path d="M16 9a4 4 0 10-8 0 4 4 0 008 0zm-1.5 0a2.5 2.5 0 11-5 0 2.5 2.5 0 015 0z" fill="#000"/><path d="M12 23c6.075 0 11-4.925 11-11S18.075 1 12 1 1 5.925 1 12s4.925 11 11 11zm0-1.5a9.47 9.47 0 01-6.723-2.788c.064-.081.148-.183.252-.3a8.858 8.858 0 011.296-1.187A8.504 8.504 0 0112 15.5c2.3 0 4.022.86 5.175 1.725a8.86 8.86 0 011.296 1.187c.104.117.188.219.252.3A9.47 9.47 0 0112 21.5zm7.592-4.084c-.34-.382-.845-.887-1.517-1.391A10.003 10.003 0 0012 14c-2.7 0-4.728 1.015-6.075 2.025a10.348 10.348 0 00-1.635 1.527A9.457 9.457 0 012.5 12a9.5 9.5 0 1119 0c0 2.072-.664 3.99-1.79 5.552a8.466 8.466 0 00-.118-.136z" fill="#000"/></mask><g mask="url(#a)"><path fill="#A29061" d="M-4-4h32v32H-4z"/></g></svg>