<svg width="24" height="24" fill="none" xmlns="http://www.w3.org/2000/svg"><path d="M12 1L3 5v6c0 5.555 3.835 10.735 9 12 5.165-1.265 9-6.445 9-12V5l-9-4zm-2 16l-4-4 1.415-1.415L10 14.17l6.585-6.585L18 9l-8 8z" fill="#A29061"/><mask id="a" style="mask-type:alpha" maskUnits="userSpaceOnUse" x="3" y="1" width="18" height="22"><path d="M12 1L3 5v6c0 5.555 3.835 10.735 9 12 5.165-1.265 9-6.445 9-12V5l-9-4zm-2 16l-4-4 1.415-1.415L10 14.17l6.585-6.585L18 9l-8 8z" fill="#000"/></mask><g mask="url(#a)"><path fill="#A29061" d="M0 0h24v24H0z"/></g></svg>