<svg width="24" height="24" fill="none" xmlns="http://www.w3.org/2000/svg"><path d="M20.5 6H16V4c0-.55-.22-1.05-.59-1.41C15.05 2.22 14.55 2 14 2h-4c-1.1 0-2 .9-2 2v2H3.5C2.4 6 2 6.4 2 7.5v12c0 1.1.4 1.5 1.5 1.5h17c1.1 0 1.5-.4 1.5-1.5v-12c0-1.1-.4-1.5-1.5-1.5zm-11-2.5h5V6h-5V3.5zm-6 4h17v2.89c-.06.024-.135.05-.222.082a18.42 18.42 0 01-1.303.4c-1.14.306-2.803.652-4.87.802a29.11 29.11 0 01-4.21 0 26.195 26.195 0 01-4.87-.803 17.994 17.994 0 01-1.525-.48V7.5zm0 4.48c.3.1.68.218 1.136.34 1.095.294 2.624.618 4.5.796.017.285.035.567.059.813.043.45.113.918.277 1.336.173.438.456.838.919 1.113.447.266.99.372 1.609.372.62 0 1.162-.106 1.61-.372.462-.275.745-.675.918-1.113.164-.418.234-.886.277-1.336.024-.246.042-.528.06-.813a27.364 27.364 0 004.5-.796c.455-.122.835-.24 1.135-.34v7.52h-17v-7.52zm7.188 1.807a17.95 17.95 0 01-.043-.567 30.73 30.73 0 002.71 0c-.012.195-.025.38-.043.567-.04.415-.095.712-.18.928-.077.197-.17.302-.29.373-.134.08-.381.162-.842.162-.46 0-.708-.081-.843-.162-.12-.07-.212-.176-.289-.373-.085-.216-.14-.513-.18-.928z" fill="#00417E"/><mask id="a" style="mask-type:alpha" maskUnits="userSpaceOnUse" x="2" y="2" width="20" height="19"><path d="M20.5 6H16V4c0-.55-.22-1.05-.59-1.41C15.05 2.22 14.55 2 14 2h-4c-1.1 0-2 .9-2 2v2H3.5C2.4 6 2 6.4 2 7.5v12c0 1.1.4 1.5 1.5 1.5h17c1.1 0 1.5-.4 1.5-1.5v-12c0-1.1-.4-1.5-1.5-1.5zm-11-2.5h5V6h-5V3.5zm-6 4h17v2.89c-.06.024-.135.05-.222.082a18.42 18.42 0 01-1.303.4c-1.14.306-2.803.652-4.87.802a29.11 29.11 0 01-4.21 0 26.195 26.195 0 01-4.87-.803 17.994 17.994 0 01-1.525-.48V7.5zm0 4.48c.3.1.68.218 1.136.34 1.095.294 2.624.618 4.5.796.017.285.035.567.059.813.043.45.113.918.277 1.336.173.438.456.838.919 1.113.447.266.99.372 1.609.372.62 0 1.162-.106 1.61-.372.462-.275.745-.675.918-1.113.164-.418.234-.886.277-1.336.024-.246.042-.528.06-.813a27.364 27.364 0 004.5-.796c.455-.122.835-.24 1.135-.34v7.52h-17v-7.52zm7.188 1.807a17.95 17.95 0 01-.043-.567 30.73 30.73 0 002.71 0c-.012.195-.025.38-.043.567-.04.415-.095.712-.18.928-.077.197-.17.302-.29.373-.134.08-.381.162-.842.162-.46 0-.708-.081-.843-.162-.12-.07-.212-.176-.289-.373-.085-.216-.14-.513-.18-.928z" fill="#000"/></mask><g mask="url(#a)"><path fill="#A29061" d="M-4-4h32v32H-4z"/></g></svg>