<svg width="24" height="24" fill="none" xmlns="http://www.w3.org/2000/svg"><path fill-rule="evenodd" clip-rule="evenodd" d="M3.5 7v12a.5.5 0 00.5.5h16a.5.5 0 00.5-.5V7a.5.5 0 00-.5-.5h-3.459a1.6 1.6 0 01-1.13-.469L13.878 4.5H10.12L8.59 6.031a1.6 1.6 0 01-1.131.469H4a.5.5 0 00-.5.5zM2 7v12a2 2 0 002 2h16a2 2 0 002-2V7a2 2 0 00-2-2h-3.459a.1.1 0 01-.07-.03l-1.825-1.824A.5.5 0 0014.293 3H9.707a.5.5 0 00-.353.146L7.529 4.971A.1.1 0 017.46 5H4a2 2 0 00-2 2z" fill="#A29061"/><path fill-rule="evenodd" clip-rule="evenodd" d="M15.5 13a3.5 3.5 0 10-7 0 3.5 3.5 0 007 0zm1.5 0a5 5 0 10-10 0 5 5 0 0010 0z" fill="#A29061"/><mask id="a" style="mask-type:alpha" maskUnits="userSpaceOnUse" x="2" y="3" width="20" height="18"><path fill-rule="evenodd" clip-rule="evenodd" d="M3.5 7v12a.5.5 0 00.5.5h16a.5.5 0 00.5-.5V7a.5.5 0 00-.5-.5h-3.459a1.6 1.6 0 01-1.13-.469L13.878 4.5H10.12L8.59 6.031a1.6 1.6 0 01-1.131.469H4a.5.5 0 00-.5.5zM2 7v12a2 2 0 002 2h16a2 2 0 002-2V7a2 2 0 00-2-2h-3.459a.1.1 0 01-.07-.03l-1.825-1.824A.5.5 0 0014.293 3H9.707a.5.5 0 00-.353.146L7.529 4.971A.1.1 0 017.46 5H4a2 2 0 00-2 2z" fill="#000"/><path fill-rule="evenodd" clip-rule="evenodd" d="M15.5 13a3.5 3.5 0 10-7 0 3.5 3.5 0 007 0zm1.5 0a5 5 0 10-10 0 5 5 0 0010 0z" fill="#000"/></mask><g mask="url(#a)"><path fill="#A29061" d="M0 0h24v24H0z"/></g></svg>