<svg width="24" height="24" fill="none" xmlns="http://www.w3.org/2000/svg"><path fill-rule="evenodd" clip-rule="evenodd" d="M15.707 2.293a1 1 0 010 1.414L7.414 12l8.293 8.293a1 1 0 01-1.414 1.414l-9-9a1 1 0 010-1.414l9-9a1 1 0 011.414 0z" fill="#A29061"/><mask id="a" style="mask-type:alpha" maskUnits="userSpaceOnUse" x="5" y="2" width="11" height="20"><path fill-rule="evenodd" clip-rule="evenodd" d="M15.707 2.293a1 1 0 010 1.414L7.414 12l8.293 8.293a1 1 0 01-1.414 1.414l-9-9a1 1 0 010-1.414l9-9a1 1 0 011.414 0z" fill="#000"/></mask><g mask="url(#a)"><path fill="#A29061" d="M-1 0h24v24H-1z"/></g></svg>