<svg width="24" height="24" fill="none" xmlns="http://www.w3.org/2000/svg"><path fill-rule="evenodd" clip-rule="evenodd" d="M2.293 7.793a1 1 0 011.414 0L12 16.086l8.293-8.293a1 1 0 111.414 1.414l-9 9a1 1 0 01-1.414 0l-9-9a1 1 0 010-1.414z" fill="#A29061"/><mask id="a" style="mask-type:alpha" maskUnits="userSpaceOnUse" x="2" y="7" width="20" height="12"><path fill-rule="evenodd" clip-rule="evenodd" d="M2.293 7.793a1 1 0 011.414 0L12 16.086l8.293-8.293a1 1 0 111.414 1.414l-9 9a1 1 0 01-1.414 0l-9-9a1 1 0 010-1.414z" fill="#000"/></mask><g mask="url(#a)"><path fill="#A29061" d="M0 1h24v24H0z"/></g></svg>