<svg width="24" height="24" fill="none" xmlns="http://www.w3.org/2000/svg"><path fill-rule="evenodd" clip-rule="evenodd" d="M1.25 4A2.75 2.75 0 014 1.25h9.913A2.75 2.75 0 0116.663 4v.174a.75.75 0 11-1.5 0V4c0-.69-.56-1.25-1.25-1.25H4c-.69 0-1.25.56-1.25 1.25v9.913c0 .69.56 1.25 1.25 1.25h.174a.75.75 0 010 1.5H4a2.75 2.75 0 01-2.75-2.75V4zm7.967 3.967c-.69 0-1.25.56-1.25 1.25V20c0 .69.56 1.25 1.25 1.25H20c.69 0 1.25-.56 1.25-1.25V9.217c0-.69-.56-1.25-1.25-1.25H9.217zm-2.75 1.25a2.75 2.75 0 012.75-2.75H20a2.75 2.75 0 012.75 2.75V20A2.75 2.75 0 0120 22.75H9.217A2.75 2.75 0 016.467 20V9.217z" fill="#A29061"/><mask id="a" style="mask-type:alpha" maskUnits="userSpaceOnUse" x="1" y="1" width="22" height="22"><path fill-rule="evenodd" clip-rule="evenodd" d="M1.25 4A2.75 2.75 0 014 1.25h9.913A2.75 2.75 0 0116.663 4v.174a.75.75 0 11-1.5 0V4c0-.69-.56-1.25-1.25-1.25H4c-.69 0-1.25.56-1.25 1.25v9.913c0 .69.56 1.25 1.25 1.25h.174a.75.75 0 010 1.5H4a2.75 2.75 0 01-2.75-2.75V4zm7.967 3.967c-.69 0-1.25.56-1.25 1.25V20c0 .69.56 1.25 1.25 1.25H20c.69 0 1.25-.56 1.25-1.25V9.217c0-.69-.56-1.25-1.25-1.25H9.217zm-2.75 1.25a2.75 2.75 0 012.75-2.75H20a2.75 2.75 0 012.75 2.75V20A2.75 2.75 0 0120 22.75H9.217A2.75 2.75 0 016.467 20V9.217z" fill="#000"/></mask><g mask="url(#a)"><path fill="#A29061" d="M-5-5h32v32H-5z"/></g></svg>