<svg width="24" height="24" fill="none" xmlns="http://www.w3.org/2000/svg"><path d="M8 18.656v-1.434h8v1.434H8zM6 22c-.55 0-1.02-.187-1.412-.561A1.8 1.8 0 014 20.089V4.8a1.8 1.8 0 01.588-1.35C4.979 3.076 5.45 3 6 3h4V1.456c0-.271.096-.498.287-.681A.991.991 0 0111 .5h2c.283 0 .52.092.713.275.191.183.287.41.287.68V3h4c.55 0 1.02.076 1.413.45A1.8 1.8 0 0120 4.8v15.289a1.8 1.8 0 01-.587 1.35A1.972 1.972 0 0118 22H6zm-.5-2a.5.5 0 00.5.5h12a.5.5 0 00.5-.5V5a.5.5 0 00-.5-.5h-4c0 .27-.096.504-.287.688a1.01 1.01 0 01-.713.293h-2c-.283 0-.52-.11-.713-.293A.918.918 0 0110 4.5H6a.5.5 0 00-.5.5v15zm6.5-8.511c-.55 0-1.02-.187-1.412-.562A1.8 1.8 0 0110 9.578a1.8 1.8 0 01.588-1.349A1.972 1.972 0 0112 7.667c.55 0 1.02.187 1.412.561A1.8 1.8 0 0114 9.578a1.8 1.8 0 01-.588 1.35 1.972 1.972 0 01-1.412.56zM8 15.31v-.55c0-.382.108-.732.325-1.05.217-.319.517-.558.9-.717.433-.175.88-.31 1.338-.406A7.025 7.025 0 0112 12.444a7 7 0 011.438.144c.458.095.904.23 1.337.406.383.16.683.398.9.717.217.318.325.668.325 1.05v.55H8z" fill="#A29061"/></svg>