<svg width="24" height="24" fill="none" xmlns="http://www.w3.org/2000/svg"><path d="M3 17.46v3.04c0 .28.22.5.5.5h3.04c.13 0 .26-.05.35-.15L17.81 9.94l-3.75-3.75L3.15 17.1c-.1.1-.15.22-.15.36zM20.71 7.04a.996.996 0 000-1.41l-2.34-2.34a.996.996 0 00-1.41 0l-1.83 1.83 3.75 3.75 1.83-1.83z" fill="#A29061"/><mask id="a" style="mask-type:alpha" maskUnits="userSpaceOnUse" x="3" y="2" width="19" height="19"><path d="M3 17.46v3.04c0 .28.22.5.5.5h3.04c.13 0 .26-.05.35-.15L17.81 9.94l-3.75-3.75L3.15 17.1c-.1.1-.15.22-.15.36zM20.71 7.04a.996.996 0 000-1.41l-2.34-2.34a.996.996 0 00-1.41 0l-1.83 1.83 3.75 3.75 1.83-1.83z" fill="#000"/></mask><g mask="url(#a)"><path fill="#A29061" d="M0 0h24v24H0z"/></g></svg>