<svg width="24" height="24" fill="none" xmlns="http://www.w3.org/2000/svg"><path d="M16.805 14.076l1.904-7.598H16.23l-.484 1.59c-.342-.765-.856-1.296-1.541-1.59-.685-.314-1.35-.471-1.995-.471a5.78 5.78 0 00-2.72.648 6.926 6.926 0 00-2.084 1.708 8.322 8.322 0 00-1.33 2.415 8.58 8.58 0 00-.453 2.739c0 .687.12 1.335.362 1.944a5.886 5.886 0 001.028 1.62c.443.45.947.814 1.51 1.089a4.555 4.555 0 001.844.383 4.28 4.28 0 001.843-.412c.585-.275 1.058-.707 1.42-1.296h.061c.04.49.252.893.635 1.207.403.314.927.471 1.571.471.484 0 1.119-.157 1.904-.47.806-.335 1.592-.845 2.357-1.532.786-.687 1.45-1.571 1.995-2.65.564-1.08.846-2.377.846-3.888 0-1.355-.292-2.582-.876-3.682a8.69 8.69 0 00-2.327-2.827c-.967-.785-2.085-1.394-3.355-1.826A12.203 12.203 0 0012.483 1c-1.57 0-3.052.285-4.442.854a11.874 11.874 0 00-3.656 2.327 10.746 10.746 0 00-2.478 3.504C1.302 9.021 1 10.464 1 12.015c0 1.57.302 3.033.907 4.388a10.833 10.833 0 002.478 3.475 11.727 11.727 0 003.717 2.297c1.41.55 2.92.825 4.533.825 1.893 0 3.646-.402 5.258-1.207a10.415 10.415 0 003.959-3.535h-2.539c-.785.766-1.753 1.365-2.9 1.797a10.394 10.394 0 01-3.597.618c-1.29 0-2.488-.206-3.596-.618-1.088-.412-2.025-.992-2.81-1.738a8.26 8.26 0 01-1.844-2.71c-.443-1.06-.665-2.237-.665-3.533 0-1.237.202-2.386.604-3.446.403-1.08.978-2.003 1.723-2.769a7.708 7.708 0 012.69-1.826c1.067-.451 2.246-.677 3.535-.677 1.149 0 2.216.157 3.204.471 1.007.314 1.873.786 2.599 1.414a6.373 6.373 0 011.752 2.268c.423.883.635 1.914.635 3.092 0 .785-.11 1.512-.333 2.18a6.086 6.086 0 01-.816 1.737 3.85 3.85 0 01-1.148 1.12c-.423.255-.846.382-1.27.382-.18 0-.311-.059-.392-.177a.974.974 0 01-.12-.5c0-.197.02-.403.06-.619.06-.235.12-.451.18-.648zm-8.099-.942c0-.491.09-.992.272-1.502.181-.51.433-.972.756-1.384a3.99 3.99 0 011.208-1.031 2.909 2.909 0 011.511-.412c.645 0 1.189.235 1.632.706.463.472.695 1.07.695 1.797 0 .51-.09 1.03-.272 1.56a4.809 4.809 0 01-.785 1.444 4.2 4.2 0 01-1.179 1.03 2.753 2.753 0 01-1.48.413c-.706 0-1.28-.236-1.723-.707-.423-.49-.635-1.129-.635-1.914z" fill="#A29061"/><mask id="a" style="mask-type:alpha" maskUnits="userSpaceOnUse" x="1" y="1" width="22" height="22"><path d="M16.805 14.076l1.904-7.598H16.23l-.484 1.59c-.342-.765-.856-1.296-1.541-1.59-.685-.314-1.35-.471-1.995-.471a5.78 5.78 0 00-2.72.648 6.926 6.926 0 00-2.084 1.708 8.322 8.322 0 00-1.33 2.415 8.58 8.58 0 00-.453 2.739c0 .687.12 1.335.362 1.944a5.886 5.886 0 001.028 1.62c.443.45.947.814 1.51 1.089a4.555 4.555 0 001.844.383 4.28 4.28 0 001.843-.412c.585-.275 1.058-.707 1.42-1.296h.061c.04.49.252.893.635 1.207.403.314.927.471 1.571.471.484 0 1.119-.157 1.904-.47.806-.335 1.592-.845 2.357-1.532.786-.687 1.45-1.571 1.995-2.65.564-1.08.846-2.377.846-3.888 0-1.355-.292-2.582-.876-3.682a8.69 8.69 0 00-2.327-2.827c-.967-.785-2.085-1.394-3.355-1.826A12.203 12.203 0 0012.483 1c-1.57 0-3.052.285-4.442.854a11.874 11.874 0 00-3.656 2.327 10.746 10.746 0 00-2.478 3.504C1.302 9.021 1 10.464 1 12.015c0 1.57.302 3.033.907 4.388a10.833 10.833 0 002.478 3.475 11.727 11.727 0 003.717 2.297c1.41.55 2.92.825 4.533.825 1.893 0 3.646-.402 5.258-1.207a10.415 10.415 0 003.959-3.535h-2.539c-.785.766-1.753 1.365-2.9 1.797a10.394 10.394 0 01-3.597.618c-1.29 0-2.488-.206-3.596-.618-1.088-.412-2.025-.992-2.81-1.738a8.26 8.26 0 01-1.844-2.71c-.443-1.06-.665-2.237-.665-3.533 0-1.237.202-2.386.604-3.446.403-1.08.978-2.003 1.723-2.769a7.708 7.708 0 012.69-1.826c1.067-.451 2.246-.677 3.535-.677 1.149 0 2.216.157 3.204.471 1.007.314 1.873.786 2.599 1.414a6.373 6.373 0 011.752 2.268c.423.883.635 1.914.635 3.092 0 .785-.11 1.512-.333 2.18a6.086 6.086 0 01-.816 1.737 3.85 3.85 0 01-1.148 1.12c-.423.255-.846.382-1.27.382-.18 0-.311-.059-.392-.177a.974.974 0 01-.12-.5c0-.197.02-.403.06-.619.06-.235.12-.451.18-.648zm-8.099-.942c0-.491.09-.992.272-1.502.181-.51.433-.972.756-1.384a3.99 3.99 0 011.208-1.031 2.909 2.909 0 011.511-.412c.645 0 1.189.235 1.632.706.463.472.695 1.07.695 1.797 0 .51-.09 1.03-.272 1.56a4.809 4.809 0 01-.785 1.444 4.2 4.2 0 01-1.179 1.03 2.753 2.753 0 01-1.48.413c-.706 0-1.28-.236-1.723-.707-.423-.49-.635-1.129-.635-1.914z" fill="#000"/></mask><g mask="url(#a)"><path fill="#A29061" d="M0 0h24v24H0z"/></g></svg>