<svg width="24" height="24" fill="none" xmlns="http://www.w3.org/2000/svg"><mask id="a" style="mask-type:alpha" maskUnits="userSpaceOnUse" x="0" y="4" width="24" height="16"><path d="M1.018 11.165C4.068 6.793 8.022 4.5 11.984 4.5c4.653 0 8.661 3.031 11.026 6.684l.001.001a1.507 1.507 0 01.001 1.63C20.65 16.514 16.667 19.5 11.984 19.5c-4.733 0-8.638-2.98-10.995-6.668a1.5 1.5 0 01.026-1.664l.003-.003zm1.232.855l.002.003C4.43 15.43 7.918 18 11.984 18c4.02 0 7.585-2.58 9.764-5.993l.002-.003v-.007C19.562 8.62 15.969 6 11.984 6 8.64 6 5.1 7.936 2.25 12.02z" fill="#00417E"/><path d="M12 9.75a2.25 2.25 0 100 4.5 2.25 2.25 0 000-4.5zM8.25 12a3.75 3.75 0 117.5 0 3.75 3.75 0 01-7.5 0z" fill="#00417E"/></mask><g mask="url(#a)"><path fill="#A29061" d="M0 0h24v24H0z"/></g></svg>