<svg width="24" height="24" fill="none" xmlns="http://www.w3.org/2000/svg"><path fill-rule="evenodd" clip-rule="evenodd" d="M16.293 21.707a1 1 0 010-1.414L18.586 18H10.5a7.5 7.5 0 010-15h.5a1 1 0 110 2h-.5a5.5 5.5 0 000 11h8.086l-2.293-2.293a1 1 0 011.414-1.414l4 4a1 1 0 010 1.414l-4 4a1 1 0 01-1.414 0zM22 4a1 1 0 01-1 1h-1a1 1 0 110-2h1a1 1 0 011 1zm-5 0a1 1 0 01-1 1h-1a1 1 0 110-2h1a1 1 0 011 1z" fill="#A29061"/><mask id="a" style="mask-type:alpha" maskUnits="userSpaceOnUse" x="3" y="3" width="19" height="19"><path fill-rule="evenodd" clip-rule="evenodd" d="M16.293 21.707a1 1 0 010-1.414L18.586 18H10.5a7.5 7.5 0 010-15h.5a1 1 0 110 2h-.5a5.5 5.5 0 000 11h8.086l-2.293-2.293a1 1 0 011.414-1.414l4 4a1 1 0 010 1.414l-4 4a1 1 0 01-1.414 0zM22 4a1 1 0 01-1 1h-1a1 1 0 110-2h1a1 1 0 011 1zm-5 0a1 1 0 01-1 1h-1a1 1 0 110-2h1a1 1 0 011 1z" fill="#000"/></mask><g mask="url(#a)"><path fill="#A29061" d="M25 24H1V0h24z"/></g></svg>