<svg width="24" height="24" fill="none" xmlns="http://www.w3.org/2000/svg"><path d="M13.517 18.5a1 1 0 01-1 1h-.984a1 1 0 01-1-1v-1a1 1 0 011-1h.984a1 1 0 011 1v1zm1.787-6.931l-.969.966C13.56 13.303 13.2 13.5 13.2 15H11l-.076-.016a4.18 4.18 0 011.259-2.974l1.334-1.324c.398-.379.635-.904.635-1.482 0-1.156-.968-2.102-2.152-2.102-1.184 0-2 1.242-2 2.398H7.5C7.5 6.92 9.622 5 12 5c2.66 0 4.5 1.624 4.5 4.204 0 .925-.583 1.765-1.196 2.364z" fill="#00417E"/><path d="M12 21.5a9.5 9.5 0 110-19 9.5 9.5 0 010 19zm0 1.5c6.075 0 11-4.925 11-11S18.075 1 12 1 1 5.925 1 12s4.925 11 11 11z" fill="#00417E"/><mask id="a" style="mask-type:alpha" maskUnits="userSpaceOnUse" x="1" y="1" width="22" height="22"><path d="M13.517 18.5a1 1 0 01-1 1h-.984a1 1 0 01-1-1v-1a1 1 0 011-1h.984a1 1 0 011 1v1zm1.787-6.931l-.969.966C13.56 13.303 13.2 13.5 13.2 15H11l-.076-.016a4.18 4.18 0 011.259-2.974l1.334-1.324c.398-.379.635-.904.635-1.482 0-1.156-.968-2.102-2.152-2.102-1.184 0-2 1.242-2 2.398H7.5C7.5 6.92 9.622 5 12 5c2.66 0 4.5 1.624 4.5 4.204 0 .925-.583 1.765-1.196 2.364z" fill="#000"/><path d="M12 21.5a9.5 9.5 0 110-19 9.5 9.5 0 010 19zm0 1.5c6.075 0 11-4.925 11-11S18.075 1 12 1 1 5.925 1 12s4.925 11 11 11z" fill="#000"/></mask><g mask="url(#a)"><path fill="#A29061" d="M-4-4h32v32H-4z"/></g></svg>