<svg width="24" height="24" fill="none" xmlns="http://www.w3.org/2000/svg"><path d="M22 4v12c0 1.1-.9 2-2 2H8c-1.1 0-2-.9-2-2V4c0-1.1.9-2 2-2h12c1.1 0 2 .9 2 2zm-9 10l-1.6-1.47c-.2-.26-.6-.26-.8 0L8.1 15.2a.5.5 0 00.4.8h11c.42 0 .65-.48.39-.81l-3.5-3.7a.5.5 0 00-.78 0L13 14zm-2.5-6a1.5 1.5 0 100-3 1.5 1.5 0 000 3z" fill="#00417E"/><path d="M2 20V7c0-.55.45-1 1-1s1 .45 1 1v12c0 .55.45 1 1 1h12c.55 0 1 .45 1 1s-.45 1-1 1H4c-1.1 0-2-.9-2-2z" fill="#00417E"/><mask id="a" style="mask-type:alpha" maskUnits="userSpaceOnUse" x="2" y="2" width="20" height="20"><path fill-rule="evenodd" clip-rule="evenodd" d="M22 4v12c0 1.1-.9 2-2 2H8c-1.1 0-2-.9-2-2V4c0-1.1.9-2 2-2h12c1.1 0 2 .9 2 2zm-9 10l-1.6-1.47c-.2-.26-.6-.26-.8 0L8.1 15.2a.5.5 0 00.4.8h11c.42 0 .65-.48.39-.81l-3.5-3.7a.5.5 0 00-.78 0L13 14zm-2.5-6a1.5 1.5 0 100-3 1.5 1.5 0 000 3z" fill="#000"/><path d="M2 20V7c0-.55.45-1 1-1s1 .45 1 1v12c0 .55.45 1 1 1h12c.55 0 1 .45 1 1s-.45 1-1 1H4c-1.1 0-2-.9-2-2z" fill="#000"/></mask><g mask="url(#a)"><path fill="#A29061" d="M0 0h24v24H0z"/></g></svg>