<svg width="24" height="24" fill="none" xmlns="http://www.w3.org/2000/svg"><path d="M10 6.5h8V8h-8V6.5zm0 5h8V13h-8v-1.5zm0 5h8V18h-8v-1.5zM6 6h2v2H6V6zm0 5h2v2H6v-2zm0 5h2v2H6v-2zM21 2H3c-.556 0-1 .444-1 1v18c0 .444.444 1 1 1h18c.444 0 1-.556 1-1V3c0-.556-.556-1-1-1zm-.5 18.5h-17v-17h17v17z" fill="#A29061"/><mask id="a" style="mask-type:alpha" maskUnits="userSpaceOnUse" x="2" y="2" width="20" height="20"><path d="M10 6.5h8V8h-8V6.5zm0 5h8V13h-8v-1.5zm0 5h8V18h-8v-1.5zM6 6h2v2H6V6zm0 5h2v2H6v-2zm0 5h2v2H6v-2zM21 2H3c-.556 0-1 .444-1 1v18c0 .444.444 1 1 1h18c.444 0 1-.556 1-1V3c0-.556-.556-1-1-1zm-.5 18.5h-17v-17h17v17z" fill="#000"/></mask><g mask="url(#a)"><path fill="#A29061" d="M0 0h24v24H0z"/></g></svg>