<svg width="24" height="24" fill="none" xmlns="http://www.w3.org/2000/svg"><path fill-rule="evenodd" clip-rule="evenodd" d="M12 5s.2-.2.583-.472C13.413 3.936 15.105 3 17.5 3 21 3 23 4 23 4v16.5s-.548-.41-1.5-.802A9.227 9.227 0 0018 19c-2.086 0-4.173 1.451-5.25 2.335-.472.387-.75.665-.75.665s-.278-.278-.75-.665C10.173 20.45 8.086 19 6 19a9.2 9.2 0 00-3.5.698c-.952.391-1.5.802-1.5.802V4s2-1 5.5-1c2.395 0 4.087.936 4.917 1.528C11.801 4.8 12 5 12 5zM2.5 18.094A10.685 10.685 0 016 17.5c1.95 0 3.757.952 4.957 1.752.1.067.198.134.293.2V6.372l-.303-.304-.036-.033a3.845 3.845 0 00-.196-.161 6.102 6.102 0 00-.858-.55A7.092 7.092 0 006.5 4.5c-1.606 0-2.851.23-3.676.45a10.47 10.47 0 00-.324.091v13.053zM12.75 6.371v13.081c.095-.066.193-.133.293-.2 1.2-.8 3.006-1.752 4.957-1.752 1.372 0 2.562.269 3.5.594V5.041c-.1-.03-.208-.06-.324-.092-.825-.22-2.07-.449-3.676-.449-1.456 0-2.59.415-3.357.824a6.101 6.101 0 00-.858.55 3.845 3.845 0 00-.232.194l-.303.303zm9.588-1.025l-.002-.001.002.001zm-2.167 2.49a.75.75 0 01-1.006.335c-.345-.173-.95-.291-1.67-.236-.708.055-1.454.272-2.079.689a.75.75 0 11-.832-1.248c.875-.583 1.879-.866 2.796-.936.905-.07 1.8.062 2.455.39a.75.75 0 01.336 1.005zm-5.795 4.08a.75.75 0 01.208-1.04c.875-.583 1.879-.866 2.796-.936.905-.07 1.8.062 2.455.39a.75.75 0 11-.67 1.34c-.345-.171-.95-.29-1.67-.235-.708.055-1.454.272-2.079.689a.75.75 0 01-1.04-.208zm0 3.5a.75.75 0 01.208-1.04c.875-.583 1.879-.866 2.796-.936.905-.07 1.8.062 2.455.39a.75.75 0 11-.67 1.34c-.345-.171-.95-.29-1.67-.235-.708.055-1.454.272-2.079.689a.75.75 0 01-1.04-.208zM3.788 7.737a.75.75 0 01.475-.949c1.664-.554 3.417-.57 5.153.588a.75.75 0 01-.832 1.248c-1.264-.842-2.51-.858-3.847-.412a.75.75 0 01-.949-.475zm0 3.5a.75.75 0 01.475-.948c1.664-.555 3.417-.57 5.153.587a.75.75 0 11-.832 1.248c-1.264-.842-2.51-.858-3.847-.413a.75.75 0 01-.949-.474zm0 3.5a.75.75 0 01.475-.948c1.664-.555 3.417-.57 5.153.587a.75.75 0 11-.832 1.248c-1.264-.842-2.51-.858-3.847-.413a.75.75 0 01-.949-.474z" fill="#A29061"/><mask id="a" style="mask-type:alpha" maskUnits="userSpaceOnUse" x="1" y="3" width="22" height="19"><path fill-rule="evenodd" clip-rule="evenodd" d="M12 5s.2-.2.583-.472C13.413 3.936 15.105 3 17.5 3 21 3 23 4 23 4v16.5s-.548-.41-1.5-.802A9.227 9.227 0 0018 19c-2.086 0-4.173 1.451-5.25 2.335-.472.387-.75.665-.75.665s-.278-.278-.75-.665C10.173 20.45 8.086 19 6 19a9.2 9.2 0 00-3.5.698c-.952.391-1.5.802-1.5.802V4s2-1 5.5-1c2.395 0 4.087.936 4.917 1.528C11.801 4.8 12 5 12 5zM2.5 18.094A10.685 10.685 0 016 17.5c1.95 0 3.757.952 4.957 1.752.1.067.198.134.293.2V6.372l-.303-.304-.036-.033a3.845 3.845 0 00-.196-.161 6.102 6.102 0 00-.858-.55A7.092 7.092 0 006.5 4.5c-1.606 0-2.851.23-3.676.45a10.47 10.47 0 00-.324.091v13.053zM12.75 6.371v13.081c.095-.066.193-.133.293-.2 1.2-.8 3.006-1.752 4.957-1.752 1.372 0 2.562.269 3.5.594V5.041c-.1-.03-.208-.06-.324-.092-.825-.22-2.07-.449-3.676-.449-1.456 0-2.59.415-3.357.824a6.101 6.101 0 00-.858.55 3.845 3.845 0 00-.232.194l-.303.303zm9.588-1.025l-.002-.001.002.001zm-2.167 2.49a.75.75 0 01-1.006.335c-.345-.173-.95-.291-1.67-.236-.708.055-1.454.272-2.079.689a.75.75 0 11-.832-1.248c.875-.583 1.879-.866 2.796-.936.905-.07 1.8.062 2.455.39a.75.75 0 01.336 1.005zm-5.795 4.08a.75.75 0 01.208-1.04c.875-.583 1.879-.866 2.796-.936.905-.07 1.8.062 2.455.39a.75.75 0 11-.67 1.34c-.345-.171-.95-.29-1.67-.235-.708.055-1.454.272-2.079.689a.75.75 0 01-1.04-.208zm0 3.5a.75.75 0 01.208-1.04c.875-.583 1.879-.866 2.796-.936.905-.07 1.8.062 2.455.39a.75.75 0 11-.67 1.34c-.345-.171-.95-.29-1.67-.235-.708.055-1.454.272-2.079.689a.75.75 0 01-1.04-.208zM3.788 7.737a.75.75 0 01.475-.949c1.664-.554 3.417-.57 5.153.588a.75.75 0 01-.832 1.248c-1.264-.842-2.51-.858-3.847-.412a.75.75 0 01-.949-.475zm0 3.5a.75.75 0 01.475-.948c1.664-.555 3.417-.57 5.153.587a.75.75 0 11-.832 1.248c-1.264-.842-2.51-.858-3.847-.413a.75.75 0 01-.949-.474zm0 3.5a.75.75 0 01.475-.948c1.664-.555 3.417-.57 5.153.587a.75.75 0 11-.832 1.248c-1.264-.842-2.51-.858-3.847-.413a.75.75 0 01-.949-.474z" fill="#000"/></mask><g mask="url(#a)"><path fill="#A29061" d="M-4-3.5h32v32H-4z"/></g></svg>