<svg width="24" height="24" fill="none" xmlns="http://www.w3.org/2000/svg"><path d="M3.5 3.998V4c0 .003.001.03.033.088.034.062.099.15.212.254.228.212.598.446 1.11.663 1.02.432 2.481.745 4.145.745 1.664 0 3.125-.313 4.145-.745.512-.217.882-.451 1.11-.663a1.07 1.07 0 00.212-.254.282.282 0 00.031-.077c-.01-.023-.057-.115-.256-.266-.265-.201-.685-.414-1.239-.607C11.901 2.754 10.423 2.5 9 2.5c-1.43 0-2.91.233-4.01.605-.552.187-.967.396-1.227.597a.995.995 0 00-.234.236.233.233 0 00-.029.06zm11 2.006a6.824 6.824 0 01-.77.382c-1.23.521-2.894.864-4.73.864-1.836 0-3.5-.343-4.73-.864a6.829 6.829 0 01-.77-.382V8c0 .233.135.5.618.797.482.294 1.169.523 1.92.69.74.164 1.487.258 2.055.31.227.022.424.036.577.046.582-.588 1.478-1.001 2.444-1.284.983-.287 2.147-.47 3.386-.533V6.004zM16 8.006c1.692.043 3.277.305 4.497.754.668.246 1.268.563 1.713.968.452.41.79.954.79 1.618v8.308c0 .664-.338 1.209-.79 1.618-.445.405-1.045.722-1.713.968-1.339.493-3.12.76-4.997.76-1.877 0-3.658-.267-4.997-.76-.668-.246-1.267-.563-1.713-.968-.434-.393-.764-.912-.789-1.542-1.422-.076-2.737-.365-3.761-.797-.599-.252-1.132-.567-1.529-.947C2.317 17.608 2 17.105 2 16.5V4c0-.66.418-1.155.847-1.486.442-.341 1.028-.615 1.662-.83C5.785 1.252 7.431 1 9 1c1.577 0 3.224.278 4.497.722.633.22 1.214.496 1.652.828.413.314.851.797.851 1.45v4.006zM3.5 10.172V12c0 .282.158.584.621.911.463.329 1.121.597 1.839.806a15.62 15.62 0 002.04.436v-2.857l-.046-.005a18.334 18.334 0 01-2.242-.34c-.748-.167-1.55-.41-2.212-.779zm6 3.3V15.5c0 .039.023.183.29.418.259.229.675.471 1.243.692 1.132.44 2.725.736 4.467.736 1.757 0 3.352-.252 4.479-.668.566-.208.972-.442 1.224-.67.246-.224.297-.394.297-.508v-2.028a6.616 6.616 0 01-1.003.46c-1.339.493-3.12.76-4.997.76-1.877 0-3.658-.267-4.997-.76a6.616 6.616 0 01-1.003-.46zm12-2.126c0-.114-.051-.284-.297-.507-.252-.229-.658-.463-1.224-.671-1.127-.416-2.722-.668-4.479-.668-.08 0-.16 0-.24.002-1.408.018-2.705.2-3.726.497-1.058.31-1.681.705-1.922 1.044a.514.514 0 00-.112.303c0 .114.051.284.297.507.252.229.658.463 1.224.672 1.127.415 2.722.667 4.479.667 1.757 0 3.352-.252 4.479-.667.566-.209.972-.443 1.224-.672.246-.223.297-.393.297-.507zm0 6.28a6.617 6.617 0 01-1.003.46c-1.339.493-3.12.76-4.997.76-1.893 0-3.675-.32-5.01-.838a7.135 7.135 0 01-.99-.468v2.114c0 .114.051.284.297.507.252.229.658.463 1.224.671 1.127.415 2.722.668 4.479.668 1.757 0 3.352-.253 4.479-.668.566-.208.972-.442 1.224-.67.246-.224.297-.394.297-.508v-2.028zM8 15.668a17.122 17.122 0 01-2.46-.51c-.688-.201-1.423-.477-2.04-.86V16.5c0 .051.026.189.25.403.22.212.577.44 1.073.648.823.347 1.934.602 3.177.677v-2.56z" fill="#00417E"/><mask id="a" style="mask-type:alpha" maskUnits="userSpaceOnUse" x="2" y="1" width="21" height="22"><path fill-rule="evenodd" clip-rule="evenodd" d="M3.5 3.998V4c0 .003.001.03.033.088.034.062.099.15.212.254.228.212.598.446 1.11.663 1.02.432 2.481.745 4.145.745 1.664 0 3.125-.313 4.145-.745.512-.217.882-.451 1.11-.663a1.07 1.07 0 00.212-.254.282.282 0 00.031-.077c-.01-.023-.057-.115-.256-.266-.265-.201-.685-.414-1.239-.607C11.901 2.754 10.423 2.5 9 2.5c-1.43 0-2.91.233-4.01.605-.552.187-.967.396-1.227.597a.995.995 0 00-.234.236.233.233 0 00-.029.06zm11 2.006a6.824 6.824 0 01-.77.382c-1.23.521-2.894.864-4.73.864-1.836 0-3.5-.343-4.73-.864a6.829 6.829 0 01-.77-.382V8c0 .233.135.5.618.797.482.294 1.169.523 1.92.69.74.164 1.487.258 2.055.31.227.022.424.036.577.046.582-.588 1.478-1.001 2.444-1.284.983-.287 2.147-.47 3.386-.533V6.004zM16 8.006c1.692.043 3.277.305 4.497.754.668.246 1.268.563 1.713.968.452.41.79.954.79 1.618v8.308c0 .664-.338 1.209-.79 1.618-.445.405-1.045.722-1.713.968-1.339.493-3.12.76-4.997.76-1.877 0-3.658-.267-4.997-.76-.668-.246-1.267-.563-1.713-.968-.434-.393-.764-.912-.789-1.542-1.422-.076-2.737-.365-3.761-.797-.599-.252-1.132-.567-1.529-.947C2.317 17.608 2 17.105 2 16.5V4c0-.66.418-1.155.847-1.486.442-.341 1.028-.615 1.662-.83C5.785 1.252 7.431 1 9 1c1.577 0 3.224.278 4.497.722.633.22 1.214.496 1.652.828.413.314.851.797.851 1.45v4.006zM3.5 10.172V12c0 .282.158.584.621.911.463.329 1.121.597 1.839.806a15.62 15.62 0 002.04.436v-2.857l-.046-.005a18.334 18.334 0 01-2.242-.34c-.748-.167-1.55-.41-2.212-.779zm6 3.3V15.5c0 .039.023.183.29.418.259.229.675.471 1.243.692 1.132.44 2.725.736 4.467.736 1.757 0 3.352-.252 4.479-.668.566-.208.972-.442 1.224-.67.246-.224.297-.394.297-.508v-2.028a6.616 6.616 0 01-1.003.46c-1.339.493-3.12.76-4.997.76-1.877 0-3.658-.267-4.997-.76a6.616 6.616 0 01-1.003-.46zm12-2.126c0-.114-.051-.284-.297-.507-.252-.229-.658-.463-1.224-.671-1.127-.416-2.722-.668-4.479-.668-.08 0-.16 0-.24.002-1.408.018-2.705.2-3.726.497-1.058.31-1.681.705-1.922 1.044a.514.514 0 00-.112.303c0 .114.051.284.297.507.252.229.658.463 1.224.672 1.127.415 2.722.667 4.479.667 1.757 0 3.352-.252 4.479-.667.566-.209.972-.443 1.224-.672.246-.223.297-.393.297-.507zm0 6.28a6.617 6.617 0 01-1.003.46c-1.339.493-3.12.76-4.997.76-1.893 0-3.675-.32-5.01-.838a7.135 7.135 0 01-.99-.468v2.114c0 .114.051.284.297.507.252.229.658.463 1.224.671 1.127.415 2.722.668 4.479.668 1.757 0 3.352-.253 4.479-.668.566-.208.972-.442 1.224-.67.246-.224.297-.394.297-.508v-2.028zM8 15.668v2.56c-1.243-.075-2.354-.33-3.177-.677-.496-.209-.853-.436-1.073-.648-.224-.214-.25-.352-.25-.403v-2.202c.617.383 1.352.659 2.04.86a17.122 17.122 0 002.46.51z" fill="#000"/></mask><g mask="url(#a)"><path fill="#A29061" d="M-8.5-5.5h32v32h-32z"/></g></svg>