<svg width="24" height="24" fill="none" xmlns="http://www.w3.org/2000/svg"><path fill-rule="evenodd" clip-rule="evenodd" d="M1 2a1 1 0 001 1h20.003a1 1 0 100-2H2a1 1 0 00-1 1zm3.296 10.707a1 1 0 001.414 0l5.293-5.294V22a1 1 0 102 0V7.413l5.293 5.294a1 1 0 101.414-1.414l-7-7.001a1 1 0 00-1.414 0l-7 7.001a1 1 0 000 1.414z" fill="#A29061"/><mask id="a" style="mask-type:alpha" maskUnits="userSpaceOnUse" x="1" y="1" width="23" height="22"><path fill-rule="evenodd" clip-rule="evenodd" d="M1 2a1 1 0 001 1h20.003a1 1 0 100-2H2a1 1 0 00-1 1zm3.296 10.707a1 1 0 001.414 0l5.293-5.294V22a1 1 0 102 0V7.413l5.293 5.294a1 1 0 101.414-1.414l-7-7.001a1 1 0 00-1.414 0l-7 7.001a1 1 0 000 1.414z" fill="#000"/></mask><g mask="url(#a)"><path fill="#A29061" d="M24.003 24h-24V0h24z"/></g></svg>