<svg width="24" height="24" fill="none" xmlns="http://www.w3.org/2000/svg"><path d="M14.75 3.75a2.75 2.75 0 11-5.5 0 2.75 2.75 0 015.5 0zM6 10a3 3 0 013-3h6a3 3 0 013 3v5a1 1 0 11-2 0v-5h-1v11.75a1.25 1.25 0 11-2.5 0V16h-1v5.75a1.25 1.25 0 11-2.5 0V10H8v5a1 1 0 11-2 0v-5z" fill="#A29061"/><mask id="a" style="mask-type:alpha" maskUnits="userSpaceOnUse" x="6" y="1" width="12" height="22"><path d="M14.75 3.75a2.75 2.75 0 11-5.5 0 2.75 2.75 0 015.5 0zM6 10a3 3 0 013-3h6a3 3 0 013 3v5a1 1 0 11-2 0v-5h-1v11.75a1.25 1.25 0 11-2.5 0V16h-1v5.75a1.25 1.25 0 11-2.5 0V10H8v5a1 1 0 11-2 0v-5z" fill="#000"/></mask><g mask="url(#a)"><path fill="#A29061" d="M-4-4h32v32H-4z"/></g></svg>