<svg width="24" height="24" fill="none" xmlns="http://www.w3.org/2000/svg"><path d="M5.752 1.252c-.784-.028-1.44.273-1.97.648l-.663.608-.687.634-.343.356c-.61.61-.84 1.5-.839 2.434.001.947.236 2.042.673 3.2.96 2.547 2.837 5.271 5.255 7.69 2.419 2.418 5.142 4.294 7.69 5.254 1.16.438 2.258.674 3.206.674.931 0 1.82-.23 2.426-.837.098-.097.202-.196.316-.305l.05-.048.02-.02c.384-.363.853-.808 1.215-1.319.377-.53.679-1.19.647-1.976-.046-1.097-.724-2.032-1.759-2.863-1.466-1.18-2.648-1.664-3.726-1.492-1.002.16-1.705.874-2.241 1.42l-.063.063-.103.104a1.17 1.17 0 01-.123-.037 3.827 3.827 0 01-.736-.387c-.698-.454-1.61-1.23-2.715-2.336-1.696-1.697-2.385-2.704-2.64-3.26a1.55 1.55 0 01-.114-.317l.095-.095.064-.063h.002c.546-.537 1.261-1.24 1.422-2.242.172-1.079-.312-2.262-1.492-3.73-.831-1.033-1.767-1.713-2.862-1.758h-.005zM3.53 4.166c.387-.407.74-.773 1.118-1.041.367-.26.703-.386 1.05-.374.463.02 1.038.31 1.753 1.2 1.106 1.375 1.249 2.12 1.18 2.552-.076.468-.42.843-1.06 1.474v.001l-.211.209-.003.002a1.195 1.195 0 00-.336.8c-.016.327.072.69.259 1.095.368.802 1.21 1.961 2.943 3.694 1.133 1.133 2.13 1.995 2.958 2.533.255.166.65.4 1.052.543.2.071.447.136.705.135.267 0 .603-.074.874-.345l.002-.002.212-.214.002-.002c.629-.638 1.004-.98 1.472-1.055.431-.068 1.177.075 2.55 1.18.892.716 1.18 1.29 1.2 1.756.014.344-.11.679-.372 1.047-.269.38-.636.732-1.044 1.12h-.002l-.05.048c-.112.107-.23.219-.34.328l-.001.002c-.215.215-.64.398-1.366.398-.715 0-1.628-.181-2.677-.577-2.3-.867-4.848-2.602-7.158-4.912-2.31-2.31-4.046-4.86-4.913-7.159-.394-1.045-.575-1.956-.576-2.671 0-.727.183-1.155.4-1.372.122-.123.246-.253.365-.378l.014-.015z" fill="#00417E"/><mask id="a" style="mask-type:alpha" maskUnits="userSpaceOnUse" x="1" y="1" width="22" height="22"><path d="M5.752 1.252c-.784-.028-1.44.273-1.97.648l-.663.608-.687.634-.343.356c-.61.61-.84 1.5-.839 2.434.001.947.236 2.042.673 3.2.96 2.547 2.837 5.271 5.255 7.69 2.419 2.418 5.142 4.294 7.69 5.254 1.16.438 2.258.674 3.206.674.931 0 1.82-.23 2.426-.837.098-.097.202-.196.316-.305l.05-.048.02-.02c.384-.363.853-.808 1.215-1.319.377-.53.679-1.19.647-1.976-.046-1.097-.724-2.032-1.759-2.863-1.466-1.18-2.648-1.664-3.726-1.492-1.002.16-1.705.874-2.241 1.42l-.063.063-.103.104a1.17 1.17 0 01-.123-.037 3.827 3.827 0 01-.736-.387c-.698-.454-1.61-1.23-2.715-2.336-1.696-1.697-2.385-2.704-2.64-3.26a1.55 1.55 0 01-.114-.317l.095-.095.064-.063h.002c.546-.537 1.261-1.24 1.422-2.242.172-1.079-.312-2.262-1.492-3.73-.831-1.033-1.767-1.713-2.862-1.758h-.005zM3.53 4.166c.387-.407.74-.773 1.118-1.041.367-.26.703-.386 1.05-.374.463.02 1.038.31 1.753 1.2 1.106 1.375 1.249 2.12 1.18 2.552-.076.468-.42.843-1.06 1.474v.001l-.211.209-.003.002a1.195 1.195 0 00-.336.8c-.016.327.072.69.259 1.095.368.802 1.21 1.961 2.943 3.694 1.133 1.133 2.13 1.995 2.958 2.533.255.166.65.4 1.052.543.2.071.447.136.705.135.267 0 .603-.074.874-.345l.002-.002.212-.214.002-.002c.629-.638 1.004-.98 1.472-1.055.431-.068 1.177.075 2.55 1.18.892.716 1.18 1.29 1.2 1.756.014.344-.11.679-.372 1.047-.269.38-.636.732-1.044 1.12h-.002l-.05.048c-.112.107-.23.219-.34.328l-.001.002c-.215.215-.64.398-1.366.398-.715 0-1.628-.181-2.677-.577-2.3-.867-4.848-2.602-7.158-4.912-2.31-2.31-4.046-4.86-4.913-7.159-.394-1.045-.575-1.956-.576-2.671 0-.727.183-1.155.4-1.372.122-.123.246-.253.365-.378l.014-.015z" fill="#000"/></mask><g mask="url(#a)"><path fill="#A29061" d="M0 0h24v24H0z"/></g></svg>