<svg width="24" height="24" fill="none" xmlns="http://www.w3.org/2000/svg"><path d="M15.5 10c0 1.928-1.572 3.5-3.5 3.5A3.506 3.506 0 018.5 10c0-1.928 1.572-3.5 3.5-3.5s3.5 1.572 3.5 3.5zm3 .2c0-4.106-3.082-6.7-6.5-6.7s-6.5 2.594-6.5 6.7c0 1.202.465 2.648 1.59 4.37 1.072 1.64 2.693 3.456 4.905 5.444 2.218-1.989 3.84-3.804 4.913-5.444 1.127-1.723 1.592-3.168 1.592-4.37zm-7.17 11.23C6.45 17.12 4 13.38 4 10.2 4 5.22 7.8 2 12 2s8 3.22 8 8.2c0 3.18-2.45 6.92-7.34 11.23-.38.33-.95.33-1.33 0zM14 10c0-1.1-.9-2-2-2s-2 .9-2 2 .9 2 2 2 2-.9 2-2z" fill="#00417E"/><mask id="a" style="mask-type:alpha" maskUnits="userSpaceOnUse" x="4" y="2" width="16" height="20"><path d="M15.5 10c0 1.928-1.572 3.5-3.5 3.5A3.506 3.506 0 018.5 10c0-1.928 1.572-3.5 3.5-3.5s3.5 1.572 3.5 3.5zm3 .2c0-4.106-3.082-6.7-6.5-6.7s-6.5 2.594-6.5 6.7c0 1.202.465 2.648 1.59 4.37 1.072 1.64 2.693 3.456 4.905 5.444 2.218-1.989 3.84-3.804 4.913-5.444 1.127-1.723 1.592-3.168 1.592-4.37zm-7.17 11.23C6.45 17.12 4 13.38 4 10.2 4 5.22 7.8 2 12 2s8 3.22 8 8.2c0 3.18-2.45 6.92-7.34 11.23-.38.33-.95.33-1.33 0zM14 10c0-1.1-.9-2-2-2s-2 .9-2 2 .9 2 2 2 2-.9 2-2z" fill="#000"/></mask><g mask="url(#a)"><path fill="#A29061" d="M0 0h24v24H0z"/></g></svg>