<svg width="24" height="24" fill="none" xmlns="http://www.w3.org/2000/svg"><path fill-rule="evenodd" clip-rule="evenodd" d="M12 22.5c5.799 0 10.5-4.701 10.5-10.5S17.799 1.5 12 1.5 1.5 6.201 1.5 12 6.201 22.5 12 22.5zM24 12c0 6.627-5.373 12-12 12S0 18.627 0 12 5.373 0 12 0s12 5.373 12 12z" fill="#A29061"/><path d="M13.488 17V7h-1.582c-.056.381-.173.7-.35.957a2.199 2.199 0 01-.658.629 2.71 2.71 0 01-.868.328 4.844 4.844 0 01-.994.072v1.528H11.5V17h1.988z" fill="#A29061"/><mask id="a" style="mask-type:alpha" maskUnits="userSpaceOnUse" x="0" y="0" width="24" height="24"><path fill-rule="evenodd" clip-rule="evenodd" d="M12 22.5c5.799 0 10.5-4.701 10.5-10.5S17.799 1.5 12 1.5 1.5 6.201 1.5 12 6.201 22.5 12 22.5zM24 12c0 6.627-5.373 12-12 12S0 18.627 0 12 5.373 0 12 0s12 5.373 12 12z" fill="#000"/><path d="M13.488 17V7h-1.582c-.056.381-.173.7-.35.957a2.199 2.199 0 01-.658.629 2.71 2.71 0 01-.868.328 4.844 4.844 0 01-.994.072v1.528H11.5V17h1.988z" fill="#000"/></mask><g mask="url(#a)"><path fill="#A29061" d="M0 0h24v24H0z"/></g></svg>