<svg width="24" height="24" fill="none" xmlns="http://www.w3.org/2000/svg"><path d="M12 22.5C6.201 22.5 1.5 17.799 1.5 12S6.201 1.5 12 1.5 22.5 6.201 22.5 12 17.799 22.5 12 22.5zM24 12c0-6.627-5.373-12-12-12S0 5.373 0 12s5.373 12 12 12 12-5.373 12-12z" fill="#00417E"/><path d="M14.59 17l-.803-2.384h-3.736L9.233 17H7l3.692-10h2.616L17 17h-2.41zm-2.726-7.921l-1.334 3.922h2.785L11.996 9.08h-.132z" fill="#00417E"/><mask id="a" style="mask-type:alpha" maskUnits="userSpaceOnUse" x="0" y="0" width="24" height="24"><path d="M12 22.5C6.201 22.5 1.5 17.799 1.5 12S6.201 1.5 12 1.5 22.5 6.201 22.5 12 17.799 22.5 12 22.5zM24 12c0-6.627-5.373-12-12-12S0 5.373 0 12s5.373 12 12 12 12-5.373 12-12z" fill="#000"/><path d="M14.59 17l-.803-2.384h-3.736L9.233 17H7l3.692-10h2.616L17 17h-2.41zm-2.726-7.921l-1.334 3.922h2.785L11.996 9.08h-.132z" fill="#000"/></mask><g mask="url(#a)"><path fill="#A29061" d="M0 0h24v24H0z"/></g></svg>