<svg width="24" height="24" fill="none" xmlns="http://www.w3.org/2000/svg"><path fill-rule="evenodd" clip-rule="evenodd" d="M12 22.5c5.799 0 10.5-4.701 10.5-10.5S17.799 1.5 12 1.5 1.5 6.201 1.5 12 6.201 22.5 12 22.5zM24 12c0 6.627-5.373 12-12 12S0 18.627 0 12 5.373 0 12 0s12 5.373 12 12z" fill="#A29061"/><path d="M10.599 11.048v-2.34h2.059c.196 0 .383.02.56.057.187.028.35.084.49.168s.252.2.336.35c.084.15.126.34.126.574 0 .42-.126.724-.378.91-.252.187-.574.28-.966.28h-2.227zM8.4 7v10h4.846c.448 0 .882-.056 1.303-.168a3.425 3.425 0 001.134-.518c.336-.234.602-.533.798-.897.196-.373.294-.812.294-1.316 0-.626-.154-1.158-.462-1.597-.299-.448-.756-.76-1.372-.938.448-.215.784-.49 1.008-.827.234-.336.35-.756.35-1.26 0-.467-.08-.859-.238-1.176a1.82 1.82 0 00-.644-.757 2.737 2.737 0 00-1.009-.42A6.227 6.227 0 0013.106 7H8.4zm2.199 8.291v-2.745h2.395c.476 0 .859.112 1.148.336.29.215.434.58.434 1.093 0 .261-.046.476-.14.644-.084.168-.2.303-.35.406-.15.094-.322.164-.518.21a3.293 3.293 0 01-.616.056h-2.353z" fill="#A29061"/><mask id="a" style="mask-type:alpha" maskUnits="userSpaceOnUse" x="0" y="0" width="24" height="24"><path fill-rule="evenodd" clip-rule="evenodd" d="M12 22.5c5.799 0 10.5-4.701 10.5-10.5S17.799 1.5 12 1.5 1.5 6.201 1.5 12 6.201 22.5 12 22.5zM24 12c0 6.627-5.373 12-12 12S0 18.627 0 12 5.373 0 12 0s12 5.373 12 12z" fill="#000"/><path d="M10.599 11.048v-2.34h2.059c.196 0 .383.02.56.057.187.028.35.084.49.168s.252.2.336.35c.084.15.126.34.126.574 0 .42-.126.724-.378.91-.252.187-.574.28-.966.28h-2.227zM8.4 7v10h4.846c.448 0 .882-.056 1.303-.168a3.425 3.425 0 001.134-.518c.336-.234.602-.533.798-.897.196-.373.294-.812.294-1.316 0-.626-.154-1.158-.462-1.597-.299-.448-.756-.76-1.372-.938.448-.215.784-.49 1.008-.827.234-.336.35-.756.35-1.26 0-.467-.08-.859-.238-1.176a1.82 1.82 0 00-.644-.757 2.737 2.737 0 00-1.009-.42A6.227 6.227 0 0013.106 7H8.4zm2.199 8.291v-2.745h2.395c.476 0 .859.112 1.148.336.29.215.434.58.434 1.093 0 .261-.046.476-.14.644-.084.168-.2.303-.35.406-.15.094-.322.164-.518.21a3.293 3.293 0 01-.616.056h-2.353z" fill="#000"/></mask><g mask="url(#a)"><path fill="#A29061" d="M0 0h24v24H0z"/></g></svg>