<svg width="24" height="24" fill="none" xmlns="http://www.w3.org/2000/svg"><path fill-rule="evenodd" clip-rule="evenodd" d="M4.644 4.028C4.644 2.692 5.862 1 8.434 1c.877 0 1.564.541 2.056 1.117.504.59.915 1.347 1.236 2.058.079.175.153.35.223.521.062-.166.13-.335.2-.505.304-.717.709-1.484 1.237-2.083.529-.6 1.254-1.108 2.18-1.108 1.427 0 2.392.46 3 1.128a3.096 3.096 0 01.79 1.9c0 .956-.542 1.823-1.048 2.439h3.942a.75.75 0 01.75.75v3.644a.75.75 0 01-.75.75h-.587V22.25a.75.75 0 01-.75.75H3.087a.75.75 0 01-.75-.75V11.611H1.75a.75.75 0 01-.75-.75V7.217a.75.75 0 01.75-.75h3.785c-.473-.602-.89-1.421-.89-2.44zM7.75 6.467A4.503 4.503 0 017 5.863c-.465-.469-.857-1.087-.857-1.835 0-.43.467-1.528 2.29-1.528.224 0 .532.142.915.591.37.435.713 1.045 1.01 1.7.268.597.484 1.198.639 1.676H7.75zm5.203 0h3.241a7.617 7.617 0 00.78-.748c.511-.57.87-1.174.881-1.667a1.599 1.599 0 00-.4-.915c-.273-.3-.806-.637-1.89-.637-.33 0-.679.175-1.054.6-.375.426-.705 1.026-.98 1.675a13.968 13.968 0 00-.578 1.692zM3.837 11.61v9.89H9.2v-9.889H3.837zm5.363-1.5H2.5V7.967h6.7v2.144zm1.5-2.144V21.5h2.6V7.967h-2.6zm4.1 0v2.144h6.7V7.967h-6.7zm5.363 3.644H14.8v9.89h5.363v-9.889z" fill="#A29061"/><mask id="a" style="mask-type:alpha" maskUnits="userSpaceOnUse" x="1" y="1" width="22" height="22"><path fill-rule="evenodd" clip-rule="evenodd" d="M4.644 4.028C4.644 2.692 5.862 1 8.434 1c.877 0 1.564.541 2.056 1.117.504.59.915 1.347 1.236 2.058.079.175.153.35.223.521.062-.166.13-.335.2-.505.304-.717.709-1.484 1.237-2.083.529-.6 1.254-1.108 2.18-1.108 1.427 0 2.392.46 3 1.128a3.096 3.096 0 01.79 1.9c0 .956-.542 1.823-1.048 2.439h3.942a.75.75 0 01.75.75v3.644a.75.75 0 01-.75.75h-.587V22.25a.75.75 0 01-.75.75H3.087a.75.75 0 01-.75-.75V11.611H1.75a.75.75 0 01-.75-.75V7.217a.75.75 0 01.75-.75h3.785c-.473-.602-.89-1.421-.89-2.44zM7.75 6.467A4.503 4.503 0 017 5.863c-.465-.469-.857-1.087-.857-1.835 0-.43.467-1.528 2.29-1.528.224 0 .532.142.915.591.37.435.713 1.045 1.01 1.7.268.597.484 1.198.639 1.676H7.75zm5.203 0h3.241a7.617 7.617 0 00.78-.748c.511-.57.87-1.174.881-1.667a1.599 1.599 0 00-.4-.915c-.273-.3-.806-.637-1.89-.637-.33 0-.679.175-1.054.6-.375.426-.705 1.026-.98 1.675a13.968 13.968 0 00-.578 1.692zM3.837 11.61v9.89H9.2v-9.889H3.837zm5.363-1.5H2.5V7.967h6.7v2.144zm1.5-2.144V21.5h2.6V7.967h-2.6zm4.1 0v2.144h6.7V7.967h-6.7zm5.363 3.644H14.8v9.89h5.363v-9.889z" fill="#000"/></mask><g mask="url(#a)"><path fill="#A29061" d="M0 0h24v24H0z"/></g></svg>