<svg width="24" height="24" fill="none" xmlns="http://www.w3.org/2000/svg"><path fill-rule="evenodd" clip-rule="evenodd" d="M3 4a1 1 0 011-1h6.586l10 10L13 20.586l-10-10V4zm1-3a3 3 0 00-3 3v7a1 1 0 00.293.707l11 11a1 1 0 001.414 0l9-9a1 1 0 000-1.414l-11-11A1 1 0 0011 1H4zm3.65 6.625c-.333.333-.742.5-1.225.5-.467 0-.867-.167-1.2-.5a1.637 1.637 0 01-.5-1.2c0-.483.167-.892.5-1.225.333-.333.733-.5 1.2-.5.483 0 .892.167 1.225.5.333.333.5.742.5 1.225 0 .467-.167.867-.5 1.2z" fill="#A29061"/><mask id="a" style="mask-type:alpha" maskUnits="userSpaceOnUse" x="1" y="1" width="22" height="22"><path fill-rule="evenodd" clip-rule="evenodd" d="M3 4a1 1 0 011-1h6.586l10 10L13 20.586l-10-10V4zm1-3a3 3 0 00-3 3v7a1 1 0 00.293.707l11 11a1 1 0 001.414 0l9-9a1 1 0 000-1.414l-11-11A1 1 0 0011 1H4zm3.65 6.625c-.333.333-.742.5-1.225.5-.467 0-.867-.167-1.2-.5a1.637 1.637 0 01-.5-1.2c0-.483.167-.892.5-1.225.333-.333.733-.5 1.2-.5.483 0 .892.167 1.225.5.333.333.5.742.5 1.225 0 .467-.167.867-.5 1.2z" fill="#000"/></mask><g mask="url(#a)"><path fill="#A29061" d="M-4-4h32v32H-4z"/></g></svg>