<svg width="24" height="24" fill="none" xmlns="http://www.w3.org/2000/svg"><path fill-rule="evenodd" clip-rule="evenodd" d="M8.707 2.293a1 1 0 010 1.414L6.414 6H14.5a7.5 7.5 0 010 15H14a1 1 0 110-2h.5a5.5 5.5 0 100-11H6.414l2.293 2.293a1 1 0 11-1.414 1.414l-4-4a1 1 0 010-1.414l4-4a1 1 0 011.414 0zM3 20a1 1 0 011-1h1a1 1 0 110 2H4a1 1 0 01-1-1zm5 0a1 1 0 011-1h1a1 1 0 110 2H9a1 1 0 01-1-1z" fill="#A29061"/><mask id="a" style="mask-type:alpha" maskUnits="userSpaceOnUse" x="3" y="2" width="19" height="19"><path fill-rule="evenodd" clip-rule="evenodd" d="M8.707 2.293a1 1 0 010 1.414L6.414 6H14.5a7.5 7.5 0 010 15H14a1 1 0 110-2h.5a5.5 5.5 0 100-11H6.414l2.293 2.293a1 1 0 11-1.414 1.414l-4-4a1 1 0 010-1.414l4-4a1 1 0 011.414 0zM3 20a1 1 0 011-1h1a1 1 0 110 2H4a1 1 0 01-1-1zm5 0a1 1 0 011-1h1a1 1 0 110 2H9a1 1 0 01-1-1z" fill="#000"/></mask><g mask="url(#a)"><path fill="#A29061" d="M0 0h24v24H0z"/></g></svg>