<svg width="24" height="24" fill="none" xmlns="http://www.w3.org/2000/svg"><path fill-rule="evenodd" clip-rule="evenodd" d="M10.5 4a6.5 6.5 0 100 13 6.5 6.5 0 000-13zM2 10.5a8.5 8.5 0 1115.188 5.246l5.52 5.549-1.417 1.41-5.514-5.541A8.5 8.5 0 012 10.5z" fill="#A29061"/><mask id="a" style="mask-type:alpha" maskUnits="userSpaceOnUse" x="2" y="2" width="21" height="21"><path fill-rule="evenodd" clip-rule="evenodd" d="M10.5 4a6.5 6.5 0 100 13 6.5 6.5 0 000-13zM2 10.5a8.5 8.5 0 1115.188 5.246l5.52 5.549-1.417 1.41-5.514-5.541A8.5 8.5 0 012 10.5z" fill="#000"/></mask><g mask="url(#a)"><path fill="#A29061" d="M0 0h24v24H0z"/></g></svg>