<svg width="24" height="24" fill="none" xmlns="http://www.w3.org/2000/svg"><g clip-path="url(#clip0_1140_5721)"><path fill-rule="evenodd" clip-rule="evenodd" d="M19.75 1.5a2.75 2.75 0 100 5.5 2.75 2.75 0 000-5.5zM15.5 4.25a4.25 4.25 0 11.913 2.632L8.359 10.91a4.256 4.256 0 010 2.182l8.054 4.027a4.25 4.25 0 11-.708 1.323l-7.982-3.99a4.25 4.25 0 110-4.9l7.982-3.992a4.247 4.247 0 01-.205-1.31zm-11.25 5a2.75 2.75 0 100 5.5 2.75 2.75 0 000-5.5zM19.75 17a2.75 2.75 0 100 5.5 2.75 2.75 0 000-5.5z" fill="#A29061"/><mask id="a" style="mask-type:alpha" maskUnits="userSpaceOnUse" x="0" y="0" width="24" height="24"><path fill-rule="evenodd" clip-rule="evenodd" d="M19.75 1.5a2.75 2.75 0 100 5.5 2.75 2.75 0 000-5.5zM15.5 4.25a4.25 4.25 0 11.913 2.632L8.359 10.91a4.256 4.256 0 010 2.182l8.054 4.027a4.25 4.25 0 11-.708 1.323l-7.982-3.99a4.25 4.25 0 110-4.9l7.982-3.992a4.247 4.247 0 01-.205-1.31zm-11.25 5a2.75 2.75 0 100 5.5 2.75 2.75 0 000-5.5zM19.75 17a2.75 2.75 0 100 5.5 2.75 2.75 0 000-5.5z" fill="#FF6900"/></mask><g mask="url(#a)"><path fill="#A29061" d="M0 0h24v24H0z"/></g></g><defs><clipPath id="clip0_1140_5721"><path fill="#fff" d="M0 0h24v24H0z"/></clipPath></defs></svg>