<svg width="24" height="24" fill="none" xmlns="http://www.w3.org/2000/svg"><path d="M19 11H9v1.5h10V11zM9 14h10v1.5H9V14zm10 3H9v1.5h10V17z" fill="#A29061"/><path fill-rule="evenodd" clip-rule="evenodd" d="M3.5 2h17c1 0 1.5.778 1.5 1.5v17c0 1-.5 1.5-1.5 1.5h-17c-1 0-1.5-.5-1.5-1.5v-17C2 2.5 2.5 2 3.5 2zm17 5V3.5h-17V7h17zm-17 13.5h17v-12h-17v12z" fill="#A29061"/><mask id="a" style="mask-type:alpha" maskUnits="userSpaceOnUse" x="2" y="2" width="20" height="20"><path d="M19 11H9v1.5h10V11zM9 14h10v1.5H9V14zm10 3H9v1.5h10V17z" fill="#000"/><path fill-rule="evenodd" clip-rule="evenodd" d="M3.5 2h17c1 0 1.5.778 1.5 1.5v17c0 1-.5 1.5-1.5 1.5h-17c-1 0-1.5-.5-1.5-1.5v-17C2 2.5 2.5 2 3.5 2zm17 5V3.5h-17V7h17zm-17 13.5h17v-12h-17v12z" fill="#000"/></mask><g mask="url(#a)"><path fill="#A29061" d="M-4.5-4.5h32v32h-32z"/></g></svg>