<svg width="24" height="24" fill="none" xmlns="http://www.w3.org/2000/svg"><g clip-path="url(#clip0_1140_5730)"><path d="M9 4h2v4c0 .529.472 1 1 1s1-.471 1-1V4h2c.42 0 .55-.646.246-.95L12.339.141a.474.474 0 00-.678 0L8.754 3.05C8.45 3.354 8.58 4 9 4zM4 15v-2h4c.529 0 1-.472 1-1s-.471-1-1-1H4V9c0-.42-.646-.55-.95-.246L.141 11.661a.474.474 0 000 .678l2.907 2.907C3.354 15.55 4 15.42 4 15zm11 5h-2v-4c0-.528-.472-1-1-1s-1 .472-1 1v4H9c-.42 0-.55.646-.246.95l2.907 2.908c.19.19.488.19.678 0l2.907-2.907C15.55 20.646 15.42 20 15 20zm5-11v2h-4c-.528 0-1 .472-1 1s.472 1 1 1h4v2c0 .42.646.55.95.246l2.908-2.907a.475.475 0 000-.678L20.95 8.754C20.646 8.45 20 8.58 20 9z" fill="#A29061"/><mask id="a" style="mask-type:alpha" maskUnits="userSpaceOnUse" x="0" y="0" width="24" height="24"><path d="M9 4h2v4c0 .529.472 1 1 1s1-.471 1-1V4h2c.42 0 .55-.646.246-.95L12.339.141a.474.474 0 00-.678 0L8.754 3.05C8.45 3.354 8.58 4 9 4zM4 15v-2h4c.529 0 1-.472 1-1s-.471-1-1-1H4V9c0-.42-.646-.55-.95-.246L.141 11.661a.474.474 0 000 .678l2.907 2.907C3.354 15.55 4 15.42 4 15zm11 5h-2v-4c0-.528-.472-1-1-1s-1 .472-1 1v4H9c-.42 0-.55.646-.246.95l2.907 2.908c.19.19.488.19.678 0l2.907-2.907C15.55 20.646 15.42 20 15 20zm5-11v2h-4c-.528 0-1 .472-1 1s.472 1 1 1h4v2c0 .42.646.55.95.246l2.908-2.907a.475.475 0 000-.678L20.95 8.754C20.646 8.45 20 8.58 20 9z" fill="#212121"/></mask><g mask="url(#a)"><path fill="#A29061" d="M0 0h24v24H0z"/></g></g><defs><clipPath id="clip0_1140_5730"><path fill="#fff" d="M0 0h24v24H0z"/></clipPath></defs></svg>