<svg width="24" height="24" fill="none" xmlns="http://www.w3.org/2000/svg"><path fill-rule="evenodd" clip-rule="evenodd" d="M20.945.713a.75.75 0 01.75.75V6.71a.75.75 0 01-.75.75h-5.248a.75.75 0 110-1.5h4.498V1.463a.75.75 0 01.75-.75z" fill="#00417E"/><path fill-rule="evenodd" clip-rule="evenodd" d="M12 2.546a9.453 9.453 0 00-9.17 11.759.75.75 0 01-1.455.364A10.974 10.974 0 011.047 12C1.047 5.95 5.95 1.047 12 1.047c3.833 0 7.206 1.97 9.162 4.949a.75.75 0 11-1.254.823A9.444 9.444 0 0012 2.546zm9.724 6.262a.75.75 0 01.908.548c.21.847.322 1.733.322 2.644 0 6.05-4.904 10.953-10.954 10.953-3.81 0-7.165-1.946-9.126-4.895a.75.75 0 011.249-.83 9.453 9.453 0 0017.054-7.51.75.75 0 01.547-.91z" fill="#00417E"/><path fill-rule="evenodd" clip-rule="evenodd" d="M2.286 17.289a.75.75 0 01.75-.75h5.249a.75.75 0 010 1.5H3.786v4.498a.75.75 0 01-1.5 0v-5.248z" fill="#00417E"/><mask id="a" style="mask-type:alpha" maskUnits="userSpaceOnUse" x="1" y="0" width="22" height="24"><path fill-rule="evenodd" clip-rule="evenodd" d="M20.945.713a.75.75 0 01.75.75V6.71a.75.75 0 01-.75.75h-5.248a.75.75 0 110-1.5h4.498V1.463a.75.75 0 01.75-.75z" fill="#FF6900"/><path fill-rule="evenodd" clip-rule="evenodd" d="M12 2.546a9.453 9.453 0 00-9.17 11.759.75.75 0 01-1.455.364A10.974 10.974 0 011.047 12C1.047 5.95 5.95 1.047 12 1.047c3.833 0 7.206 1.97 9.162 4.949a.75.75 0 11-1.254.823A9.444 9.444 0 0012 2.546zm9.724 6.262a.75.75 0 01.908.548c.21.847.322 1.733.322 2.644 0 6.05-4.904 10.953-10.954 10.953-3.81 0-7.165-1.946-9.126-4.895a.75.75 0 011.249-.83 9.453 9.453 0 0017.054-7.51.75.75 0 01.547-.91z" fill="#FF6900"/><path fill-rule="evenodd" clip-rule="evenodd" d="M2.286 17.289a.75.75 0 01.75-.75h5.249a.75.75 0 010 1.5H3.786v4.498a.75.75 0 01-1.5 0v-5.248z" fill="#FF6900"/></mask><g mask="url(#a)"><path fill="#00417E" d="M-4-4h32v32H-4z"/></g></svg>