<svg width="24" height="24" fill="none" xmlns="http://www.w3.org/2000/svg"><path d="M5 12a1 1 0 011-1h2a1 1 0 011 1v2a1 1 0 01-1 1H6a1 1 0 01-1-1v-2z" fill="#00417E"/><path d="M5 3a1 1 0 011-1h2a1 1 0 011 1v1h6V3a1 1 0 011-1h2a1 1 0 011 1v1h1a2 2 0 012 2v14a2 2 0 01-2 2H4a2 2 0 01-2-2V6a2 2 0 012-2h1V3zM3.5 9v11a.5.5 0 00.5.5h16a.5.5 0 00.5-.5V9h-17z" fill="#00417E"/><mask id="a" style="mask-type:alpha" maskUnits="userSpaceOnUse" x="2" y="2" width="20" height="20"><path d="M5 12a1 1 0 011-1h2a1 1 0 011 1v2a1 1 0 01-1 1H6a1 1 0 01-1-1v-2z" fill="#000"/><path fill-rule="evenodd" clip-rule="evenodd" d="M5 3a1 1 0 011-1h2a1 1 0 011 1v1h6V3a1 1 0 011-1h2a1 1 0 011 1v1h1a2 2 0 012 2v14a2 2 0 01-2 2H4a2 2 0 01-2-2V6a2 2 0 012-2h1V3zM3.5 9v11a.5.5 0 00.5.5h16a.5.5 0 00.5-.5V9h-17z" fill="#000"/></mask><g mask="url(#a)"><path fill="#00417E" d="M0 0h24v24H0z"/></g></svg>