<svg width="24" height="24" fill="none" xmlns="http://www.w3.org/2000/svg"><path fill-rule="evenodd" clip-rule="evenodd" d="M2 7v12a2 2 0 002 2h16a2 2 0 002-2V7a2 2 0 00-2-2h-3.459a.1.1 0 01-.07-.03l-1.825-1.824A.5.5 0 0014.293 3H9.707a.5.5 0 00-.353.146L7.529 4.971A.1.1 0 017.46 5H4a2 2 0 00-2 2zm10 2.5a3.5 3.5 0 110 7 3.5 3.5 0 010-7zM12 8a5 5 0 110 10 5 5 0 010-10z" fill="#00417E"/><mask id="a" style="mask-type:alpha" maskUnits="userSpaceOnUse" x="2" y="3" width="20" height="18"><path fill-rule="evenodd" clip-rule="evenodd" d="M2 7v12a2 2 0 002 2h16a2 2 0 002-2V7a2 2 0 00-2-2h-3.459a.1.1 0 01-.07-.03l-1.825-1.824A.5.5 0 0014.293 3H9.707a.5.5 0 00-.353.146L7.529 4.971A.1.1 0 017.46 5H4a2 2 0 00-2 2zm10 2.5a3.5 3.5 0 110 7 3.5 3.5 0 010-7zM12 8a5 5 0 110 10 5 5 0 010-10z" fill="#000"/></mask><g mask="url(#a)"><path fill="#00417E" d="M0 0h24v24H0z"/></g></svg>