<svg width="24" height="24" fill="none" xmlns="http://www.w3.org/2000/svg"><path d="M12 24c6.627 0 12-5.373 12-12S18.627 0 12 0 0 5.373 0 12s5.373 12 12 12zm10.5-12c0 5.799-4.701 10.5-10.5 10.5a10.46 10.46 0 01-6.875-2.564L19.936 5.125A10.46 10.46 0 0122.5 12zM4.064 18.875A10.46 10.46 0 011.5 12C1.5 6.201 6.201 1.5 12 1.5c2.63 0 5.033.967 6.875 2.564L4.064 18.875z" fill="#00417E"/><mask id="a" style="mask-type:alpha" maskUnits="userSpaceOnUse" x="0" y="0" width="24" height="24"><path d="M12 24c6.627 0 12-5.373 12-12S18.627 0 12 0 0 5.373 0 12s5.373 12 12 12zm10.5-12c0 5.799-4.701 10.5-10.5 10.5a10.46 10.46 0 01-6.875-2.564L19.936 5.125A10.46 10.46 0 0122.5 12zM4.064 18.875A10.46 10.46 0 011.5 12C1.5 6.201 6.201 1.5 12 1.5c2.63 0 5.033.967 6.875 2.564L4.064 18.875z" fill="#000"/></mask><g mask="url(#a)"><path fill="#00417E" d="M0 0h24v24H0z"/></g></svg>