<svg width="24" height="24" fill="none" xmlns="http://www.w3.org/2000/svg"><path d="M3.5 10.5l2.34-4H14V5H6c-.8 0-1.343.42-1.6 1.01l-3.009 5.301A3 3 0 001 12.792V20c0 .55.328 1 1 1h2.5c.672 0 1-.45 1-1v-1h13v1c0 .55.328 1 1 1H22c.672 0 1-.45 1-1v-7.21a3 3 0 00-.39-1.478L19.6 6c-.33-.58-.8-1-1.6-1h-4v1.5h4.16l2.34 4h-17zm18 6.5a.5.5 0 01-.5.5H3a.5.5 0 01-.5-.5v-4.5A.5.5 0 013 12h18a.5.5 0 01.5.5V17z" fill="#00417E"/><path d="M6.5 16a1.5 1.5 0 100-3 1.5 1.5 0 000 3zm11 0a1.5 1.5 0 100-3 1.5 1.5 0 000 3z" fill="#00417E"/><mask id="a" style="mask-type:alpha" maskUnits="userSpaceOnUse" x="1" y="5" width="22" height="16"><path d="M3.5 10.5l2.34-4H14V5H6c-.8 0-1.343.42-1.6 1.01l-3.009 5.301A3 3 0 001 12.792V20c0 .55.328 1 1 1h2.5c.672 0 1-.45 1-1v-1h13v1c0 .55.328 1 1 1H22c.672 0 1-.45 1-1v-7.21a3 3 0 00-.39-1.478L19.6 6c-.33-.58-.8-1-1.6-1h-4v1.5h4.16l2.34 4h-17zm18 6.5a.5.5 0 01-.5.5H3a.5.5 0 01-.5-.5v-4.5A.5.5 0 013 12h18a.5.5 0 01.5.5V17z" fill="#000"/><path d="M6.5 16a1.5 1.5 0 100-3 1.5 1.5 0 000 3zm11 0a1.5 1.5 0 100-3 1.5 1.5 0 000 3z" fill="#000"/></mask><g mask="url(#a)"><path fill="#00417E" d="M-3.5-3.5h32v32h-32z"/></g></svg>