<svg width="24" height="24" fill="none" xmlns="http://www.w3.org/2000/svg"><path d="M1 5.75A2.75 2.75 0 013.75 3h16.5A2.75 2.75 0 0123 5.75v12.5A2.75 2.75 0 0120.25 21H3.75A2.75 2.75 0 011 18.25V5.75zM21.5 12V9h-19v3h19zm-19 1.5v4.75c0 .69.56 1.25 1.25 1.25h16.5c.69 0 1.25-.56 1.25-1.25V13.5h-19zm0-6h19V5.75c0-.69-.56-1.25-1.25-1.25H3.75c-.69 0-1.25.56-1.25 1.25V7.5z" fill="#00417E"/><mask id="a" style="mask-type:alpha" maskUnits="userSpaceOnUse" x="1" y="3" width="22" height="18"><path fill-rule="evenodd" clip-rule="evenodd" d="M1 5.75A2.75 2.75 0 013.75 3h16.5A2.75 2.75 0 0123 5.75v12.5A2.75 2.75 0 0120.25 21H3.75A2.75 2.75 0 011 18.25V5.75zM21.5 12V9h-19v3h19zm-19 1.5h19v4.75c0 .69-.56 1.25-1.25 1.25H3.75c-.69 0-1.25-.56-1.25-1.25V13.5zm0-6h19V5.75c0-.69-.56-1.25-1.25-1.25H3.75c-.69 0-1.25.56-1.25 1.25V7.5z" fill="#000"/></mask><g mask="url(#a)"><path fill="#00417E" d="M0 0h24v24H0z"/></g></svg>