<svg width="24" height="24" fill="none" xmlns="http://www.w3.org/2000/svg"><path fill-rule="evenodd" clip-rule="evenodd" d="M18.864 9.276c0 1.306-.424 2.518-1.272 3.638-.848 1.12-1.992 2.001-3.432 2.646-1.44.644-3.016.966-4.728.966-.768 0-1.552-.076-2.352-.229a11.518 11.518 0 01-3.72 1.832c-.336.085-.72.161-1.152.229H2.16a.438.438 0 01-.288-.127.394.394 0 01-.144-.306c-.016-.017-.024-.042-.024-.076 0-.034.008-.068.024-.102a.204.204 0 00.024-.076l.024-.076.048-.077.048-.076.072-.076.048-.051c.048-.051.152-.17.312-.356.16-.187.28-.323.36-.407.08-.085.176-.23.288-.433.112-.203.224-.381.336-.534.112-.153.2-.365.264-.636-1.104-.678-1.968-1.51-2.592-2.493A5.991 5.991 0 010 9.276c0-1.323.424-2.544 1.272-3.664.848-1.119 1.992-2 3.432-2.645S7.72 2 9.432 2c1.712 0 3.288.322 4.728.967 1.44.644 2.584 1.526 3.432 2.645.848 1.12 1.272 2.34 1.272 3.664zM24 12.888c0 1.137-.32 2.205-.96 3.206-.64 1-1.504 1.831-2.592 2.493.08.237.168.45.264.636s.208.364.336.534c.128.17.232.305.312.407l.336.433c.144.186.248.305.312.356l.048.05.072.077a.298.298 0 01.048.076c.016.034.032.06.048.077l.024.076.024.076.024.102-.024.076a.707.707 0 01-.168.331.312.312 0 01-.288.102 11.013 11.013 0 01-1.152-.23 11.48 11.48 0 01-3.744-1.83c-.8.152-1.584.228-2.352.228-2.416 0-4.52-.627-6.312-1.883.512.051.904.077 1.176.077 1.44 0 2.816-.212 4.128-.636a11.942 11.942 0 003.552-1.832c1.104-.882 1.96-1.89 2.568-3.027a7.295 7.295 0 00.888-3.587c0-.73-.104-1.45-.312-2.163 1.152.662 2.064 1.501 2.736 2.519C23.664 10.65 24 11.735 24 12.888z" fill="#00417E"/><mask id="a" style="mask-type:alpha" maskUnits="userSpaceOnUse" x="0" y="2" width="24" height="20"><path fill-rule="evenodd" clip-rule="evenodd" d="M18.864 9.276c0 1.306-.424 2.518-1.272 3.638-.848 1.12-1.992 2.001-3.432 2.646-1.44.644-3.016.966-4.728.966-.768 0-1.552-.076-2.352-.229a11.518 11.518 0 01-3.72 1.832c-.336.085-.72.161-1.152.229H2.16a.438.438 0 01-.288-.127.394.394 0 01-.144-.306c-.016-.017-.024-.042-.024-.076 0-.034.008-.068.024-.102a.204.204 0 00.024-.076l.024-.076.048-.077.048-.076.072-.076.048-.051c.048-.051.152-.17.312-.356.16-.187.28-.323.36-.407.08-.085.176-.23.288-.433.112-.203.224-.381.336-.534.112-.153.2-.365.264-.636-1.104-.678-1.968-1.51-2.592-2.493A5.991 5.991 0 010 9.276c0-1.323.424-2.544 1.272-3.664.848-1.119 1.992-2 3.432-2.645S7.72 2 9.432 2c1.712 0 3.288.322 4.728.967 1.44.644 2.584 1.526 3.432 2.645.848 1.12 1.272 2.34 1.272 3.664zM24 12.888c0 1.137-.32 2.205-.96 3.206-.64 1-1.504 1.831-2.592 2.493.08.237.168.45.264.636s.208.364.336.534c.128.17.232.305.312.407l.336.433c.144.186.248.305.312.356l.048.05.072.077a.298.298 0 01.048.076c.016.034.032.06.048.077l.024.076.024.076.024.102-.024.076a.707.707 0 01-.168.331.312.312 0 01-.288.102 11.013 11.013 0 01-1.152-.23 11.48 11.48 0 01-3.744-1.83c-.8.152-1.584.228-2.352.228-2.416 0-4.52-.627-6.312-1.883.512.051.904.077 1.176.077 1.44 0 2.816-.212 4.128-.636a11.942 11.942 0 003.552-1.832c1.104-.882 1.96-1.89 2.568-3.027a7.295 7.295 0 00.888-3.587c0-.73-.104-1.45-.312-2.163 1.152.662 2.064 1.501 2.736 2.519C23.664 10.65 24 11.735 24 12.888z" fill="#000"/></mask><g mask="url(#a)"><path fill="#00417E" d="M0 0h24v24H0z"/></g></svg>