<svg width="24" height="24" fill="none" xmlns="http://www.w3.org/2000/svg"><g clip-path="url(#clip0_1140_4861)"><path fill-rule="evenodd" clip-rule="evenodd" d="M3.027 19.13a3.42 3.42 0 00.222-.058c1.351-.393 2.514-1.183 3.597-2.166.773.18 1.531.27 2.274.27 1.655 0 3.18-.38 4.572-1.142a8.803 8.803 0 003.318-3.129 8.018 8.018 0 001.23-4.302 8.07 8.07 0 00-1.23-4.331 8.803 8.803 0 00-3.318-3.129C12.299.381 10.775 0 9.12 0 7.465 0 5.94.381 4.548 1.143A8.803 8.803 0 001.23 4.272 8.07 8.07 0 000 8.603a8.259 8.259 0 00.928 3.76 8.606 8.606 0 002.507 2.949l-.006.033a4.531 4.531 0 01-.406 1.32c-.373.736-1.008 1.464-1.262 1.724-.385.394-.05.863.824.806.135-.008.282-.03.442-.066zm4.16-3.685a1.5 1.5 0 00-1.35.35c-.411.374-.82.702-1.23.98.237-.654.306-1.207.3-1.18a1.5 1.5 0 00-.571-1.482 7.107 7.107 0 01-2.076-2.44 6.758 6.758 0 01-.76-3.078 6.57 6.57 0 011.005-3.533A7.304 7.304 0 015.27 2.459C6.43 1.823 7.705 1.5 9.12 1.5s2.69.323 3.852.959a7.304 7.304 0 012.763 2.603 6.571 6.571 0 011.005 3.541 6.52 6.52 0 01-1.005 3.512 7.304 7.304 0 01-2.763 2.603c-1.162.636-2.437.959-3.852.959-.62 0-1.264-.075-1.933-.232z" fill="#00417E"/><path fill-rule="evenodd" clip-rule="evenodd" d="M21.19 23.997a3.834 3.834 0 01-.255.002 2.33 2.33 0 01-.338-.03c-.242-.04-.533-.13-.935-.32a9.869 9.869 0 01-1.389-.827 16.86 16.86 0 01-1.513-1.201c-.285.065-.568.12-.848.162-.526.08-1.046.12-1.558.12-1.184 0-2.345-.448-3.435-1.085a15.03 15.03 0 01-1.206-.79 22.77 22.77 0 01-.522-.388 32.425 32.425 0 01-1.014-.815l-.007-.005c-.156-.13-.024-.352.178-.336l.098.007h.007c.264.02.61.032 1.14.036a50.691 50.691 0 00.611-.002 7.944 7.944 0 001.58-.182c.579-.129 1.107-.323 1.686-.57.635-.27 1.169-.523 1.708-.87a9.763 9.763 0 001.294-1.008 11.998 11.998 0 001.618-1.91c.39-.571.725-1.176 1.009-1.812.621-1.398.726-2.81.563-4.433a23.3 23.3 0 00-.118-.962 12.445 12.445 0 00-.167-.883c-.014-.064-.03-.126-.045-.187-.081-.328.197-.557.463-.35a5.895 5.895 0 01.305.254 18.522 18.522 0 01.92.891c.26.27.518.55.758.828.505.583.938 1.158 1.191 1.62a8.3 8.3 0 01.796 2.028c.157.64.235 1.299.235 1.976 0 .665-.074 1.311-.222 1.939a8.331 8.331 0 01-.76 2.003 8.95 8.95 0 01-2.65 3.066l.023.097c.058.255.2.88.527 1.453.21.366.382.641.548.862.199.265.386.45.613.622.315.236.334.448.212.614-.172.238-.628.384-.913.384h-.05l-.138.002zm-1.707-5.245a1.5 1.5 0 00-.56 1.616c-.012-.043.118.645.439 1.38a15.361 15.361 0 01-1.604-1.247 1.5 1.5 0 00-1.334-.342 9.71 9.71 0 01-.737.14 8.863 8.863 0 01-1.333.103c-.672 0-1.4-.213-2.183-.608.68-.157 1.284-.384 1.888-.64.665-.284 1.287-.575 1.93-.99a11.258 11.258 0 001.522-1.187 13.496 13.496 0 001.82-2.148c.44-.646.819-1.329 1.138-2.047.554-1.245.76-2.48.761-3.746.186.248.33.465.425.637.298.543.514 1.097.653 1.664.127.52.192 1.058.192 1.618 0 .553-.061 1.083-.182 1.594a6.835 6.835 0 01-.624 1.644 7.445 7.445 0 01-2.212 2.56z" fill="#00417E"/><mask id="a" style="mask-type:alpha" maskUnits="userSpaceOnUse" x="0" y="0" width="24" height="24"><path fill-rule="evenodd" clip-rule="evenodd" d="M3.027 19.13a3.42 3.42 0 00.222-.058c1.351-.393 2.514-1.183 3.597-2.166.773.18 1.531.27 2.274.27 1.655 0 3.18-.38 4.572-1.142a8.803 8.803 0 003.318-3.129 8.018 8.018 0 001.23-4.302 8.07 8.07 0 00-1.23-4.331 8.803 8.803 0 00-3.318-3.129C12.299.381 10.775 0 9.12 0 7.465 0 5.94.381 4.548 1.143A8.803 8.803 0 001.23 4.272 8.07 8.07 0 000 8.603a8.259 8.259 0 00.928 3.76 8.606 8.606 0 002.507 2.949l-.006.033a4.531 4.531 0 01-.406 1.32c-.373.736-1.008 1.464-1.262 1.724-.385.394-.05.863.824.806.135-.008.282-.03.442-.066zm4.16-3.685a1.5 1.5 0 00-1.35.35c-.411.374-.82.702-1.23.98.237-.654.306-1.207.3-1.18a1.5 1.5 0 00-.571-1.482 7.107 7.107 0 01-2.076-2.44 6.758 6.758 0 01-.76-3.078 6.57 6.57 0 011.005-3.533A7.304 7.304 0 015.27 2.459C6.43 1.823 7.705 1.5 9.12 1.5s2.69.323 3.852.959a7.304 7.304 0 012.763 2.603 6.571 6.571 0 011.005 3.541 6.52 6.52 0 01-1.005 3.512 7.304 7.304 0 01-2.763 2.603c-1.162.636-2.437.959-3.852.959-.62 0-1.264-.075-1.933-.232z" fill="#000"/><path fill-rule="evenodd" clip-rule="evenodd" d="M21.19 23.997a3.834 3.834 0 01-.255.002 2.33 2.33 0 01-.338-.03c-.242-.04-.533-.13-.935-.32a9.869 9.869 0 01-1.389-.827 16.86 16.86 0 01-1.513-1.201c-.285.065-.568.12-.848.162-.526.08-1.046.12-1.558.12-1.184 0-2.345-.448-3.435-1.085a15.03 15.03 0 01-1.206-.79 22.77 22.77 0 01-.522-.388 32.425 32.425 0 01-1.014-.815l-.007-.005c-.156-.13-.024-.352.178-.336l.098.007h.007c.264.02.61.032 1.14.036a50.691 50.691 0 00.611-.002 7.944 7.944 0 001.58-.182c.579-.129 1.107-.323 1.686-.57.635-.27 1.169-.523 1.708-.87a9.763 9.763 0 001.294-1.008 11.998 11.998 0 001.618-1.91c.39-.571.725-1.176 1.009-1.812.621-1.398.726-2.81.563-4.433a23.3 23.3 0 00-.118-.962 12.445 12.445 0 00-.167-.883c-.014-.064-.03-.126-.045-.187-.081-.328.197-.557.463-.35a5.895 5.895 0 01.305.254 18.522 18.522 0 01.92.891c.26.27.518.55.758.828.505.583.938 1.158 1.191 1.62a8.3 8.3 0 01.796 2.028c.157.64.235 1.299.235 1.976 0 .665-.074 1.311-.222 1.939a8.331 8.331 0 01-.76 2.003 8.95 8.95 0 01-2.65 3.066l.023.097c.058.255.2.88.527 1.453.21.366.382.641.548.862.199.265.386.45.613.622.315.236.334.448.212.614-.172.238-.628.384-.913.384h-.05l-.138.002zm-1.707-5.245a1.5 1.5 0 00-.56 1.616c-.012-.043.118.645.439 1.38a15.361 15.361 0 01-1.604-1.247 1.5 1.5 0 00-1.334-.342 9.71 9.71 0 01-.737.14 8.863 8.863 0 01-1.333.103c-.672 0-1.4-.213-2.183-.608.68-.157 1.284-.384 1.888-.64.665-.284 1.287-.575 1.93-.99a11.258 11.258 0 001.522-1.187 13.496 13.496 0 001.82-2.148c.44-.646.819-1.329 1.138-2.047.554-1.245.76-2.48.761-3.746.186.248.33.465.425.637.298.543.514 1.097.653 1.664.127.52.192 1.058.192 1.618 0 .553-.061 1.083-.182 1.594a6.835 6.835 0 01-.624 1.644 7.445 7.445 0 01-2.212 2.56z" fill="#000"/></mask><g mask="url(#a)"><path fill="#00417E" d="M0 0h24v24H0z"/></g></g><defs><clipPath id="clip0_1140_4861"><path fill="#fff" d="M0 0h24v24H0z"/></clipPath></defs></svg>