<svg width="24" height="24" fill="none" xmlns="http://www.w3.org/2000/svg"><path fill-rule="evenodd" clip-rule="evenodd" d="M21.207 4.793a1 1 0 010 1.414l-12 12a1 1 0 01-1.414 0l-5-5a1 1 0 111.414-1.414L8.5 16.086 19.793 4.793a1 1 0 011.414 0z" fill="#00417E"/><mask id="a" style="mask-type:alpha" maskUnits="userSpaceOnUse" x="2" y="4" width="20" height="15"><path fill-rule="evenodd" clip-rule="evenodd" d="M21.207 4.793a1 1 0 010 1.414l-12 12a1 1 0 01-1.414 0l-5-5a1 1 0 111.414-1.414L8.5 16.086 19.793 4.793a1 1 0 011.414 0z" fill="#31B700"/></mask><g mask="url(#a)"><path fill="#00417E" d="M-6-6h32v32H-6z"/></g></svg>