<svg width="24" height="24" fill="none" xmlns="http://www.w3.org/2000/svg"><path fill-rule="evenodd" clip-rule="evenodd" d="M8.293 2.293a1 1 0 000 1.414L16.586 12l-8.293 8.293a1 1 0 101.414 1.414l9-9a1 1 0 000-1.414l-9-9a1 1 0 00-1.414 0z" fill="#00417E"/><mask id="a" style="mask-type:alpha" maskUnits="userSpaceOnUse" x="8" y="2" width="11" height="20"><path fill-rule="evenodd" clip-rule="evenodd" d="M8.293 2.293a1 1 0 000 1.414L16.586 12l-8.293 8.293a1 1 0 101.414 1.414l9-9a1 1 0 000-1.414l-9-9a1 1 0 00-1.414 0z" fill="#000"/></mask><g mask="url(#a)"><path fill="#00417E" d="M2 0h24v24H2z"/></g></svg>