<svg width="24" height="24" fill="none" xmlns="http://www.w3.org/2000/svg"><g clip-path="url(#clip0_1140_4862)"><path d="M7.75 7a.75.75 0 000 1.5h8.5a.75.75 0 000-1.5h-8.5zm0 3.25a.75.75 0 000 1.5h8.5a.75.75 0 000-1.5h-8.5zm0 3.25a.75.75 0 000 1.5h5.5a.75.75 0 000-1.5h-5.5z" fill="#00417E"/><path fill-rule="evenodd" clip-rule="evenodd" d="M3.422 23.993h.01c.25-.019.531-.067.843-.153 1.778-.492 3.308-1.48 4.733-2.707 1.017.225 2.015.338 2.992.338 2.178 0 4.183-.476 6.015-1.429 1.832-.953 3.288-2.256 4.367-3.91C23.46 14.476 24 12.684 24 10.753c0-1.955-.54-3.76-1.618-5.414-1.08-1.655-2.535-2.959-4.367-3.911C16.183.476 14.178 0 12 0 9.822 0 7.817.476 5.985 1.429c-1.832.952-3.288 2.256-4.367 3.91C.54 6.995 0 8.8 0 10.755a9.912 9.912 0 001.221 4.7c.794 1.455 1.893 2.683 3.298 3.686l-.007.042c-.032.194-.155.94-.534 1.65-.492.92-1.327 1.83-1.661 2.154-.491.477-.09 1.044.983 1.013l.122-.006zm5.91-4.325a1.5 1.5 0 00-1.304.329c-.97.835-1.943 1.509-2.976 1.972.088-.141.171-.285.249-.43.548-1.026.693-2.124.688-2.1a1.5 1.5 0 00-.598-1.52c-1.229-.877-2.172-1.936-2.853-3.183a8.412 8.412 0 01-1.038-3.99c.002-1.658.455-3.176 1.375-4.587.931-1.428 2.188-2.56 3.802-3.4C8.283 1.925 10.049 1.5 12 1.5c1.95 0 3.717.424 5.323 1.26 1.614.839 2.87 1.97 3.802 3.399.922 1.413 1.375 2.934 1.375 4.595 0 1.633-.45 3.141-1.375 4.558-.931 1.428-2.188 2.56-3.802 3.4-1.606.835-3.372 1.259-5.323 1.259-.86 0-1.75-.1-2.668-.303z" fill="#00417E"/><mask id="a" style="mask-type:alpha" maskUnits="userSpaceOnUse" x="0" y="0" width="24" height="24"><path d="M7.75 7a.75.75 0 000 1.5h8.5a.75.75 0 000-1.5h-8.5zm0 3.25a.75.75 0 000 1.5h8.5a.75.75 0 000-1.5h-8.5zm0 3.25a.75.75 0 000 1.5h5.5a.75.75 0 000-1.5h-5.5z" fill="#000"/><path fill-rule="evenodd" clip-rule="evenodd" d="M3.422 23.993h.01c.25-.019.531-.067.843-.153 1.778-.492 3.308-1.48 4.733-2.707 1.017.225 2.015.338 2.992.338 2.178 0 4.183-.476 6.015-1.429 1.832-.953 3.288-2.256 4.367-3.91C23.46 14.476 24 12.684 24 10.753c0-1.955-.54-3.76-1.618-5.414-1.08-1.655-2.535-2.959-4.367-3.911C16.183.476 14.178 0 12 0 9.822 0 7.817.476 5.985 1.429c-1.832.952-3.288 2.256-4.367 3.91C.54 6.995 0 8.8 0 10.755a9.912 9.912 0 001.221 4.7c.794 1.455 1.893 2.683 3.298 3.686l-.007.042c-.032.194-.155.94-.534 1.65-.492.92-1.327 1.83-1.661 2.154-.491.477-.09 1.044.983 1.013l.122-.006zm5.91-4.325a1.5 1.5 0 00-1.304.329c-.97.835-1.943 1.509-2.976 1.972.088-.141.171-.285.249-.43.548-1.026.693-2.124.688-2.1a1.5 1.5 0 00-.598-1.52c-1.229-.877-2.172-1.936-2.853-3.183a8.412 8.412 0 01-1.038-3.99c.002-1.658.455-3.176 1.375-4.587.931-1.428 2.188-2.56 3.802-3.4C8.283 1.925 10.049 1.5 12 1.5c1.95 0 3.717.424 5.323 1.26 1.614.839 2.87 1.97 3.802 3.399.922 1.413 1.375 2.934 1.375 4.595 0 1.633-.45 3.141-1.375 4.558-.931 1.428-2.188 2.56-3.802 3.4-1.606.835-3.372 1.259-5.323 1.259-.86 0-1.75-.1-2.668-.303z" fill="#000"/></mask><g mask="url(#a)"><path fill="#00417E" d="M0 0h24v24H0z"/></g></g><defs><clipPath id="clip0_1140_4862"><path fill="#fff" d="M0 0h24v24H0z"/></clipPath></defs></svg>