<svg width="24" height="24" fill="none" xmlns="http://www.w3.org/2000/svg"><path fill-rule="evenodd" clip-rule="evenodd" d="M8 22c-1.1 0-2-.9-2-2V8c0-.5.5-1 1-1h10c.5 0 1 .5 1 1v12c0 1.1-.9 2-2 2H8zm1-3.75v-7.5a.75.75 0 011.5 0v7.5a.75.75 0 01-1.5 0zm6 0v-7.5a.75.75 0 00-1.5 0v7.5a.75.75 0 001.5 0z" fill="#00417E"/><path d="M15.5 3H18c.55 0 1 .45 1 1v1c0 .5-.5 1-1 1H6c-.5 0-1-.5-1-1V4c0-.55.45-1 1-1h2.5l.71-.71c.18-.18.44-.29.7-.29h4.18c.26 0 .52.11.7.29l.71.71z" fill="#00417E"/><mask id="a" style="mask-type:alpha" maskUnits="userSpaceOnUse" x="5" y="2" width="14" height="20"><path fill-rule="evenodd" clip-rule="evenodd" d="M8 22c-1.1 0-2-.9-2-2V8c0-.5.5-1 1-1h10c.5 0 1 .5 1 1v12c0 1.1-.9 2-2 2H8zm1-3.75v-7.5a.75.75 0 011.5 0v7.5a.75.75 0 01-1.5 0zm6 0v-7.5a.75.75 0 00-1.5 0v7.5a.75.75 0 001.5 0z" fill="#F8381E"/><path d="M15.5 3H18c.55 0 1 .45 1 1v1c0 .5-.5 1-1 1H6c-.5 0-1-.5-1-1V4c0-.55.45-1 1-1h2.5l.71-.71c.18-.18.44-.29.7-.29h4.18c.26 0 .52.11.7.29l.71.71z" fill="#F8381E"/></mask><g mask="url(#a)"><path fill="#00417E" d="M0 0h24v24H0z"/></g></svg>