<svg width="24" height="24" fill="none" xmlns="http://www.w3.org/2000/svg"><path d="M4 1.75A.75.75 0 014.75 1H14a.75.75 0 01.53.22l5.25 5.25c.141.14.22.331.22.53v15.25a.75.75 0 01-.75.75H4.75a.75.75 0 01-.75-.75V1.75zm1.5.75v19h13V7.75H14a.75.75 0 01-.75-.75V2.5H5.5zm9.25 1.06v2.69h2.69l-2.69-2.69zM7.25 11a.75.75 0 01.75-.75h8a.75.75 0 010 1.5H8a.75.75 0 01-.75-.75zm0 4a.75.75 0 01.75-.75h8a.75.75 0 010 1.5H8a.75.75 0 01-.75-.75zm0 4a.75.75 0 01.75-.75h5a.75.75 0 010 1.5H8a.75.75 0 01-.75-.75z" fill="#00417E"/><mask id="a" style="mask-type:alpha" maskUnits="userSpaceOnUse" x="4" y="1" width="16" height="22"><path d="M4 1.75A.75.75 0 014.75 1H14a.75.75 0 01.53.22l5.25 5.25c.141.14.22.331.22.53v15.25a.75.75 0 01-.75.75H4.75a.75.75 0 01-.75-.75V1.75zm1.5.75v19h13V7.75H14a.75.75 0 01-.75-.75V2.5H5.5zm9.25 1.06v2.69h2.69l-2.69-2.69zM7.25 11a.75.75 0 01.75-.75h8a.75.75 0 010 1.5H8a.75.75 0 01-.75-.75zm0 4a.75.75 0 01.75-.75h8a.75.75 0 010 1.5H8a.75.75 0 01-.75-.75zm0 4a.75.75 0 01.75-.75h5a.75.75 0 010 1.5H8a.75.75 0 01-.75-.75z" fill="#000"/></mask><g mask="url(#a)"><path fill="#00417E" d="M-4.5-4.5h32v32h-32z"/></g></svg>