<svg width="24" height="24" fill="none" xmlns="http://www.w3.org/2000/svg"><path fill-rule="evenodd" clip-rule="evenodd" d="M8 12a3 3 0 100-6 3 3 0 000 6zm0-1.5a1.5 1.5 0 100-3 1.5 1.5 0 000 3zM19 15a3 3 0 11-6 0 3 3 0 016 0zm-1.5 0a1.5 1.5 0 11-3 0 1.5 1.5 0 013 0z" fill="#00417E"/><path d="M8 18l1.5.5L16 6l-1.5-.5L8 18z" fill="#00417E"/><path fill-rule="evenodd" clip-rule="evenodd" d="M23 12c0 6.075-4.925 11-11 11S1 18.075 1 12 5.925 1 12 1s11 4.925 11 11zm-1.5 0a9.5 9.5 0 11-19 0 9.5 9.5 0 0119 0z" fill="#00417E"/><mask id="a" style="mask-type:alpha" maskUnits="userSpaceOnUse" x="1" y="1" width="22" height="22"><path fill-rule="evenodd" clip-rule="evenodd" d="M8 12a3 3 0 100-6 3 3 0 000 6zm0-1.5a1.5 1.5 0 100-3 1.5 1.5 0 000 3zM19 15a3 3 0 11-6 0 3 3 0 016 0zm-1.5 0a1.5 1.5 0 11-3 0 1.5 1.5 0 013 0z" fill="#000"/><path d="M8 18l1.5.5L16 6l-1.5-.5L8 18z" fill="#000"/><path fill-rule="evenodd" clip-rule="evenodd" d="M23 12c0 6.075-4.925 11-11 11S1 18.075 1 12 5.925 1 12 1s11 4.925 11 11zm-1.5 0a9.5 9.5 0 11-19 0 9.5 9.5 0 0119 0z" fill="#000"/></mask><g mask="url(#a)"><path fill="#00417E" d="M0 0h24v24H0z"/></g></svg>