<svg width="24" height="24" fill="none" xmlns="http://www.w3.org/2000/svg"><path d="M12.46 10.778c-2.676-.656-3.537-1.334-3.537-2.39 0-1.21 1.19-2.055 3.183-2.055C14.204 6.333 15 7.5 15 9h2.5c0-2.5-1.5-4.688-4-4.688V2h-3v2.3c-2.338.013-4.288 1.967-4.288 4.111 0 2.567 2.252 3.845 5.54 4.589 2.947.667 3.537 1.644 3.537 2.678 0 .766-.578 1.989-3.183 1.989C9.678 17.667 8.5 16.5 8.5 15H6c0 3 2 4.7 4.5 4.7V22h3v-2.3c2.5-.111 4.5-1.756 4.5-4.033 0-3.156-2.864-4.234-5.54-4.89z" fill="#00417E"/><mask id="a" style="mask-type:alpha" maskUnits="userSpaceOnUse" x="6" y="2" width="12" height="20"><path d="M12.46 10.778c-2.676-.656-3.537-1.334-3.537-2.39 0-1.21 1.19-2.055 3.183-2.055C14.204 6.333 15 7.5 15 9h2.5c0-2.5-1.5-4.688-4-4.688V2h-3v2.3c-2.338.013-4.288 1.967-4.288 4.111 0 2.567 2.252 3.845 5.54 4.589 2.947.667 3.537 1.644 3.537 2.678 0 .766-.578 1.989-3.183 1.989C9.678 17.667 8.5 16.5 8.5 15H6c0 3 2 4.7 4.5 4.7V22h3v-2.3c2.5-.111 4.5-1.756 4.5-4.033 0-3.156-2.864-4.234-5.54-4.89z" fill="#000"/></mask><g mask="url(#a)"><path fill="#00417E" d="M-4.5-4.5h32v32h-32z"/></g></svg>