<svg width="24" height="24" fill="none" xmlns="http://www.w3.org/2000/svg"><path fill-rule="evenodd" clip-rule="evenodd" d="M1 8.75A.75.75 0 011.75 8h20.5a.75.75 0 010 1.5H1.75A.75.75 0 011 8.75zM1 12a.75.75 0 01.75-.75h20.5a.75.75 0 010 1.5H1.75A.75.75 0 011 12zm0 3.25a.75.75 0 01.75-.75h20.5a.75.75 0 010 1.5H1.75a.75.75 0 01-.75-.75z" fill="#00417E"/><mask id="a" style="mask-type:alpha" maskUnits="userSpaceOnUse" x="1" y="8" width="22" height="8"><path fill-rule="evenodd" clip-rule="evenodd" d="M1 8.75A.75.75 0 011.75 8h20.5a.75.75 0 010 1.5H1.75A.75.75 0 011 8.75zM1 12a.75.75 0 01.75-.75h20.5a.75.75 0 010 1.5H1.75A.75.75 0 011 12zm0 3.25a.75.75 0 01.75-.75h20.5a.75.75 0 010 1.5H1.75a.75.75 0 01-.75-.75z" fill="#000"/></mask><g mask="url(#a)"><path fill="#00417E" d="M0 0h24v24H0z"/></g></svg>