<svg width="24" height="24" fill="none" xmlns="http://www.w3.org/2000/svg"><path d="M2.081 2.41A.75.75 0 012.75 2h18.5a.75.75 0 01.605 1.193L14.5 13.245v9.005a.75.75 0 01-1.278.533l-3.5-3.469a.75.75 0 01-.222-.533v-5.536L2.145 3.193a.75.75 0 01-.064-.782zM4.228 3.5l6.627 9.057A.75.75 0 0111 13v5.469l2 1.982V13c0-.16.05-.314.145-.443L19.772 3.5H4.228z" fill="#00417E"/><mask id="a" style="mask-type:alpha" maskUnits="userSpaceOnUse" x="2" y="2" width="20" height="21"><path d="M2.081 2.41A.75.75 0 012.75 2h18.5a.75.75 0 01.605 1.193L14.5 13.245v9.005a.75.75 0 01-1.278.533l-3.5-3.469a.75.75 0 01-.222-.533v-5.536L2.145 3.193a.75.75 0 01-.064-.782zM4.228 3.5l6.627 9.057A.75.75 0 0111 13v5.469l2 1.982V13c0-.16.05-.314.145-.443L19.772 3.5H4.228z" fill="#000"/></mask><g mask="url(#a)"><path fill="#00417E" d="M0 1h24v24H0z"/></g></svg>