<svg width="24" height="24" fill="none" xmlns="http://www.w3.org/2000/svg"><path d="M12 8.613c-.875 0-1.75-.903-1.75-1.807C10.25 5.903 11.125 5 12 5s1.75.903 1.75 1.806c0 .904-.875 1.807-1.75 1.807zm1.313 1.355V19h-2.626V9.968h2.626z" fill="#00417E"/><path d="M12 21.5a9.5 9.5 0 110-19 9.5 9.5 0 010 19zm0 1.5c6.075 0 11-4.925 11-11S18.075 1 12 1 1 5.925 1 12s4.925 11 11 11z" fill="#00417E"/><mask id="a" style="mask-type:alpha" maskUnits="userSpaceOnUse" x="1" y="1" width="22" height="22"><path d="M12 8.613c-.875 0-1.75-.903-1.75-1.807C10.25 5.903 11.125 5 12 5s1.75.903 1.75 1.806c0 .904-.875 1.807-1.75 1.807zm1.313 1.355V19h-2.626V9.968h2.626z" fill="#000"/><path d="M12 21.5a9.5 9.5 0 110-19 9.5 9.5 0 010 19zm0 1.5c6.075 0 11-4.925 11-11S18.075 1 12 1 1 5.925 1 12s4.925 11 11 11z" fill="#000"/></mask><g mask="url(#a)"><path fill="#00417E" d="M-3.5-3.5h32v32h-32z"/></g></svg>