<svg width="24" height="24" fill="none" xmlns="http://www.w3.org/2000/svg"><path d="M3.613 7.533c.386.104.909.23 1.56.356.694.135 1.535.27 2.513.379a15.931 15.931 0 012.569-5.608 9.513 9.513 0 00-6.642 4.873zM12 2.86a13.467 13.467 0 00-1.349 1.95 14.43 14.43 0 00-1.454 3.595c.857.06 1.792.096 2.803.096 1.01 0 1.946-.036 2.803-.096A14.432 14.432 0 0013.35 4.81 13.467 13.467 0 0012 2.859zm3.099 7.028c-.943.07-1.977.113-3.099.113s-2.156-.043-3.099-.113a14.699 14.699 0 000 4.226C9.844 14.043 10.878 14 12 14s2.156.043 3.099.113a14.71 14.71 0 000-4.226zm1.495 4.367a33.17 33.17 0 012.519.385 23.89 23.89 0 011.878.438c.33-.964.509-2 .509-3.077 0-1.078-.18-2.113-.51-3.077-.434.122-1.064.28-1.877.438-.705.137-1.548.273-2.52.385a16.215 16.215 0 010 4.508zm-1.79 1.342A40.34 40.34 0 0012 15.5c-1.01 0-1.946.036-2.803.096a14.43 14.43 0 001.454 3.594A13.469 13.469 0 0012 21.141l.047-.057a13.5 13.5 0 001.302-1.894 14.432 14.432 0 001.454-3.594zm-4.549 5.744a15.932 15.932 0 01-2.57-5.608c-.977.11-1.818.245-2.512.38-.651.126-1.174.252-1.56.355a9.513 9.513 0 006.642 4.873zm-7.246-6.263a23.89 23.89 0 011.878-.438 32.928 32.928 0 012.52-.385 16.211 16.211 0 010-4.508 32.915 32.915 0 01-2.52-.385 23.858 23.858 0 01-1.878-.438A9.487 9.487 0 002.5 12c0 1.078.18 2.113.51 3.077zm10.736 6.263a9.513 9.513 0 006.642-4.873 23.194 23.194 0 00-1.56-.356 31.536 31.536 0 00-2.513-.379 15.936 15.936 0 01-2.569 5.608zm6.642-13.807a9.513 9.513 0 00-6.642-4.873 15.935 15.935 0 012.57 5.608 31.563 31.563 0 002.512-.38 23.207 23.207 0 001.56-.355zm-18.518.174C3.541 3.767 7.447 1 12 1s8.459 2.766 10.13 6.707c.56 1.32.87 2.771.87 4.293a11 11 0 01-11 11 11 11 0 01-10.13-6.707C1.31 14.973 1 13.522 1 12c0-1.522.31-2.973.87-4.293z" fill="#00417E"/><mask id="a" style="mask-type:alpha" maskUnits="userSpaceOnUse" x="1" y="1" width="22" height="22"><path d="M3.613 7.533c.386.104.909.23 1.56.356.694.135 1.535.27 2.513.379a15.931 15.931 0 012.569-5.608 9.513 9.513 0 00-6.642 4.873zM12 2.86a13.467 13.467 0 00-1.349 1.95 14.43 14.43 0 00-1.454 3.595c.857.06 1.792.096 2.803.096 1.01 0 1.946-.036 2.803-.096A14.432 14.432 0 0013.35 4.81 13.467 13.467 0 0012 2.859zm3.099 7.028c-.943.07-1.977.113-3.099.113s-2.156-.043-3.099-.113a14.699 14.699 0 000 4.226C9.844 14.043 10.878 14 12 14s2.156.043 3.099.113a14.71 14.71 0 000-4.226zm1.495 4.367a33.17 33.17 0 012.519.385 23.89 23.89 0 011.878.438c.33-.964.509-2 .509-3.077 0-1.078-.18-2.113-.51-3.077-.434.122-1.064.28-1.877.438-.705.137-1.548.273-2.52.385a16.215 16.215 0 010 4.508zm-1.79 1.342A40.34 40.34 0 0012 15.5c-1.01 0-1.946.036-2.803.096a14.43 14.43 0 001.454 3.594A13.469 13.469 0 0012 21.141l.047-.057a13.5 13.5 0 001.302-1.894 14.432 14.432 0 001.454-3.594zm-4.549 5.744a15.932 15.932 0 01-2.57-5.608c-.977.11-1.818.245-2.512.38-.651.126-1.174.252-1.56.355a9.513 9.513 0 006.642 4.873zm-7.246-6.263a23.89 23.89 0 011.878-.438 32.928 32.928 0 012.52-.385 16.211 16.211 0 010-4.508 32.915 32.915 0 01-2.52-.385 23.858 23.858 0 01-1.878-.438A9.487 9.487 0 002.5 12c0 1.078.18 2.113.51 3.077zm10.736 6.263a9.513 9.513 0 006.642-4.873 23.194 23.194 0 00-1.56-.356 31.536 31.536 0 00-2.513-.379 15.936 15.936 0 01-2.569 5.608zm6.642-13.807a9.513 9.513 0 00-6.642-4.873 15.935 15.935 0 012.57 5.608 31.563 31.563 0 002.512-.38 23.207 23.207 0 001.56-.355zm-18.518.174C3.541 3.767 7.447 1 12 1s8.459 2.766 10.13 6.707c.56 1.32.87 2.771.87 4.293a11 11 0 01-11 11 11 11 0 01-10.13-6.707C1.31 14.973 1 13.522 1 12c0-1.522.31-2.973.87-4.293z" fill="#000"/></mask><g mask="url(#a)"><path fill="#00417E" d="M-5-5h32v32H-5z"/></g></svg>