<svg width="24" height="24" fill="none" xmlns="http://www.w3.org/2000/svg"><path fill-rule="evenodd" clip-rule="evenodd" d="M23.003 22a1 1 0 00-1-1H2a1 1 0 100 2h20.003a1 1 0 001-1zm-3.296-10.707a1 1 0 00-1.414 0L13 16.587V2a1 1 0 10-2 0v14.587l-5.293-5.294a1 1 0 10-1.414 1.414l7 7.001a1 1 0 001.414 0l7-7.001a1 1 0 000-1.414z" fill="#00417E"/><mask id="a" style="mask-type:alpha" maskUnits="userSpaceOnUse" x="1" y="1" width="23" height="22"><path fill-rule="evenodd" clip-rule="evenodd" d="M23.003 22a1 1 0 00-1-1H2a1 1 0 100 2h20.003a1 1 0 001-1zm-3.296-10.707a1 1 0 00-1.414 0L13 16.587V2a1 1 0 10-2 0v14.587l-5.293-5.294a1 1 0 10-1.414 1.414l7 7.001a1 1 0 001.414 0l7-7.001a1 1 0 000-1.414z" fill="#000"/></mask><g mask="url(#a)"><path fill="#00417E" d="M0 0h24v24H0z"/></g></svg>