<svg width="24" height="24" fill="none" xmlns="http://www.w3.org/2000/svg"><path fill-rule="evenodd" clip-rule="evenodd" d="M21.707 2.293a1 1 0 01.196 1.137l-9.524 20a1 1 0 01-1.862-.148L8.29 15.71.718 13.483a1 1 0 01-.148-1.862l20-9.524a1 1 0 011.137.196zM3.791 12.303l5.586 1.642a1 1 0 01.678.678l1.643 5.586 7.188-15.094L3.79 12.302z" fill="#00417E"/><mask id="a" style="mask-type:alpha" maskUnits="userSpaceOnUse" x="0" y="2" width="22" height="22"><path fill-rule="evenodd" clip-rule="evenodd" d="M21.707 2.293a1 1 0 01.196 1.137l-9.524 20a1 1 0 01-1.862-.148L8.29 15.71.718 13.483a1 1 0 01-.148-1.862l20-9.524a1 1 0 011.137.196zM3.791 12.303l5.586 1.642a1 1 0 01.678.678l1.643 5.586 7.188-15.094L3.79 12.302z" fill="#000"/></mask><g mask="url(#a)"><path fill="#00417E" d="M-1 1h24v24H-1z"/></g></svg>