<svg width="24" height="24" fill="none" xmlns="http://www.w3.org/2000/svg"><path d="M20.649 17.686L19 16v-6c0-3.464-1.827-5.773-5.22-6.54v-.768C13.78 1.756 12.985 1 12 1s-1.78.756-1.78 1.692v.767C6.817 4.227 5 6.525 5 10v6l-1.648 1.686c-.748.71-.226 1.93.83 1.93h15.624c1.068 0 1.59-1.22.843-1.93zM17.5 18h-11v-8c0-2.798 2.546-5.15 5.5-5.15s5.5 2.352 5.5 5.15v8zM12 23c1.305 0 2.5-.759 2.5-2h-5c0 1.241 1.183 2 2.5 2z" fill="#00417E"/><mask id="a" style="mask-type:alpha" maskUnits="userSpaceOnUse" x="3" y="1" width="18" height="22"><path d="M20.649 17.686L19 16v-6c0-3.464-1.827-5.773-5.22-6.54v-.768C13.78 1.756 12.985 1 12 1s-1.78.756-1.78 1.692v.767C6.817 4.227 5 6.525 5 10v6l-1.648 1.686c-.748.71-.226 1.93.83 1.93h15.624c1.068 0 1.59-1.22.843-1.93zM17.5 18h-11v-8c0-2.798 2.546-5.15 5.5-5.15s5.5 2.352 5.5 5.15v8zM12 23c1.305 0 2.5-.759 2.5-2h-5c0 1.241 1.183 2 2.5 2z" fill="#000"/></mask><g mask="url(#a)"><path fill="#00417E" d="M-3.5-3.5h32v32h-32z"/></g></svg>