<svg width="24" height="24" fill="none" xmlns="http://www.w3.org/2000/svg"><path d="M18 9.5H6a.5.5 0 00-.5.5v9A2.5 2.5 0 008 21.5h8a2.5 2.5 0 002.5-2.5v-9a.5.5 0 00-.5-.5zM6 8h12a2 2 0 012 2v9a4 4 0 01-4 4H8a4 4 0 01-4-4v-9a2 2 0 012-2zm9.5 0V5.75a3.25 3.25 0 00-3.25-3.25h-.5A3.25 3.25 0 008.5 5.75V8H7V5.75A4.75 4.75 0 0111.75 1h.5A4.75 4.75 0 0117 5.75V8h-1.5z" fill="#00417E"/><path d="M11.164 16.174A1.695 1.695 0 0112 13c.937 0 1.7.763 1.7 1.698 0 .63-.35 1.175-.863 1.47v.997A.836.836 0 0112 18a.835.835 0 01-.836-.835v-.991z" fill="#00417E"/><mask id="a" style="mask-type:alpha" maskUnits="userSpaceOnUse" x="4" y="1" width="16" height="22"><path d="M18 9.5H6a.5.5 0 00-.5.5v9A2.5 2.5 0 008 21.5h8a2.5 2.5 0 002.5-2.5v-9a.5.5 0 00-.5-.5zM6 8h12a2 2 0 012 2v9a4 4 0 01-4 4H8a4 4 0 01-4-4v-9a2 2 0 012-2zm9.5 0V5.75a3.25 3.25 0 00-3.25-3.25h-.5A3.25 3.25 0 008.5 5.75V8H7V5.75A4.75 4.75 0 0111.75 1h.5A4.75 4.75 0 0117 5.75V8h-1.5z" fill="#000"/><path d="M11.164 16.174A1.695 1.695 0 0112 13c.937 0 1.7.763 1.7 1.698 0 .63-.35 1.175-.863 1.47v.997A.836.836 0 0112 18a.835.835 0 01-.836-.835v-.991z" fill="#000"/></mask><g mask="url(#a)"><path fill="#00417E" d="M4 1h24v24H4z"/></g></svg>