<svg width="24" height="24" fill="none" xmlns="http://www.w3.org/2000/svg"><path d="M17.467 21c-.749 0-1.653-.188-2.648-.563-2.181-.822-4.554-2.447-6.681-4.575-2.128-2.128-3.753-4.501-4.576-6.682-.748-1.983-.75-3.61-.004-4.355.107-.107.216-.222.329-.34.68-.716 1.448-1.52 2.466-1.484.702.03 1.382.465 2.078 1.332 2.057 2.558 1.13 3.47.056 4.527l-.19.188c-.175.175-.507.988 2.58 4.075 1.007 1.007 1.866 1.745 2.553 2.19.432.282 1.205.707 1.523.39l.19-.193c1.056-1.071 1.968-1.995 4.525.06.866.696 1.301 1.375 1.33 2.078.042 1.018-.768 1.788-1.484 2.468-.118.112-.233.221-.34.328-.37.37-.962.556-1.707.556z" fill="#00417E"/><mask id="a" style="mask-type:alpha" maskUnits="userSpaceOnUse" x="3" y="3" width="18" height="18"><path fill-rule="evenodd" clip-rule="evenodd" d="M17.467 21c-.749 0-1.653-.188-2.648-.563-2.181-.822-4.554-2.447-6.681-4.575-2.128-2.128-3.753-4.501-4.576-6.682-.748-1.983-.75-3.61-.004-4.355.107-.107.216-.222.329-.34.68-.716 1.448-1.52 2.466-1.484.702.03 1.382.465 2.078 1.332 2.057 2.558 1.13 3.47.056 4.527l-.19.188c-.175.175-.507.988 2.58 4.075 1.007 1.007 1.866 1.745 2.553 2.19.432.282 1.205.707 1.523.39l.19-.193c1.056-1.071 1.968-1.995 4.525.06.866.696 1.301 1.375 1.33 2.078.042 1.018-.768 1.788-1.484 2.468-.118.112-.233.221-.34.328-.37.37-.962.556-1.707.556z" fill="#000"/></mask><g mask="url(#a)"><path fill="#00417E" d="M0 0h24v24H0z"/></g></svg>