<svg width="24" height="24" fill="none" xmlns="http://www.w3.org/2000/svg"><path fill-rule="evenodd" clip-rule="evenodd" d="M12 22.5c5.799 0 10.5-4.701 10.5-10.5S17.799 1.5 12 1.5 1.5 6.201 1.5 12 6.201 22.5 12 22.5zM24 12c0 6.627-5.373 12-12 12S0 18.627 0 12 5.373 0 12 0s12 5.373 12 12z" fill="#00417E"/><path d="M11.192 11.085v1.376c.243 0 .495.009.756.027.27.01.518.06.742.152.224.082.406.22.546.412.15.193.224.473.224.84 0 .467-.154.838-.462 1.114-.308.265-.686.398-1.134.398-.29 0-.541-.05-.756-.15a1.587 1.587 0 01-.518-.4 1.891 1.891 0 01-.322-.605 2.822 2.822 0 01-.126-.743h-1.89c-.01.56.07 1.055.238 1.486.177.43.425.797.742 1.1.317.294.7.518 1.148.674.457.156.961.234 1.512.234a4.56 4.56 0 001.372-.206c.439-.138.826-.34 1.162-.606a2.88 2.88 0 00.798-.99 2.88 2.88 0 00.308-1.348c0-.55-.154-1.022-.462-1.417-.308-.394-.733-.65-1.274-.77v-.027c.457-.129.798-.372 1.022-.73.233-.357.35-.77.35-1.238 0-.43-.098-.811-.294-1.141a2.772 2.772 0 00-.77-.84 3.18 3.18 0 00-1.05-.508A4.024 4.024 0 0011.878 7c-.504 0-.961.083-1.372.248-.41.155-.765.38-1.064.674-.29.293-.518.646-.686 1.059a4.082 4.082 0 00-.266 1.348h1.89c-.01-.495.112-.904.364-1.224.261-.33.644-.496 1.148-.496.364 0 .686.11.966.33.28.22.42.537.42.95 0 .275-.07.495-.21.66a1.29 1.29 0 01-.518.385c-.205.083-.43.133-.672.151a4.289 4.289 0 01-.686 0z" fill="#00417E"/><mask id="a" style="mask-type:alpha" maskUnits="userSpaceOnUse" x="0" y="0" width="24" height="24"><path fill-rule="evenodd" clip-rule="evenodd" d="M12 22.5c5.799 0 10.5-4.701 10.5-10.5S17.799 1.5 12 1.5 1.5 6.201 1.5 12 6.201 22.5 12 22.5zM24 12c0 6.627-5.373 12-12 12S0 18.627 0 12 5.373 0 12 0s12 5.373 12 12z" fill="#000"/><path d="M11.192 11.085v1.376c.243 0 .495.009.756.027.27.01.518.06.742.152.224.082.406.22.546.412.15.193.224.473.224.84 0 .467-.154.838-.462 1.114-.308.265-.686.398-1.134.398-.29 0-.541-.05-.756-.15a1.587 1.587 0 01-.518-.4 1.891 1.891 0 01-.322-.605 2.822 2.822 0 01-.126-.743h-1.89c-.01.56.07 1.055.238 1.486.177.43.425.797.742 1.1.317.294.7.518 1.148.674.457.156.961.234 1.512.234a4.56 4.56 0 001.372-.206c.439-.138.826-.34 1.162-.606a2.88 2.88 0 00.798-.99 2.88 2.88 0 00.308-1.348c0-.55-.154-1.022-.462-1.417-.308-.394-.733-.65-1.274-.77v-.027c.457-.129.798-.372 1.022-.73.233-.357.35-.77.35-1.238 0-.43-.098-.811-.294-1.141a2.772 2.772 0 00-.77-.84 3.18 3.18 0 00-1.05-.508A4.024 4.024 0 0011.878 7c-.504 0-.961.083-1.372.248-.41.155-.765.38-1.064.674-.29.293-.518.646-.686 1.059a4.082 4.082 0 00-.266 1.348h1.89c-.01-.495.112-.904.364-1.224.261-.33.644-.496 1.148-.496.364 0 .686.11.966.33.28.22.42.537.42.95 0 .275-.07.495-.21.66a1.29 1.29 0 01-.518.385c-.205.083-.43.133-.672.151a4.289 4.289 0 01-.686 0z" fill="#000"/></mask><g mask="url(#a)"><path fill="#00417E" d="M0 0h24v24H0z"/></g></svg>