<svg width="24" height="24" fill="none" xmlns="http://www.w3.org/2000/svg"><path fill-rule="evenodd" clip-rule="evenodd" d="M12 22.5c5.799 0 10.5-4.701 10.5-10.5S17.799 1.5 12 1.5 1.5 6.201 1.5 12 6.201 22.5 12 22.5zM24 12c0 6.627-5.373 12-12 12S0 18.627 0 12 5.373 0 12 0s12 5.373 12 12z" fill="#00417E"/><path d="M8.518 10.962h1.904c0-.261.023-.523.07-.784.056-.27.145-.513.266-.728.121-.224.28-.401.476-.532.205-.14.453-.21.742-.21.43 0 .78.135 1.05.406.28.261.42.63.42 1.106 0 .299-.07.565-.21.798a2.5 2.5 0 01-.504.63c-.196.187-.415.36-.658.518-.243.15-.471.299-.686.448-.42.29-.821.574-1.204.854-.373.28-.7.588-.98.924-.28.327-.504.7-.672 1.12-.159.42-.238.915-.238 1.484h7.196v-1.708h-4.634c.243-.336.523-.63.84-.882.317-.252.644-.485.98-.7a95.2 95.2 0 00.994-.672 5.41 5.41 0 00.896-.742 3.45 3.45 0 00.63-.952c.159-.355.238-.78.238-1.274 0-.476-.093-.905-.28-1.288a2.782 2.782 0 00-.728-.966 3.286 3.286 0 00-1.078-.602A3.84 3.84 0 0012.074 7c-.588 0-1.11.103-1.568.308a2.958 2.958 0 00-1.12.84 3.552 3.552 0 00-.672 1.26c-.15.476-.215.994-.196 1.554z" fill="#00417E"/><mask id="a" style="mask-type:alpha" maskUnits="userSpaceOnUse" x="0" y="0" width="24" height="24"><path fill-rule="evenodd" clip-rule="evenodd" d="M12 22.5c5.799 0 10.5-4.701 10.5-10.5S17.799 1.5 12 1.5 1.5 6.201 1.5 12 6.201 22.5 12 22.5zM24 12c0 6.627-5.373 12-12 12S0 18.627 0 12 5.373 0 12 0s12 5.373 12 12z" fill="#000"/><path d="M8.518 10.962h1.904c0-.261.023-.523.07-.784.056-.27.145-.513.266-.728.121-.224.28-.401.476-.532.205-.14.453-.21.742-.21.43 0 .78.135 1.05.406.28.261.42.63.42 1.106 0 .299-.07.565-.21.798a2.5 2.5 0 01-.504.63c-.196.187-.415.36-.658.518-.243.15-.471.299-.686.448-.42.29-.821.574-1.204.854-.373.28-.7.588-.98.924-.28.327-.504.7-.672 1.12-.159.42-.238.915-.238 1.484h7.196v-1.708h-4.634c.243-.336.523-.63.84-.882.317-.252.644-.485.98-.7a95.2 95.2 0 00.994-.672 5.41 5.41 0 00.896-.742 3.45 3.45 0 00.63-.952c.159-.355.238-.78.238-1.274 0-.476-.093-.905-.28-1.288a2.782 2.782 0 00-.728-.966 3.286 3.286 0 00-1.078-.602A3.84 3.84 0 0012.074 7c-.588 0-1.11.103-1.568.308a2.958 2.958 0 00-1.12.84 3.552 3.552 0 00-.672 1.26c-.15.476-.215.994-.196 1.554z" fill="#000"/></mask><g mask="url(#a)"><path fill="#00417E" d="M0 0h24v24H0z"/></g></svg>