<svg width="24" height="24" fill="none" xmlns="http://www.w3.org/2000/svg"><path fill-rule="evenodd" clip-rule="evenodd" d="M6.703 11.997a5.301 5.301 0 005.3 5.3 5.301 5.301 0 005.298-5.3A5.301 5.301 0 0012.002 6.7a5.301 5.301 0 00-5.299 5.298zm5.3 3.807a3.809 3.809 0 01-3.807-3.807c0-2.1 1.706-3.806 3.806-3.806s3.806 1.706 3.806 3.806-1.706 3.807-3.806 3.807z" fill="#00417E"/><path fill-rule="evenodd" clip-rule="evenodd" d="M17.7 2.569l-1.329.955a9.511 9.511 0 00-1.512-.62L14.6 1.359A1.62 1.62 0 0012.999 0h-2.082a1.62 1.62 0 00-1.6 1.357l-.27 1.577a9.34 9.34 0 00-1.461.615L6.31 2.64a1.618 1.618 0 00-2.096.17L2.74 4.285a1.627 1.627 0 00-.182 2.08l.94 1.32c-.241.471-.44.961-.596 1.462l-1.544.259A1.62 1.62 0 000 11.006v2.082a1.62 1.62 0 001.357 1.6l1.577.27c.163.505.37.994.615 1.461l-.936 1.313-.021.033a1.626 1.626 0 00.219 2.025l1.473 1.474a1.625 1.625 0 001.991.239l.05-.03 1.362-.968c.45.227.92.42 1.403.576l.26 1.559A1.62 1.62 0 0010.952 24h2.081a1.62 1.62 0 001.601-1.358l.264-1.56c.502-.16.991-.362 1.462-.607l1.285.915a1.618 1.618 0 002.095-.17l1.474-1.475a1.627 1.627 0 00.182-2.079l-.926-1.305a9.48 9.48 0 00.607-1.461l1.558-.26A1.625 1.625 0 0024 13.038v-2.081a1.62 1.62 0 00-1.358-1.601l-1.56-.264a9.4 9.4 0 00-.607-1.462l.942-1.323.02-.033a1.626 1.626 0 00-.218-2.024l-1.474-1.474a1.625 1.625 0 00-1.991-.24l-.053.033zm4.698 8.26l-2.076-.352a.656.656 0 01-.534-.49 7.915 7.915 0 00-.86-2.071.668.668 0 01.029-.727l1.221-1.716a.134.134 0 00-.015-.168L18.69 3.83a.133.133 0 00-.094-.04c-.025 0-.05.01-.074.026l-1.706 1.226a.669.669 0 01-.727.03 8.025 8.025 0 00-2.121-.87.669.669 0 01-.495-.54L13.127 1.6A.128.128 0 0013 1.493h-2.082a.128.128 0 00-.129.108l-.356 2.092a.677.677 0 01-.49.534 7.841 7.841 0 00-2.066.87.677.677 0 01-.732-.03L5.438 3.852a.121.121 0 00-.074-.025.126.126 0 00-.094.04L3.797 5.34a.135.135 0 00-.015.168l1.231 1.73a.66.66 0 01.035.722 7.908 7.908 0 00-.846 2.077.669.669 0 01-.539.494l-2.062.347a.128.128 0 00-.108.128v2.082c0 .064.044.119.108.128l2.092.356a.677.677 0 01.534.49 7.84 7.84 0 00.87 2.067.677.677 0 01-.03.732l-1.216 1.706a.134.134 0 00.015.168l1.473 1.473c.035.035.075.04.094.04.025 0 .05-.01.075-.025l1.73-1.231a.65.65 0 01.386-.124c.114 0 .232.03.336.09.638.365 1.32.647 2.027.83a.664.664 0 01.49.534l.346 2.077c.01.064.064.108.129.108h2.081a.128.128 0 00.129-.108l.35-2.077a.656.656 0 01.49-.534 7.917 7.917 0 002.072-.86.668.668 0 01.727.03l1.716 1.22a.12.12 0 00.074.025c.025 0 .06-.005.094-.04l1.474-1.473a.135.135 0 00.014-.168l-1.221-1.72a.669.669 0 01-.03-.728 7.914 7.914 0 00.86-2.071.664.664 0 01.535-.49l2.076-.346a.132.132 0 00.114-.129v-2.081a.128.128 0 00-.109-.129z" fill="#00417E"/><mask id="a" style="mask-type:alpha" maskUnits="userSpaceOnUse" x="0" y="0" width="24" height="24"><path fill-rule="evenodd" clip-rule="evenodd" d="M6.703 11.997a5.301 5.301 0 005.3 5.3 5.301 5.301 0 005.298-5.3A5.301 5.301 0 0012.002 6.7a5.301 5.301 0 00-5.299 5.298zm5.3 3.807a3.809 3.809 0 01-3.807-3.807c0-2.1 1.706-3.806 3.806-3.806s3.806 1.706 3.806 3.806-1.706 3.807-3.806 3.807z" fill="#000"/><path fill-rule="evenodd" clip-rule="evenodd" d="M17.7 2.569l-1.329.955a9.511 9.511 0 00-1.512-.62L14.6 1.359A1.62 1.62 0 0012.999 0h-2.082a1.62 1.62 0 00-1.6 1.357l-.27 1.577a9.34 9.34 0 00-1.461.615L6.31 2.64a1.618 1.618 0 00-2.096.17L2.74 4.285a1.627 1.627 0 00-.182 2.08l.94 1.32c-.241.471-.44.961-.596 1.462l-1.544.259A1.62 1.62 0 000 11.006v2.082a1.62 1.62 0 001.357 1.6l1.577.27c.163.505.37.994.615 1.461l-.936 1.313-.021.033a1.626 1.626 0 00.219 2.025l1.473 1.474a1.625 1.625 0 001.991.239l.05-.03 1.362-.968c.45.227.92.42 1.403.576l.26 1.559A1.62 1.62 0 0010.952 24h2.081a1.62 1.62 0 001.601-1.358l.264-1.56c.502-.16.991-.362 1.462-.607l1.285.915a1.618 1.618 0 002.095-.17l1.474-1.475a1.627 1.627 0 00.182-2.079l-.926-1.305a9.48 9.48 0 00.607-1.461l1.558-.26A1.625 1.625 0 0024 13.038v-2.081a1.62 1.62 0 00-1.358-1.601l-1.56-.264a9.4 9.4 0 00-.607-1.462l.942-1.323.02-.033a1.626 1.626 0 00-.218-2.024l-1.474-1.474a1.625 1.625 0 00-1.991-.24l-.053.033zm4.698 8.26l-2.076-.352a.656.656 0 01-.534-.49 7.915 7.915 0 00-.86-2.071.668.668 0 01.029-.727l1.221-1.716a.134.134 0 00-.015-.168L18.69 3.83a.133.133 0 00-.094-.04c-.025 0-.05.01-.074.026l-1.706 1.226a.669.669 0 01-.727.03 8.025 8.025 0 00-2.121-.87.669.669 0 01-.495-.54L13.127 1.6A.128.128 0 0013 1.493h-2.082a.128.128 0 00-.129.108l-.356 2.092a.677.677 0 01-.49.534 7.841 7.841 0 00-2.066.87.677.677 0 01-.732-.03L5.438 3.852a.121.121 0 00-.074-.025.126.126 0 00-.094.04L3.797 5.34a.135.135 0 00-.015.168l1.231 1.73a.66.66 0 01.035.722 7.908 7.908 0 00-.846 2.077.669.669 0 01-.539.494l-2.062.347a.128.128 0 00-.108.128v2.082c0 .064.044.119.108.128l2.092.356a.677.677 0 01.534.49 7.84 7.84 0 00.87 2.067.677.677 0 01-.03.732l-1.216 1.706a.134.134 0 00.015.168l1.473 1.473c.035.035.075.04.094.04.025 0 .05-.01.075-.025l1.73-1.231a.65.65 0 01.386-.124c.114 0 .232.03.336.09.638.365 1.32.647 2.027.83a.664.664 0 01.49.534l.346 2.077c.01.064.064.108.129.108h2.081a.128.128 0 00.129-.108l.35-2.077a.656.656 0 01.49-.534 7.917 7.917 0 002.072-.86.668.668 0 01.727.03l1.716 1.22a.12.12 0 00.074.025c.025 0 .06-.005.094-.04l1.474-1.473a.135.135 0 00.014-.168l-1.221-1.72a.669.669 0 01-.03-.728 7.914 7.914 0 00.86-2.071.664.664 0 01.535-.49l2.076-.346a.132.132 0 00.114-.129v-2.081a.128.128 0 00-.109-.129z" fill="#000"/></mask><g mask="url(#a)"><path fill="#00417E" d="M-4-4h32v32H-4z"/></g></svg>