<svg width="24" height="24" fill="none" xmlns="http://www.w3.org/2000/svg"><path fill-rule="evenodd" clip-rule="evenodd" d="M12.036 22.898l9.11-15.072c.343-.567-.22-1.245-.861-1.038L3.251 12.306a.707.707 0 00.04 1.364l6.484 1.698c.306.08.524.342.54.65l.36 6.557c.039.704.993.931 1.36.323zm-1.88-8.98a2.217 2.217 0 011.658 2.018l.222 4.062 6.735-11.143L6.28 12.902l3.877 1.015zm-6.484-1.7z" fill="#00417E"/><path d="M5.482 7.309c.561-2.535 2.284-4.13 4.432-4.81 2.17-.688 4.77-.435 6.973.783a.75.75 0 10.726-1.312C15.066.562 12.041.25 9.461 1.069c-2.602.825-4.754 2.803-5.443 5.916a.75.75 0 101.464.324z" fill="#00417E"/><path d="M8.522 7.835c.29-1.032 1.323-1.883 2.662-2.312 1.347-.43 2.703-.337 3.458.174a.75.75 0 10.84-1.243c-1.282-.867-3.173-.866-4.755-.36-1.59.51-3.17 1.626-3.649 3.336a.75.75 0 001.444.405z" fill="#00417E"/><mask id="a" style="mask-type:alpha" maskUnits="userSpaceOnUse" x="2" y="0" width="20" height="24"><path fill-rule="evenodd" clip-rule="evenodd" d="M12.036 22.898l9.11-15.072c.343-.567-.22-1.245-.861-1.038L3.251 12.306a.707.707 0 00.04 1.364l6.484 1.698c.306.08.524.342.54.65l.36 6.557c.039.704.993.931 1.36.323zm-1.88-8.98a2.217 2.217 0 011.658 2.018l.222 4.062 6.735-11.143L6.28 12.902l3.877 1.015zm-6.484-1.7z" fill="#000"/><path d="M5.482 7.309c.561-2.535 2.284-4.13 4.432-4.81 2.17-.688 4.77-.435 6.973.783a.75.75 0 10.726-1.312C15.066.562 12.041.25 9.461 1.069c-2.602.825-4.754 2.803-5.443 5.916a.75.75 0 101.464.324z" fill="#000"/><path d="M8.522 7.835c.29-1.032 1.323-1.883 2.662-2.312 1.347-.43 2.703-.337 3.458.174a.75.75 0 10.84-1.243c-1.282-.867-3.173-.866-4.755-.36-1.59.51-3.17 1.626-3.649 3.336a.75.75 0 001.444.405z" fill="#000"/></mask><g mask="url(#a)"><path fill="#00417E" d="M0 0h24v24H0z"/></g></svg>