<svg width="24" height="24" fill="none" xmlns="http://www.w3.org/2000/svg"><path d="M3 5.75A.75.75 0 013.75 5h17.5a.75.75 0 010 1.5H3.75A.75.75 0 013 5.75zM3 12a.75.75 0 01.75-.75h12.5a.75.75 0 010 1.5H3.75A.75.75 0 013 12zm0 6.25a.75.75 0 01.75-.75h7.5a.75.75 0 010 1.5h-7.5a.75.75 0 01-.75-.75z" fill="#00417E"/><mask id="a" style="mask-type:alpha" maskUnits="userSpaceOnUse" x="3" y="5" width="19" height="14"><path d="M3 5.75A.75.75 0 013.75 5h17.5a.75.75 0 010 1.5H3.75A.75.75 0 013 5.75zM3 12a.75.75 0 01.75-.75h12.5a.75.75 0 010 1.5H3.75A.75.75 0 013 12zm0 6.25a.75.75 0 01.75-.75h7.5a.75.75 0 010 1.5h-7.5a.75.75 0 01-.75-.75z" fill="#000"/></mask><g mask="url(#a)"><path fill="#00417E" d="M3-5h24v24H3z"/></g></svg>