<svg width="24" height="24" fill="none" xmlns="http://www.w3.org/2000/svg"><path d="M17 12c1.7 0 3-1.423 3-3s-1.3-3-3-3-3 1.423-3 3 1.3 3 3 3zm-8.5-1c1.9 0 3.5-1.57 3.5-3.5S10.4 4 8.5 4 5 5.57 5 7.5 6.6 11 8.5 11zm8.5 3c-3 0-6.5 1-6.5 3.429V19c0 .629.395 1 1 1H22c.605 0 1-.371 1-1v-1.571C23 15 20 14 17 14zm-8.5-1C5 13 1 14.337 1 17v2c0 .629.395 1 1 1h7v-2.571c0-.972.5-2.929 3-3.929-.957-.206-2-.5-3.5-.5z" fill="#00417E"/><mask id="a" style="mask-type:alpha" maskUnits="userSpaceOnUse" x="1" y="4" width="22" height="16"><path d="M17 12c1.7 0 3-1.423 3-3s-1.3-3-3-3-3 1.423-3 3 1.3 3 3 3zm-8.5-1c1.9 0 3.5-1.57 3.5-3.5S10.4 4 8.5 4 5 5.57 5 7.5 6.6 11 8.5 11zm8.5 3c-3 0-6.5 1-6.5 3.429V19c0 .629.395 1 1 1H22c.605 0 1-.371 1-1v-1.571C23 15 20 14 17 14zm-8.5-1C5 13 1 14.337 1 17v2c0 .629.395 1 1 1h7v-2.571c0-.972.5-2.929 3-3.929-.957-.206-2-.5-3.5-.5z" fill="#000"/></mask><g mask="url(#a)"><path fill="#00417E" d="M-4-4h32v32H-4z"/></g></svg>