<svg width="24" height="24" fill="none" xmlns="http://www.w3.org/2000/svg"><path d="M13.756 3.219l8.63 15.823C23.115 20.375 22.15 22 20.632 22H3.369c-1.518 0-2.483-1.625-1.756-2.958L10.244 3.22c.758-1.39 2.754-1.39 3.512 0zM13 14.27V8a1 1 0 10-2 0v6.27a1 1 0 102 0zm.5 4.231a1.5 1.5 0 10-3 0 1.5 1.5 0 003 0z" fill="#00417E"/><mask id="a" style="mask-type:alpha" maskUnits="userSpaceOnUse" x="1" y="2" width="22" height="20"><path d="M13.756 3.219l8.63 15.823C23.115 20.375 22.15 22 20.632 22H3.369c-1.518 0-2.483-1.625-1.756-2.958L10.244 3.22c.758-1.39 2.754-1.39 3.512 0zM13 14.27V8a1 1 0 10-2 0v6.27a1 1 0 102 0zm.5 4.231a1.5 1.5 0 10-3 0 1.5 1.5 0 003 0z" fill="#F8381E"/></mask><g mask="url(#a)"><path fill="#00417E" d="M0 0h24v24H0z"/></g></svg>