<svg width="48" height="48" fill="none" xmlns="http://www.w3.org/2000/svg"><path d="M24 0c13.255 0 24 10.745 24 24S37.255 48 24 48 0 37.255 0 24 10.745 0 24 0z" fill="#7F4DA0"/><path d="M30.395 20.958c-.117-.948-.408-1.692-.926-2.352-.672-.85-1.531-1.358-2.803-1.66-.829-.2-1.163-.178-1.463.096-.28.257-.334.77-.12 1.104.15.242.323.328.804.423.641.118 1.084.27 1.487.501.856.494 1.254 1.267 1.297 2.518.02.588.07.769.276.977.38.38 1.057.307 1.344-.149.105-.172.122-.247.133-.646a6.367 6.367 0 00-.03-.812z" fill="#fff"/><path d="M33.745 22.028c-.169-2.906-1.305-5.243-3.339-6.888-1.146-.924-2.53-1.56-4.05-1.868-.555-.111-1.58-.2-1.755-.15-.166.048-.4.228-.505.39-.11.176-.135.569-.04.796.151.38.434.515 1.227.584 1.222.107 2.483.536 3.435 1.172a7.204 7.204 0 012.511 2.877c.483 1 .78 2.44.772 3.73-.003.466.07.73.257.922a.862.862 0 001.06.164c.404-.212.498-.585.427-1.73zm3.707 11.188a3.188 3.188 0 00-.284-.569c-.597-.901-3.804-3.41-5.405-4.231-.914-.47-1.591-.627-2.093-.48-.54.152-.824.404-1.73 1.528-.364.45-.738.873-.838.94-.246.17-.729.308-1.07.308-.791-.005-2.226-.517-3.33-1.191-.857-.522-1.956-1.457-2.8-2.381-.994-1.087-1.671-2.045-2.207-3.127-.691-1.39-.866-2.239-.578-2.86.072-.157.166-.323.209-.375.043-.047.488-.413.98-.811.967-.769 1.123-.944 1.303-1.47.227-.67.166-1.353-.185-2.04-.27-.523-.976-1.661-1.487-2.396-.677-.968-2.364-3.036-2.7-3.316-.606-.494-1.383-.58-2.24-.247-.905.351-2.6 1.717-3.326 2.67-.653.864-.904 1.476-.942 2.283-.033.664.024.939.374 1.788 2.743 6.66 6.835 11.978 12.458 16.2 2.936 2.206 5.982 3.886 9.141 5.034 1.843.668 2.643.702 3.586.151.398-.237 1.383-1.247 1.933-1.983.909-1.224 1.245-1.788 1.34-2.239.066-.308.014-.844-.109-1.186z" fill="#fff"/><path d="M37.155 22.695c-.061-1.643-.338-2.992-.915-4.494-.57-1.479-1.146-2.444-2.235-3.748-1.029-1.224-1.829-1.922-3.097-2.7-1.769-1.083-3.922-1.8-6.334-2.102-.823-.105-1.01-.098-1.262.07-.489.32-.483 1.116.008 1.43.163.1.307.136.965.223 1.01.136 1.66.264 2.431.474 3.023.826 5.348 2.516 6.902 5.023 1.3 2.09 1.84 4.18 1.764 6.85-.027.902-.008 1.061.13 1.278.265.404.961.484 1.319.149.222-.205.264-.358.308-1.13.02-.404.025-.998.016-1.323z" fill="#fff"/></svg>