<svg width="40" height="40" fill="none" xmlns="http://www.w3.org/2000/svg"><path fill-rule="evenodd" clip-rule="evenodd" d="M20 0C8.954 0 0 8.954 0 20s8.954 20 20 20 20-8.954 20-20S31.046 0 20 0zm17.228 19.09h-6.319c-.272-5.971-2.809-12.08-7.054-15.916A17.273 17.273 0 0137.228 19.09zM18.18 4.646v14.446h-6.364c.264-5.7 2.51-11.264 6.364-14.446zm0 17.173V35.21c-3.59-3.164-5.845-8.3-6.364-13.39h6.364zm2.728 13.81v-13.81h7.272c-.6 5.173-3.281 10.628-7.272 13.81zm0-16.537V4.255c4.29 3.172 6.972 9.09 7.272 14.836h-7.27zM15.592 3.318c-3.982 3.782-6.255 9.728-6.5 15.773H2.773A17.273 17.273 0 0115.592 3.318zm-12.729 18.5h6.264c.509 5.564 2.9 11.227 6.754 14.927A17.273 17.273 0 012.827 21.819h.036zm20.819 15.064a24.027 24.027 0 007.272-15.064h6.364a17.382 17.382 0 01-13.673 15.064h.037z" fill="#A29061"/></svg>