<svg width="40" height="40" viewBox="0 0 40 40" fill="none" xmlns="http://www.w3.org/2000/svg">
<path fill-rule="evenodd" clip-rule="evenodd" d="M19.499 24.6585C24.4714 24.6585 28.5234 19.8034 28.5234 13.8293C28.5234 7.85512 24.4714 3 19.499 3C14.5266 3 10.4746 7.85512 10.4746 13.8293C10.4746 19.8034 14.5356 24.6585 19.499 24.6585ZM19.499 5.70732C22.9914 5.70732 25.8161 9.31707 25.8161 13.8293C25.8161 18.3415 22.9914 21.9512 19.499 21.9512C16.0066 21.9512 13.1819 18.3415 13.1819 13.8293C13.1819 9.31707 16.0066 5.70732 19.499 5.70732Z" fill="#A29061"/>
<path fill-rule="evenodd" clip-rule="evenodd" d="M27.7573 23.7561C27.0097 23.6814 26.3431 24.2268 26.2683 24.9744C26.1935 25.722 26.739 26.3887 27.4866 26.4634C31.6848 26.9567 34.9372 30.3685 35.2295 34.5854H3.77049C4.09038 30.3807 7.32879 26.9838 11.5134 26.4634C12.261 26.3887 12.8065 25.722 12.7317 24.9744C12.6569 24.2268 11.9903 23.6814 11.2427 23.7561C11.1434 23.7561 1 24.9112 1 35.93C1 36.6776 1.60605 37.2837 2.35366 37.2837H36.6463C37.3939 37.2837 38 36.6776 38 35.93C38 24.9112 27.8566 23.7561 27.7573 23.7561Z" fill="#A29061"/>
</svg>
