<svg width="49" height="48" fill="none" xmlns="http://www.w3.org/2000/svg"><g clip-path="url(#clip0_1085_4902)"><path clip-rule="evenodd" d="M36.518 32.95l1.414 11.182c.044.325-.02.494-.062.544-.085.094-.335.016-.562-.091L27.01 39.796c-.683-.317-1.572-.493-2.503-.493-.93 0-1.818.176-2.5.493l-10.3 4.789c-.363.171-.505.158-.56.09-.044-.047-.106-.217-.061-.546l1.411-11.185c.183-1.55-.5-3.638-1.557-4.752l-7.767-8.233c-.261-.28-.276-.454-.267-.485.012-.033.127-.165.497-.238l11.172-2.127c1.515-.276 3.297-1.562 4.058-2.926L24.517 3.6l5.87 10.585c.76 1.362 2.541 2.648 4.049 2.922l11.159 2.13c.38.072.5.207.508.237.01.027-.009.203-.275.484L38.08 28.19c-1.075 1.131-1.76 3.225-1.56 4.76z" stroke="#00417E" stroke-width="4" stroke-linecap="round" stroke-linejoin="round" opacity=".4"/></g><defs><clipPath id="clip0_1085_4902"><path fill="#fff" transform="translate(.5)" d="M0 0h48v48H0z"/></clipPath></defs></svg>