<svg width="48" height="48" fill="none" xmlns="http://www.w3.org/2000/svg"><g opacity=".4" clip-path="url(#clip0_1214_1019)"><mask id="a" fill="#fff"><path fill-rule="evenodd" clip-rule="evenodd" d="M8 22V2.4h40.002v34.8a8.4 8.4 0 01-8.4 8.4H6.094"/></mask><path d="M8 2.4v-4H4v4h4zm40.002 0h4v-4h-4v4zM12 22V2.4H4V22h8zM8 6.4h40.002v-8H8v8zm36.002-4v34.8h8V2.4h-8zm-4.4 39.2H6.094v8h33.508v-8zm4.4-4.4a4.4 4.4 0 01-4.4 4.4v8c6.849 0 12.4-5.552 12.4-12.4h-8z" fill="#00417E" mask="url(#a)"/><path d="M2 23.6h8v16a4 4 0 01-8 0v-16zm16-3.2h14.4M18 13.2h16.8M18 27.6h19.2M18 34.8h12" stroke="#00417E" stroke-width="4" stroke-linecap="round" stroke-linejoin="round"/></g><defs><clipPath id="clip0_1214_1019"><path fill="#fff" d="M0 0h48v48H0z"/></clipPath></defs></svg>