<svg width="40" height="40" viewBox="0 0 40 40" fill="none" xmlns="http://www.w3.org/2000/svg">
<path fill-rule="evenodd" clip-rule="evenodd" d="M20 0C8.9543 0 0 8.9543 0 20C0 31.0457 8.9543 40 20 40C31.0457 40 40 31.0457 40 20C40 8.9543 31.0457 0 20 0ZM37.2276 19.0909H30.9094C30.6367 13.1181 28.1003 7.00904 23.8549 3.17267C31.3641 4.90176 36.8198 11.3959 37.2276 19.0909ZM18.1811 4.64535V19.0908H11.8174C12.0811 13.3908 14.3265 7.82717 18.1811 4.64535ZM18.1811 21.8182V35.2091C14.5902 32.0455 12.3356 26.9091 11.8174 21.8182H18.1811ZM20.9087 35.6273V21.8182H28.1814C27.5814 26.9909 24.8996 32.4455 20.9087 35.6273ZM20.9087 19.091V4.2546C25.1996 7.42733 27.8814 13.3455 28.1814 19.091H20.9087ZM15.5916 3.31826C11.6098 7.10007 9.33707 13.0455 9.09162 19.091H2.77344C3.17346 11.6099 8.35046 5.23965 15.5916 3.31826ZM2.86326 21.8182H9.12689C9.63598 27.3818 12.0269 33.0455 15.8814 36.7455C8.82259 35.0121 3.60418 29.0451 2.82689 21.8182H2.86326ZM23.6815 36.8818C27.8318 32.8938 30.4125 27.5484 30.9542 21.8182H37.3179C36.4815 29.2606 30.972 35.3306 23.6451 36.8818H23.6815Z" fill="#A29061"/>
</svg>
