<svg width="49" height="48" viewBox="0 0 49 48" fill="none" xmlns="http://www.w3.org/2000/svg">
<g clip-path="url(#clip0_1085_4902)">
<g opacity="0.4">
<path fill-rule="evenodd" clip-rule="evenodd" d="M36.5183 32.9507L37.9318 44.1325C37.9756 44.4571 37.9123 44.6263 37.8697 44.6758C37.7845 44.7702 37.5347 44.6919 37.3079 44.5849L27.0113 39.7963C26.3275 39.4786 25.4389 39.3025 24.5076 39.3025C23.5776 39.3025 22.6901 39.4786 22.0086 39.7963L11.7074 44.5849C11.3448 44.7564 11.2032 44.7426 11.1479 44.6758C11.1042 44.6275 11.042 44.4583 11.0869 44.1291L12.4982 32.9438C12.6812 31.3932 11.9974 29.3063 10.9407 28.192L3.17422 19.9593C2.91292 19.6796 2.89795 19.5046 2.90716 19.4736C2.91867 19.4413 3.03378 19.309 3.40444 19.2364L14.5759 17.1092C16.0908 16.8329 17.8727 15.5472 18.6336 14.1831L24.5169 3.59985L30.3863 14.1854C31.1461 15.5472 32.928 16.8329 34.4359 17.1069L45.5947 19.2364C45.9746 19.309 46.0955 19.4436 46.1035 19.4736C46.1127 19.5012 46.0943 19.6773 45.8284 19.9582L38.0792 28.1897C37.004 29.3213 36.3191 31.4151 36.5183 32.9507Z" stroke="#00417E" stroke-width="4" stroke-linecap="round" stroke-linejoin="round"/>
</g>
</g>
<defs>
<clipPath id="clip0_1085_4902">
<rect width="48" height="48" fill="white" transform="translate(0.5)"/>
</clipPath>
</defs>
</svg>
