<svg width="49" height="49" viewBox="0 0 49 49" fill="none" xmlns="http://www.w3.org/2000/svg">
<g opacity="0.4">
<path d="M39.1172 35.7923C38.0126 35.7923 37.1172 36.6877 37.1172 37.7923C37.1172 38.8969 38.0126 39.7923 39.1172 39.7923V35.7923ZM39.1172 28.2152L37.1418 28.5281C37.1585 28.6334 37.1836 28.7372 37.2168 28.8384L39.1172 28.2152ZM37.8943 17.671L35.8959 17.7499L35.896 17.7542L37.8943 17.671ZM11.0937 17.6744L9.0953 17.5945L9.09529 17.5946L11.0937 17.6744ZM9.87413 28.1886L11.7765 28.8059C11.8085 28.7073 11.8328 28.6063 11.8491 28.5038L9.87413 28.1886ZM31.1454 37.7926H33.1454C33.1454 36.688 32.25 35.7926 31.1454 35.7926V37.7926ZM39.1172 39.7923C42.2258 39.7923 44.7726 37.2749 44.7726 34.1701H40.7726C40.7726 35.0397 40.0428 35.7923 39.1172 35.7923V39.7923ZM44.7726 34.1701C44.7726 32.1213 43.4606 30.9942 42.8079 30.3494C42.1323 29.6819 41.4812 29.0053 41.0176 27.5919L37.2168 28.8384C37.9728 31.1435 39.1493 32.3578 39.9966 33.1948C40.8667 34.0545 40.7726 34.0457 40.7726 34.1701H44.7726ZM39.1172 28.2152C41.0926 27.9022 41.0926 27.9023 41.0926 27.9023C41.0926 27.9023 41.0926 27.9022 41.0926 27.9022C41.0925 27.9021 41.0925 27.9018 41.0925 27.9015C41.0924 27.9009 41.0922 27.8998 41.092 27.8984C41.0915 27.8955 41.0908 27.891 41.0898 27.8849C41.0879 27.8728 41.0851 27.8544 41.0813 27.8301C41.0737 27.7815 41.0624 27.7091 41.048 27.6152C41.0191 27.4273 40.9774 27.1538 40.9269 26.8131C40.8259 26.1315 40.6895 25.1832 40.5483 24.1172C40.263 21.9644 39.9683 19.406 39.8926 17.5879L35.896 17.7542C35.9799 19.7676 36.2966 22.4813 36.5829 24.6426C36.7275 25.7337 36.8669 26.7031 36.9702 27.3998C37.0219 27.7483 37.0646 28.0291 37.0945 28.2234C37.1094 28.3205 37.1211 28.396 37.1292 28.4476C37.1332 28.4734 37.1363 28.4932 37.1385 28.5067C37.1395 28.5134 37.1403 28.5186 37.1409 28.5222C37.1412 28.524 37.1414 28.5254 37.1416 28.5264C37.1416 28.5269 37.1417 28.5273 37.1418 28.5275C37.1418 28.5277 37.1418 28.5278 37.1418 28.5279C37.1418 28.528 37.1418 28.5281 39.1172 28.2152ZM39.8928 17.5922C39.5669 9.33536 33.0264 2.57812 24.4957 2.57812V6.57812C30.7659 6.57812 35.6502 11.5248 35.8959 17.7499L39.8928 17.5922ZM24.4957 2.57812C15.9631 2.57812 9.42491 9.35031 9.0953 17.5945L13.0921 17.7543C13.3407 11.5364 18.2272 6.57812 24.4957 6.57812V2.57812ZM9.09529 17.5946C9.02285 19.4105 8.72921 21.9597 8.44404 24.1047C8.30287 25.1666 8.16632 26.1108 8.06509 26.7895C8.0145 27.1286 7.9728 27.4009 7.94384 27.5878C7.92937 27.6812 7.91808 27.7533 7.91047 27.8017C7.90666 27.8259 7.90377 27.8441 7.90187 27.8562C7.90091 27.8622 7.9002 27.8666 7.89974 27.8695C7.89952 27.871 7.89935 27.872 7.89925 27.8726C7.8992 27.873 7.89916 27.8732 7.89914 27.8733C7.89913 27.8733 7.89913 27.8734 7.89913 27.8734C7.89913 27.8734 7.89914 27.8733 9.87413 28.1886C11.8491 28.5038 11.8491 28.5037 11.8492 28.5036C11.8492 28.5036 11.8492 28.5034 11.8492 28.5033C11.8493 28.503 11.8493 28.5026 11.8494 28.5021C11.8496 28.5011 11.8498 28.4997 11.8501 28.4979C11.8506 28.4944 11.8515 28.4892 11.8525 28.4824C11.8547 28.469 11.8578 28.4492 11.8618 28.4235C11.8699 28.3721 11.8817 28.2969 11.8967 28.2001C11.9267 28.0066 11.9695 27.7269 12.0213 27.3796C12.1249 26.6855 12.2645 25.7196 12.4092 24.6319C12.6955 22.4777 13.0117 19.7698 13.0921 17.7541L9.09529 17.5946ZM7.9718 27.5712C7.50451 29.0112 6.85175 29.6925 6.15958 30.3987C5.44282 31.1299 4.21875 32.27 4.21875 34.3695H8.21875C8.21875 34.0864 8.21093 34.0202 9.01614 33.1987C9.84594 32.3521 11.0209 31.1344 11.7765 28.8059L7.9718 27.5712ZM4.21875 34.3695C4.21875 37.5966 6.91081 39.7923 9.87413 39.7923V35.7923C8.80325 35.7923 8.21875 35.0836 8.21875 34.3695H4.21875ZM9.87413 39.7923H39.1172V35.7923H9.87413V39.7923ZM15.8531 37.7926C15.8531 42.5658 19.726 46.4387 24.4993 46.4387V42.4387C21.9352 42.4387 19.8531 40.3567 19.8531 37.7926H15.8531ZM24.4993 46.4387C29.2725 46.4387 33.1454 42.5658 33.1454 37.7926H29.1454C29.1454 40.3567 27.0634 42.4387 24.4993 42.4387V46.4387ZM31.1454 35.7926H17.8531V39.7926H31.1454V35.7926Z" fill="#00417E"/>
</g>
</svg>
