<svg width="40" height="40" fill="none" xmlns="http://www.w3.org/2000/svg"><path fill-rule="evenodd" clip-rule="evenodd" d="M35.333 0H13.43a2.86 2.86 0 00-2.42 1.352l-7.62 7.62A2.857 2.857 0 002 11.428v25.714A2.857 2.857 0 004.857 40h30.476a2.857 2.857 0 002.858-2.857V2.857A2.857 2.857 0 0035.333 0zM10.57 5.829V8.57H7.828l2.742-2.74zm24.763 31.314H4.857v-25.62h.057l.057-.056h8.457V3.01l.057-.058v-.057h21.81l.038 34.248z" fill="#A29061"/><path fill-rule="evenodd" clip-rule="evenodd" d="M29.711 21.905H10.48c-.796 0-1.442.671-1.442 1.5 0 .828.646 1.5 1.442 1.5h19.232c.797 0 1.443-.672 1.443-1.5 0-.829-.646-1.5-1.443-1.5zm-3.136 5.885h-16.15c-.787 0-1.425.671-1.425 1.5 0 .828.638 1.5 1.425 1.5h16.15c.787 0 1.425-.672 1.425-1.5 0-.829-.638-1.5-1.425-1.5zm-3.622-9.695h5.714a2.857 2.857 0 002.857-2.857V9.524a2.857 2.857 0 00-2.857-2.857h-5.714a2.857 2.857 0 00-2.857 2.857v5.714a2.857 2.857 0 002.857 2.857zm0-8.571h5.714v5.714h-5.715V9.524z" fill="#A29061"/></svg>