<svg width="40" height="40" viewBox="0 0 40 40" fill="none" xmlns="http://www.w3.org/2000/svg">
<path fill-rule="evenodd" clip-rule="evenodd" d="M36.7859 5.56529C36.2622 3.48829 33.3952 0 20.0012 0C13.6904 0 9.11031 0.692333 6.38536 2.05925C3.37637 3.56818 3.13672 5.60967 3.13672 6.21325V18.0184C3.1508 25.3784 7.12542 32.161 13.5395 35.7705L18.6965 38.673C19.5067 39.1285 20.4958 39.1285 21.306 38.673L26.463 35.7705C32.8771 32.161 36.8517 25.3784 36.8658 18.0184V6.21325C36.8658 5.9948 36.839 5.77718 36.7859 5.56529ZM34.202 17.9918C34.2023 24.4038 30.7449 30.3177 25.1573 33.4628L20.0003 36.3919L14.8433 33.4894C9.25559 30.3444 5.79819 24.4305 5.79856 18.0185V6.2133C5.79856 6.2133 5.79856 2.66287 20.0003 2.66287C33.3144 2.66287 34.202 6.2133 34.202 6.2133V17.9918Z" fill="#A29061"/>
<path fill-rule="evenodd" clip-rule="evenodd" d="M27.9358 12.3733L19.113 21.1961L13.8406 15.9238C13.316 15.4349 12.4985 15.4494 11.9915 15.9564C11.4845 16.4634 11.4701 17.2809 11.9589 17.8055L18.1721 24.0187C18.692 24.5379 19.5341 24.5379 20.0539 24.0187L29.8175 14.2551C30.3064 13.7305 30.2919 12.913 29.7849 12.406C29.2779 11.8989 28.4604 11.8845 27.9358 12.3733Z" fill="#A29061"/>
</svg>
