<svg width="48" height="48" fill="none" xmlns="http://www.w3.org/2000/svg"><path d="M24 48c13.255 0 24-10.745 24-24S37.255 0 24 0 0 10.745 0 24s10.745 24 24 24z" fill="#25D366"/><path fill-rule="evenodd" clip-rule="evenodd" d="M24.791 37.352h-.005c-2.389 0-4.736-.6-6.82-1.737L10.4 37.6l2.025-7.395a14.246 14.246 0 01-1.905-7.135c.003-7.868 6.405-14.27 14.271-14.27a14.18 14.18 0 0110.096 4.185 14.185 14.185 0 014.175 10.096c-.003 7.867-6.402 14.268-14.27 14.271zm-6.475-4.32l.433.257a11.843 11.843 0 006.038 1.653h.005c6.537 0 11.858-5.32 11.86-11.861a11.79 11.79 0 00-3.47-8.392 11.78 11.78 0 00-8.386-3.479c-6.543 0-11.864 5.321-11.866 11.861a11.833 11.833 0 001.813 6.313l.282.448-1.198 4.377 4.49-1.177zm13.177-6.878c.248.12.417.201.488.321.09.149.09.863-.208 1.696-.297.833-1.722 1.593-2.407 1.695-.614.092-1.392.13-2.246-.141a20.485 20.485 0 01-2.033-.751c-3.342-1.444-5.602-4.684-6.029-5.296-.03-.043-.05-.073-.062-.088l-.003-.004c-.189-.252-1.453-1.94-1.453-3.685 0-1.643.807-2.504 1.178-2.9l.07-.075a1.31 1.31 0 01.95-.446 14.757 14.757 0 01.764.013c.208 0 .467-.002.723.612l.393.955c.307.747.646 1.573.706 1.692.09.179.149.387.03.625l-.05.102c-.09.182-.155.316-.307.493-.06.07-.121.144-.183.22a5.634 5.634 0 01-.352.404c-.178.178-.364.371-.156.728s.924 1.525 1.984 2.47a9.21 9.21 0 002.632 1.664c.098.043.177.077.235.106.357.179.565.149.773-.089.208-.238.891-1.041 1.129-1.398s.475-.298.802-.179c.327.12 2.08.982 2.437 1.16l.195.096z" fill="#FDFDFD"/></svg>