<svg width="40" height="41" fill="none" xmlns="http://www.w3.org/2000/svg"><path fill-rule="evenodd" clip-rule="evenodd" d="M20.324 25.198a1.618 1.618 0 01-1.149-2.757 1.664 1.664 0 012.29 0c.306.303.478.717.477 1.149a1.379 1.379 0 002.758 0 4.357 4.357 0 00-3.41-4.256l-.046-.855a1.379 1.379 0 10-2.758 0v1.158a4.366 4.366 0 001.838 8.337 1.949 1.949 0 01.45 3.843h-.873a1.94 1.94 0 01-1.526-2.096 1.379 1.379 0 00-1.231-1.508 1.36 1.36 0 00-1.508 1.232 4.688 4.688 0 002.859 4.808 1.37 1.37 0 002.666.294 4.706 4.706 0 00-.846-9.34l.01-.009z" fill="#A29061"/><path fill-rule="evenodd" clip-rule="evenodd" d="M37.605 34.05c-.367-4.127-2.16-17.382-10.111-22.364v-.056l2.758-7.353A2.758 2.758 0 0027.669.554H12.96a2.758 2.758 0 00-2.583 3.723l2.757 7.353v.056C5.165 16.668 3.373 29.923 3.024 34.05a6.38 6.38 0 001.645 4.853A6.434 6.434 0 009.431 41h21.74a6.434 6.434 0 004.761-2.096 6.379 6.379 0 001.673-4.853zM12.97 3.312h14.707l-2.757 7.354h-9.193L12.97 3.311zm18.22 34.931H9.46a3.677 3.677 0 01-3.678-3.952c.68-7.658 3.466-17.898 9.937-20.867h9.193c6.434 2.978 9.266 13.21 9.937 20.867a3.677 3.677 0 01-3.659 3.952z" fill="#A29061"/></svg>