<svg width="40" height="40" viewBox="0 0 40 40" fill="none" xmlns="http://www.w3.org/2000/svg">
<path fill-rule="evenodd" clip-rule="evenodd" d="M20 0C8.9543 0 0 8.9543 0 20C0 31.0457 8.9543 40 20 40C31.0457 40 40 31.0457 40 20C40 8.9543 31.0457 0 20 0ZM31.1997 6.86368L26.7361 11.3273L26.6815 11.391C22.7572 8.3173 17.2422 8.3173 13.3179 11.391L13.2634 11.3273L8.79972 6.86368C15.2489 1.34166 24.7597 1.34166 31.2088 6.86368H31.1997ZM20 28.1818C15.4813 28.1818 11.8182 24.5187 11.8182 20C11.8182 15.4813 15.4813 11.8182 20 11.8182C24.5187 11.8182 28.1818 15.4813 28.1818 20C28.1818 24.5187 24.5187 28.1818 20 28.1818ZM2.72728 20C2.72372 15.8924 4.19106 11.9193 6.86364 8.80005L11.3273 13.2637L11.3909 13.3182C8.31726 17.2426 8.31726 22.7575 11.3909 26.6819L11.3273 26.7364L6.86364 31.2C4.19106 28.0808 2.72372 24.1077 2.72728 20ZM8.79993 33.1363L13.2636 28.6727L13.3181 28.6091C17.2424 31.6827 22.7574 31.6827 26.6817 28.6091L26.7363 28.6727L31.1999 33.1363C24.7508 38.6584 15.24 38.6584 8.79084 33.1363H8.79993ZM33.1361 31.2091L28.6361 26.7364L28.5724 26.6819C31.6461 22.7575 31.6461 17.2426 28.5724 13.3182L28.6361 13.2637L33.0997 8.80005C38.6217 15.2492 38.6217 24.76 33.0997 31.2091H33.1361Z" fill="#A29061"/>
</svg>
