<svg width="49" height="49" fill="none" xmlns="http://www.w3.org/2000/svg"><path d="M39.117 35.792a2 2 0 100 4v-4zm0-7.577l-1.975.313c.016.105.042.21.075.31l1.9-.623zm-1.223-10.544l-1.998.079v.004l1.998-.083zm-26.8.003l-1.999-.08 1.999.08zM9.874 28.19l1.902.617c.033-.099.057-.2.073-.302l-1.975-.315zm21.271 9.604h2a2 2 0 00-2-2v2zm7.972 2c3.109 0 5.656-2.518 5.656-5.623h-4c0 .87-.73 1.622-1.656 1.622v4zm5.656-5.623c0-2.049-1.312-3.176-1.965-3.82-.676-.668-1.327-1.345-1.79-2.758l-3.801 1.246c.756 2.305 1.932 3.52 2.78 4.357.87.86.776.85.776.975h4zm-5.656-5.955l1.976-.313-.001-.004-.002-.013-.009-.055a178.942 178.942 0 01-.533-3.713c-.285-2.153-.58-4.711-.655-6.53l-3.997.167c.084 2.014.4 4.727.687 6.889a182.948 182.948 0 00.558 3.88v.005l1.976-.313zm.776-10.623c-.326-8.257-6.867-15.014-15.397-15.014v4c6.27 0 11.154 4.947 11.4 11.172l3.997-.158zM24.496 2.578c-8.533 0-15.071 6.772-15.4 15.017l3.996.16c.249-6.219 5.135-11.177 11.404-11.177v-4zm-15.4 15.017c-.073 1.816-.367 4.365-.652 6.51a172.954 172.954 0 01-.534 3.697l-.008.054-.002.013v.004l1.974.316 1.975.315v-.002l.001-.004.002-.016.01-.058a87.533 87.533 0 00.16-1.044c.103-.694.242-1.66.387-2.748.286-2.154.603-4.862.683-6.878l-3.997-.16zM7.971 27.57c-.467 1.44-1.12 2.121-1.812 2.828-.717.73-1.941 1.871-1.941 3.97h4c0-.283-.008-.349.797-1.17.83-.847 2.005-2.065 2.76-4.393L7.973 27.57zm-3.752 6.8c0 3.227 2.692 5.422 5.655 5.422v-4c-1.07 0-1.655-.708-1.655-1.422h-4zm5.655 5.422h29.243v-4H9.874v4zm5.98-2a8.649 8.649 0 008.645 8.647v-4a4.649 4.649 0 01-4.646-4.646h-4zm8.645 8.647a8.649 8.649 0 008.646-8.646h-4a4.648 4.648 0 01-4.646 4.646v4zm6.646-10.646H17.853v4h13.292v-4z" fill="#00417E" opacity=".4"/></svg>