<svg width="40" height="40" viewBox="0 0 40 40" fill="none" xmlns="http://www.w3.org/2000/svg">
<path fill-rule="evenodd" clip-rule="evenodd" d="M32 37.2727H4.72727V2.72727H20.1818V0H4.72727C3.22104 0 2 1.22104 2 2.72727V37.2727C2 38.779 3.22104 40 4.72727 40H32C33.5062 40 34.7273 38.779 34.7273 37.2727V20H32V37.2727Z" fill="#A29061"/>
<path fill-rule="evenodd" clip-rule="evenodd" d="M36.6561 3.40004L34.7288 1.47277C33.664 0.409304 31.939 0.409304 30.8742 1.47277C30.8742 1.47277 15.7197 16.6091 15.4924 17.5273L14.8106 20.2546C14.5772 21.1846 14.8494 22.1689 15.5274 22.8469C16.2054 23.5249 17.1897 23.7971 18.1197 23.5637L20.847 22.8819C21.7561 22.6455 36.6561 7.26368 36.6561 7.26368C37.7195 6.19889 37.7195 4.47393 36.6561 3.40913V3.40004ZM21.9292 18.1273L20.0656 16.2636L20.002 16.2091L32.802 3.4091L34.7292 5.33637L21.9292 18.1273Z" fill="#A29061"/>
</svg>
