<svg width="40" height="40" viewBox="0 0 40 40" fill="none" xmlns="http://www.w3.org/2000/svg">
<path fill-rule="evenodd" clip-rule="evenodd" d="M35.3333 0H13.4286C12.4429 0.00335989 11.5286 0.514508 11.0095 1.35238L3.39048 8.97143C2.52643 9.48827 1.99818 10.4217 2 11.4286V37.1429C2 38.7208 3.27919 40 4.85715 40H35.3333C36.9113 40 38.1905 38.7208 38.1905 37.1429V2.85714C38.1905 1.27919 36.9113 0 35.3333 0ZM10.5704 5.82853V8.57139H7.82755L10.5704 5.82853ZM35.333 37.1429H4.85683V11.5238H4.91398L4.97112 11.4667H13.4283V3.00953L13.4854 2.95239V2.89524H35.2949L35.333 37.1429Z" fill="#A29061"/>
<path fill-rule="evenodd" clip-rule="evenodd" d="M29.7111 21.9047H10.4795C9.68288 21.9047 9.03711 22.5762 9.03711 23.4047C9.03711 24.2331 9.68288 24.9047 10.4795 24.9047H29.7111C30.5077 24.9047 31.1535 24.2331 31.1535 23.4047C31.1535 22.5762 30.5077 21.9047 29.7111 21.9047Z" fill="#A29061"/>
<path fill-rule="evenodd" clip-rule="evenodd" d="M26.575 27.7894H10.425C9.63799 27.7894 9 28.461 9 29.2894C9 30.1179 9.63799 30.7894 10.425 30.7894H26.575C27.362 30.7894 28 30.1179 28 29.2894C28 28.461 27.362 27.7894 26.575 27.7894Z" fill="#A29061"/>
<path fill-rule="evenodd" clip-rule="evenodd" d="M22.9528 18.0953H28.6671C30.2451 18.0953 31.5243 16.8161 31.5243 15.2382V9.52389C31.5243 7.94593 30.2451 6.66675 28.6671 6.66675H22.9528C21.3749 6.66675 20.0957 7.94593 20.0957 9.52389V15.2382C20.0957 16.8161 21.3749 18.0953 22.9528 18.0953ZM22.9525 9.52395H28.6668V15.2382H22.9525V9.52395Z" fill="#A29061"/>
</svg>
