<svg width="40" height="40" fill="none" xmlns="http://www.w3.org/2000/svg"><path fill-rule="evenodd" clip-rule="evenodd" d="M19.499 24.659c4.972 0 9.024-4.856 9.024-10.83S24.471 3 19.5 3c-4.972 0-9.024 4.855-9.024 10.83 0 5.973 4.06 10.829 9.024 10.829zm0-18.952c3.492 0 6.317 3.61 6.317 8.122 0 4.512-2.825 8.122-6.317 8.122s-6.317-3.61-6.317-8.122c0-4.512 2.825-8.122 6.317-8.122z" fill="#A29061"/><path fill-rule="evenodd" clip-rule="evenodd" d="M27.757 23.756a1.36 1.36 0 00-.27 2.707 8.79 8.79 0 017.743 8.122H3.77a8.862 8.862 0 017.743-8.122 1.36 1.36 0 10-.27-2.707C11.143 23.756 1 24.911 1 35.93c0 .748.606 1.354 1.354 1.354h34.292c.748 0 1.354-.606 1.354-1.354 0-11.019-10.143-12.174-10.243-12.174z" fill="#A29061"/></svg>