<svg width="40" height="40" fill="none" xmlns="http://www.w3.org/2000/svg"><path fill-rule="evenodd" clip-rule="evenodd" d="M36.786 5.565C36.262 3.488 33.396 0 20 0 13.69 0 9.11.692 6.384 2.06 3.375 3.568 3.136 5.61 3.136 6.213v11.805A20.415 20.415 0 0013.539 35.77l5.158 2.903c.81.456 1.799.456 2.609 0l5.157-2.903a20.415 20.415 0 0010.403-17.752V6.213c0-.218-.027-.436-.08-.648zm-2.584 12.427a17.753 17.753 0 01-9.045 15.47L20 36.393l-5.157-2.903A17.752 17.752 0 015.8 18.02V6.213s0-3.55 14.201-3.55c13.314 0 14.202 3.55 14.202 3.55v11.779z" fill="#A29061"/><path fill-rule="evenodd" clip-rule="evenodd" d="M27.936 12.373l-8.823 8.823-5.272-5.272a1.331 1.331 0 00-1.882 1.881l6.213 6.214c.52.519 1.362.519 1.882 0l9.764-9.764a1.331 1.331 0 00-1.882-1.882z" fill="#A29061"/></svg>