<svg width="40" height="41" viewBox="0 0 40 41" fill="none" xmlns="http://www.w3.org/2000/svg">
<path fill-rule="evenodd" clip-rule="evenodd" d="M20.3243 25.1984C19.6708 25.1988 19.0813 24.806 18.83 24.2028C18.5786 23.5996 18.7148 22.9045 19.1752 22.4407C19.817 21.8326 20.8224 21.8326 21.4641 22.4407C21.7712 22.7441 21.9434 23.1581 21.9421 23.5898C21.9421 24.3513 22.5595 24.9686 23.321 24.9686C24.0825 24.9686 24.6998 24.3513 24.6998 23.5898C24.7012 21.5471 23.2834 19.7776 21.2895 19.3337L21.2435 18.4788C21.2435 17.7173 20.6262 17.1 19.8647 17.1C19.1031 17.1 18.4858 17.7173 18.4858 18.4788V19.6371C16.6142 20.4926 15.594 22.5388 16.0371 24.5484C16.4803 26.5581 18.2664 27.9855 20.3243 27.9745C21.309 27.9795 22.1353 28.7183 22.25 29.6964C22.3646 30.6744 21.7316 31.5843 20.7747 31.8169H19.9014C18.932 31.6108 18.274 30.7069 18.3755 29.7211C18.4504 28.965 17.8995 28.2909 17.1437 28.2135C16.7796 28.1725 16.4143 28.28 16.1305 28.5119C15.8468 28.7438 15.6685 29.0803 15.6362 29.4453C15.4241 31.503 16.5857 33.4566 18.495 34.2529C18.5566 34.8989 19.0632 35.413 19.7083 35.4842C20.3533 35.5554 20.9598 35.1641 21.1608 34.547C23.5641 34.1172 25.2397 31.9211 25.0195 29.4896C24.7993 27.0582 22.7565 25.1987 20.3151 25.2076L20.3243 25.1984Z" fill="#A29061"/>
<path fill-rule="evenodd" clip-rule="evenodd" d="M37.6054 34.0506C37.2377 29.9232 35.4452 16.6679 27.4939 11.6856V11.6305L30.2516 4.27661C30.5679 3.42993 30.4493 2.48198 29.934 1.73937C29.4188 0.996769 28.5724 0.553786 27.6685 0.553711H12.9608C12.0569 0.553786 11.2105 0.996769 10.6953 1.73937C10.18 2.48198 10.0614 3.42993 10.3777 4.27661L13.1354 11.6305V11.6856C5.16568 16.6679 3.37317 29.9232 3.02386 34.0506C2.86982 35.8273 3.46652 37.5874 4.66929 38.9041C5.89074 40.2419 7.61946 41.0028 9.43092 41H31.1708C32.9823 41.0028 34.711 40.2419 35.9324 38.9041C37.1452 37.592 37.7521 35.8313 37.6054 34.0506ZM12.9697 3.31141H27.6775L24.9198 10.6653H15.7274L12.9697 3.31141ZM31.1901 38.2423H9.45937C8.43447 38.2452 7.45487 37.8202 6.75681 37.0697C6.05874 36.3193 5.70556 35.3116 5.78243 34.2896C6.46266 26.6324 9.24794 16.3921 15.7193 13.423H24.9117C31.3463 16.4013 34.1776 26.6324 34.8486 34.2896C34.9252 35.3084 34.5745 36.3132 33.8805 37.063C33.1865 37.8128 32.2118 38.2401 31.1901 38.2423Z" fill="#A29061"/>
</svg>
