<svg width="40" height="40" viewBox="0 0 40 40" fill="none" xmlns="http://www.w3.org/2000/svg">
<path fill-rule="evenodd" clip-rule="evenodd" d="M35.4788 9.2696H27.7529V6.69431C27.7529 5.27201 26.5999 4.11902 25.1776 4.11902H14.8764C13.4542 4.11902 12.3012 5.27201 12.3012 6.69431V9.2696H4.57529C3.153 9.2696 2 10.4226 2 11.8449V33.3056C2 34.7279 3.153 35.8809 4.57529 35.8809H35.4788C36.9011 35.8809 38.0541 34.7279 38.0541 33.3056V11.8449C38.0541 10.4226 36.9011 9.2696 35.4788 9.2696ZM14.8764 6.69427H25.1776V9.26956H14.8764V6.69427ZM35.4774 11.8449V18.2917C35.2783 18.2892 35.0814 18.3333 34.9023 18.4204C31.4543 20.0188 27.8456 21.2447 24.1376 22.0773C23.7553 21.0868 22.8043 20.4323 21.7425 20.4292H18.3088C17.2201 20.4322 16.251 21.1196 15.8881 22.146C12.1222 21.3498 8.4671 20.0988 5.00316 18.4204C4.85562 18.3473 4.69526 18.3036 4.53103 18.2917V11.8449H35.4774ZM21.7448 23.0046V25.5798H18.3111V23.0046H21.7448ZM4.57445 33.3057V21.1074C8.14033 22.758 11.885 23.9909 15.734 24.7815V25.5798C15.734 27.0021 16.887 28.1551 18.3093 28.1551H21.743C23.1653 28.1551 24.3183 27.0021 24.3183 25.5798V24.6527C28.1859 23.8985 31.9377 22.6401 35.4779 20.91V33.3057H4.57445Z" fill="#A29061"/>
</svg>
