<svg width="40" height="40" fill="none" xmlns="http://www.w3.org/2000/svg"><path fill-rule="evenodd" clip-rule="evenodd" d="M32 37.273H4.727V2.727h15.455V0H4.727A2.727 2.727 0 002 2.727v34.546A2.727 2.727 0 004.727 40H32a2.727 2.727 0 002.727-2.727V20H32v17.273z" fill="#A29061"/><path fill-rule="evenodd" clip-rule="evenodd" d="M36.656 3.4L34.73 1.473a2.727 2.727 0 00-3.855 0S15.72 16.609 15.492 17.527l-.681 2.728a2.727 2.727 0 003.309 3.309l2.727-.682c.91-.237 15.81-15.618 15.81-15.618a2.727 2.727 0 000-3.855V3.4zM21.93 18.127l-1.863-1.863-.064-.055 12.8-12.8 1.927 1.927-12.8 12.791z" fill="#A29061"/></svg>