<svg width="40" height="41" fill="none" xmlns="http://www.w3.org/2000/svg"><path fill-rule="evenodd" clip-rule="evenodd" d="M19.816.554C8.872.554 0 9.426 0 20.37c0 10.944 8.872 19.817 19.816 19.817 10.945 0 19.817-8.873 19.817-19.817S30.76.554 19.816.554zm0 36.93c-9.451 0-17.114-7.662-17.114-17.114 0-9.452 7.662-17.114 17.114-17.114 9.452 0 17.115 7.662 17.115 17.114 0 9.452-7.663 17.114-17.115 17.114z" fill="#A29061"/><path fill-rule="evenodd" clip-rule="evenodd" d="M17.113 14.966a4.504 4.504 0 10-9.008 0 4.504 4.504 0 009.008 0zm-6.305 0a1.801 1.801 0 113.603 0 1.801 1.801 0 01-3.603 0zm14.412 8.106a4.504 4.504 0 100 9.008 4.504 4.504 0 000-9.008zm0 6.306a1.802 1.802 0 110-3.604 1.802 1.802 0 010 3.604zm3.658-18.069a1.35 1.35 0 00-1.91 0L9.854 28.423a1.351 1.351 0 101.91 1.91l17.114-17.115a1.351 1.351 0 000-1.91z" fill="#A29061"/></svg>