<svg width="40" height="40" fill="none" xmlns="http://www.w3.org/2000/svg"><path fill-rule="evenodd" clip-rule="evenodd" d="M20 0C8.954 0 0 8.954 0 20s8.954 20 20 20 20-8.954 20-20S31.046 0 20 0zm11.2 6.864l-4.464 4.463-.055.064a10.836 10.836 0 00-13.363 0l-.055-.064L8.8 6.864a17.227 17.227 0 0122.409 0h-.01zM20 28.182a8.182 8.182 0 110-16.364 8.182 8.182 0 010 16.364zM2.727 20A17.19 17.19 0 016.864 8.8l4.463 4.464.064.054a10.836 10.836 0 000 13.364l-.064.054L6.864 31.2A17.19 17.19 0 012.727 20zM8.8 33.136l4.464-4.463.054-.064a10.836 10.836 0 0013.364 0l.054.064 4.464 4.463a17.227 17.227 0 01-22.41 0h.01zm24.336-1.927l-4.5-4.473-.064-.054a10.836 10.836 0 000-13.364l.064-.054L33.1 8.8a17.227 17.227 0 010 22.41h.036z" fill="#A29061"/></svg>