<svg width="40" height="40" fill="none" xmlns="http://www.w3.org/2000/svg"><path fill-rule="evenodd" clip-rule="evenodd" d="M35.479 9.27h-7.726V6.694a2.575 2.575 0 00-2.575-2.575H14.876a2.575 2.575 0 00-2.575 2.575V9.27H4.575A2.575 2.575 0 002 11.845v21.46a2.575 2.575 0 002.575 2.576H35.48a2.575 2.575 0 002.575-2.575V11.845A2.575 2.575 0 0035.48 9.27zM14.876 6.694h10.302V9.27H14.876V6.694zm20.601 5.15v6.448a1.272 1.272 0 00-.575.128 53.425 53.425 0 01-10.764 3.657 2.575 2.575 0 00-2.396-1.648H18.31a2.575 2.575 0 00-2.42 1.717A47.492 47.492 0 015.002 18.42a1.27 1.27 0 00-.472-.128v-6.447h30.946zm-13.732 11.16v2.576H18.31v-2.575h3.434zM4.575 33.307v-12.2a50.989 50.989 0 0011.159 3.675v.798a2.575 2.575 0 002.575 2.575h3.434a2.575 2.575 0 002.575-2.575v-.927a45.058 45.058 0 0011.16-3.743v12.396H4.574z" fill="#A29061"/></svg>