<svg width="40" height="41" viewBox="0 0 40 41" fill="none" xmlns="http://www.w3.org/2000/svg">
<path fill-rule="evenodd" clip-rule="evenodd" d="M19.8164 0.553711C8.87211 0.553711 0 9.42582 0 20.3701C0 31.3144 8.87211 40.1865 19.8164 40.1865C30.7607 40.1865 39.6328 31.3144 39.6328 20.3701C39.6328 9.42582 30.7607 0.553711 19.8164 0.553711ZM19.8164 37.4843C10.3645 37.4843 2.70224 29.822 2.70224 20.3701C2.70224 10.9182 10.3645 3.25595 19.8164 3.25595C29.2683 3.25595 36.9306 10.9182 36.9306 20.3701C36.9306 29.822 29.2683 37.4843 19.8164 37.4843Z" fill="#A29061"/>
<path fill-rule="evenodd" clip-rule="evenodd" d="M17.1129 14.9656C17.1129 12.4783 15.0965 10.4619 12.6092 10.4619C10.1219 10.4619 8.10547 12.4783 8.10547 14.9656C8.10547 17.453 10.1219 19.4694 12.6092 19.4694C15.0965 19.4694 17.1129 17.453 17.1129 14.9656ZM10.8077 14.9656C10.8077 13.9707 11.6143 13.1642 12.6092 13.1642C13.6041 13.1642 14.4107 13.9707 14.4107 14.9656C14.4107 15.9606 13.6041 16.7671 12.6092 16.7671C11.6143 16.7671 10.8077 15.9606 10.8077 14.9656Z" fill="#A29061"/>
<path fill-rule="evenodd" clip-rule="evenodd" d="M25.2205 23.0723C22.7332 23.0723 20.7168 25.0887 20.7168 27.576C20.7168 30.0633 22.7332 32.0797 25.2205 32.0797C27.7079 32.0797 29.7243 30.0633 29.7243 27.576C29.7243 25.0887 27.7079 23.0723 25.2205 23.0723ZM25.2205 29.3775C24.2256 29.3775 23.419 28.5709 23.419 27.576C23.419 26.5811 24.2256 25.7745 25.2205 25.7745C26.2155 25.7745 27.022 26.5811 27.022 27.576C27.022 28.5709 26.2155 29.3775 25.2205 29.3775Z" fill="#A29061"/>
<path fill-rule="evenodd" clip-rule="evenodd" d="M28.8776 11.3086C28.3501 10.7817 27.4956 10.7817 26.9681 11.3086L9.8539 28.4228C9.49242 28.7596 9.34362 29.2669 9.46588 29.7456C9.58814 30.2243 9.96194 30.5981 10.4407 30.7204C10.9194 30.8426 11.4267 30.6938 11.7635 30.3323L28.8776 13.2182C29.4045 12.6907 29.4045 11.8361 28.8776 11.3086Z" fill="#A29061"/>
</svg>
