<svg width="24" height="24" fill="none" xmlns="http://www.w3.org/2000/svg"><path fill-rule="evenodd" clip-rule="evenodd" d="M23.326 13.07l-.084-.068-1.91-1.378c.086-.192.133-.4.137-.61V7.86c0-.872-.706-1.578-1.578-1.578H18.84c-.871 0-1.577.706-1.577 1.578v.825l-2.63-1.898v-2.63c0-1.767-1.157-3.156-2.63-3.156-1.473 0-2.63 1.389-2.63 3.156v2.63l-2.63 1.898v-.83c0-.872-.706-1.579-1.578-1.579H4.113c-.872 0-1.578.707-1.578 1.578v3.156c0 .212.045.422.131.615l-1.91 1.378-.083.069a2.057 2.057 0 00-.384 2.572c.35.497.935.774 1.54.73a3.28 3.28 0 00.969-.152l6.574-2.33v1.983l-3.05 2.288a1.578 1.578 0 00.946 2.84h2.478c.41 1.63 1.051 2.63 2.256 2.63 1.204 0 1.846-1 2.256-2.63h2.478a1.578 1.578 0 001.115-2.693l-3.156-3.155-.063-.053v-1.21l6.606 2.34c.302.094.615.141.93.143a1.746 1.746 0 001.547-.736 2.057 2.057 0 00-.39-2.567zM4.128 7.854H5.18v1.962l-1.052.758v-2.72zm-1.81 6.87a1.77 1.77 0 01-.683.068c-.142-.221.042-.469.12-.558l7.632-5.512v3.492l-7.068 2.51zm4.966 4.701l2.104-1.577v1.051a1.576 1.576 0 000 .232c0 .1.031.2.047.294H7.284zm5.786-.526s-.463 3.156-1.052 3.156c-.59 0-1.052-3.156-1.052-3.156V4.171c0-.873.473-1.577 1.052-1.577.579 0 1.052.704 1.052 1.577v14.727zm5.785-11.045h1.052v2.725l-1.052-.758V7.853zm-2.103 11.571h-2.167c0-.1.031-.194.047-.294a1.568 1.568 0 000-.232v-1.577l2.12 2.103zm5.674-4.66a1.31 1.31 0 01-.678-.026l-7.1-2.52V8.727l7.626 5.507c.09.1.268.337.152.531z" fill="#A29061"/></svg>