<svg width="24" height="24" fill="none" xmlns="http://www.w3.org/2000/svg"><path d="M12.546 3.711c-.278-1.336 1.87-2.863 4.017-2.787 2.744.115 4.295 1.26 4.295 1.26s-1.233 1.718-3.54 2.673c-1.948.802-4.534.038-4.772-1.146z" stroke="#A29061" stroke-width="1.5" stroke-miterlimit="10"/><path d="M7.535 11.004c-.835.305-1.75 1.26-1.869 2.596m6.124 8.59c.677 0 1.711.382 1.711.382 2.187.955 3.5-.496 3.5-.496 4.534-3.894 3.42-9.507 3.42-9.507-1.352-5.421-6.164-3.741-6.164-3.741-1.75.305-2.387.305-2.387.305h-.198s-.637 0-2.387-.305c0 0-4.772-1.68-6.164 3.741 0 0-1.114 5.613 3.42 9.507 0 0 1.313 1.45 3.5.496 0 .039 1.034-.381 1.75-.381zM9 3.84s3.226 1.842 4 4.8" stroke="#A29061" stroke-width="1.5" stroke-miterlimit="10" stroke-linecap="round" stroke-linejoin="round"/></svg>