<svg width="234" height="60" fill="none" xmlns="http://www.w3.org/2000/svg"><path d="M57.216.078C43.066-2.122 0 42.966 0 42.966S24.02 21.98 33.296 26.058c7.198 3.164-.99 19.603-.99 19.603C40.271 37.034 71.341 2.278 57.216.078z" fill="#00417E"/><path d="M36.316 59.924C50.465 62.099 93.53 17.035 93.53 17.035S69.512 38.022 60.236 33.944c-7.198-3.165.99-19.603.99-19.603-7.966 8.627-39.035 43.383-24.91 45.583z" fill="#A29061"/><path d="M56.122 30.874c.493-5.165-3.297-9.75-8.466-10.243-5.168-.492-9.757 3.296-10.25 8.46-.492 5.164 3.298 9.75 8.466 10.243 5.168.492 9.757-3.296 10.25-8.46z" fill="#00417E"/><path d="M48.714 20.794c-5.096-1.063-10.068 2.2-11.131 7.267a9.396 9.396 0 004.106 9.839l10.216-15.796a9.562 9.562 0 00-3.19-1.31z" fill="#A29061"/><path d="M41.634 25.663c.1-.024.149-.049.198-.049.05 0 .173-.05.149-.124 0-.074-.149-.024-.173-.074-.025-.05.05-.123-.025-.099-.074.025-.1.1-.173.1-.1 0-.223.024-.223.024-.025.074.099.148.099.198 0 .05.05.074.148.024z" fill="#fff"/><path d="M41.439 26.356c.123-.025.173-.05.321-.198.149-.148.248-.395.42-.42.174-.025.224-.099.298-.173.099-.05.123-.173-.075-.148a.738.738 0 00-.395.173c-.05.025 0 .148-.173.198-.174.049-.223-.075-.347 0-.099.074-.297.123-.297.123.124.198.124.495.248.445zm12.959 4.03c-.025-.247-.074-.445-.173-.544-.1-.099-.149-.173-.05-.272.1-.074.075-.148.075-.321 0-.173-.05-.1-.149-.05-.099.074-.272-.024-.198.074.05.1.1.198.075.322-.025.099.123.198.148.297.025.098.074.271.124.47.024.197-.1.395-.174.518-.074.124-.247.322-.346.445-.099.124-.074.173-.124.297 0 0 .05.173.149.272.099.099.123-.173.123-.346.025-.173.198-.272.347-.495.123-.222.198-.445.173-.667z" fill="#fff"/><path d="M53.16 30.978c-.098-.074.026-.173.075-.296.05-.124-.074-.149 0-.346.074-.198.173-.075.223-.248.074-.148.099-.519.074-.79-.025-.248-.173-.52-.247-.668-.075-.148-.05-.346-.223-.37-.173-.026-.173.197-.247.197-.075-.025-.248.05-.223-.099.025-.148-.025-.593-.025-.692a.338.338 0 01.1-.346c.123-.124.024-.223.098-.272.074-.05.248-.099.198-.198-.025-.099-.198-.173-.223-.321-.024-.149-.024-.272.025-.223.05.05.149-.05.074-.123-.074-.075-.222-.396.075-.075.272.297.148.297.272.52.123.222.074.445.42.667.371.198.42.272.198-.222-.223-.495-.396-.495-.47-.594-.074-.074-.272-.272-.297-.37-.024-.124.1-.272-.05-.42-.148-.174-.296-.52-.271-.57.024-.049-.248-.073-.272.026 0 .074-.05 0-.124-.124s-.248-.124-.099-.247c.148-.124.05-.149-.05-.223-.099-.074-.222-.148-.222.025s-.198.173-.247.346c-.05.173-.174.37-.025.37.148 0 .099.347 0 .396-.1.05-.297-.024-.371.198-.075.198-.149.025-.347.173-.198.124-.198.223-.123.297.074.074 0 .173-.1.197-.098.025 0 .248-.172.124-.174-.123-.198-.222-.371-.173-.174.05 0 .173-.1.198-.098.024-.247-.05-.395.05-.149.098-.396.32-.248-.025.149-.322.05-.396-.074-.371-.099.024-.198.099-.247 0-.074-.1-.124-.1-.149.05-.024.148-.148.172-.321.222-.173.074-.297.099-.248.197.05.075.075.149-.074.149-.148 0-.198.099-.148.222.074.124-.124-.123-.297-.099-.148.05-.223-.222-.322-.148-.099.074-.37.247-.296.445.05.198-.075.148-.223-.025-.148-.173-.148.05-.322.025-.173-.025-.197-.222-.445-.148-.247.05-.396-.025-.643.074s-.618.173-.693.05c-.074-.1.075-.322.124-.52.025-.198.099.37.247.346.174-.024.297 0 .297-.222 0-.223-.272-.42-.222-.495.05-.074.272-.123.074-.272-.198-.148-.594-.271-1.014-.222-.396.05-.718.099-.866.05-.124-.075-.248-.174-.42-.1-.174.075-.57.223-.495.347.074.123.247.173.296.173.05 0-.024.074-.123.173-.1.099-.124.247-.223.247s-.322-.05-.222-.099c.098-.05.296-.124.321-.173.025-.05-.074-.099-.198-.05a.858.858 0 00-.396.198c-.099.1-.247.025-.247-.05 0-.073-.05-.148-.173-.123a.545.545 0 01-.346-.05c-.075-.049-.223.05-.273-.073-.049-.1-.024-.124-.123-.173-.1-.05-.075-.198-.149-.149-.099.05-.05.223-.173.371-.123.148-.396.321-.47.297-.074-.025-.074-.297-.074-.42.025-.124-.025-.273-.074-.273-.05 0-.272.198-.42.223-.15.025-.199.074-.298.148-.099.05-.148.1-.148.198.025.074-.173.321-.124.37.05.026.149.1.173.199.025.099.248.099.297.099.05 0 .149-.124.248-.124s.272.173.321.123c.05-.024.124-.148.198-.098.1.05 0 .247.05.271.05.025.272.025.296.1.025.074.05.148-.024.222-.075.074-.149.123-.173.247-.025.124-.05.272-.025.396.025.123-.025.296-.1.346-.073.05-.222.05-.197.099.025.049.173.049.247.024.075-.024.149-.222.173-.148.025.074-.049.148.025.148.05 0 .1-.099.1-.247s-.075-.346.024-.47c.099-.123.05-.247.124-.296.074-.05.173-.124.222-.05.05.074-.099.149-.099.297s-.05.37-.05.47c.026.098-.024.197-.123.247-.099.05-.148.247-.148.321 0 .074-.149.1-.124.223 0 .148-.025.272.025.272s.148-.223.198-.149c.05.074.197.025.173-.099 0-.123.05-.321.074-.271.05.049.223.098.297.172.074.05.321-.024.346-.049.149-.025.322-.123.371-.148.05-.025.173-.124.322-.074.148.024.222.222.222.247 0 .05-.173-.05-.173.05 0 .073-.148.148-.074.172.05.025.371.124.371.074 0-.049-.074-.222 0-.222.1 0 .52.074.47.123-.05.05-.396.124-.37.223 0 .074.148.445.123.569-.025.123-.074.222-.223.173-.148-.05-.47-.173-.42-.272.05-.124-.1-.223-.198-.322-.1-.074-.322-.098-.371-.123-.075-.05-.1-.149-.1-.149 0-.049-.049-.148-.098-.148-.05 0-.124.099-.149.099-.099 0-.395.223-.346.395.05.198.124.42.198.396.074-.05.148-.074.173.05.05.123.173.197.297.222.124.025.124.099.074.148-.074.05-.025.173-.148.223-.149.05-.347.247-.446.247-.099 0-.247-.173-.296-.124-.05.025-.124.297-.1.42.025.124.025.198.124.124.1-.074.075.025.05.148 0 .124.025.84-.025.964s0 .297 0 .52c0 .222.124.37.074.494s-.198.396-.074.445c.124.05.742.247.816.222.1-.024.495.05.52.05.05 0 .05-.099.346-.05.272.025.668-.024.718-.049.049-.05.445-.272.445-.346 0-.05-.074-.173-.173-.247-.1-.074-.248-.173-.198-.297.05-.099 0-.099-.149-.05-.148.05-.222.1-.346.025-.124-.05-.247-.05-.223-.173 0-.123 0-.222-.05-.346-.049-.148-.123-.494-.049-.519.075-.05.273.025.322.074.05.05.025.297.099.42.074.124.124.297.272.322.148.025.322-.05.346.025.025.074-.099.173.347.37.47.198.964.198.964.248.025.074 0 .222.124.272.124.049.05.173.173.173.124.024-.074.024-.025.098.05.075.075.198.174.223.099.025.272-.198.321-.148.05.074-.05.222-.074.445-.025.222-.099.296-.025.47.075.148.05.395.124.469.074.099.074.198.099.272.05.099.124.148.124.148.074 0 .148-.05.173-.074.025-.025.148-.05.173-.074.025-.025.124-.05.124-.074.024-.025.024-.149.099-.198.074-.074.049-.074.074-.223.025-.148.074-.222.148-.222s.074-.025.149-.025c.05 0 .123 0 .173-.05.05-.049.05-.049.148-.098.1-.05.322-.198.396-.223.074-.024.297-.099.322-.148.024-.05-.075-.123.197-.148.248-.025.545-.198.57-.149.049.05.024.223.123.297.099.074.272.198.247.322-.024.098-.123.222-.049.222s.272-.05.322-.099c.074-.05.123-.173.148-.05.025.124.099.446.074.52-.025.074.025.148.1.099.073-.05.123-.346.246-.346.124.024.223.074.347.148.123.099.222.05.247.123.025.075.05.075.223-.049s.47-.173.495-.395c.024-.223 0-.396-.198-.445-.174-.075-.297-.198-.248-.322.05-.099.198-.321.396-.37.198-.05.272.024.544-.174.297-.197.668-.47.742-.593.075-.123.322-.692.371-.914.05-.223-.123-.124-.074-.223.05-.074.05-.198-.074-.272-.124-.074-.223-.099-.247-.148-.025-.05.024-.272.123-.346.1-.075.198-.198.025-.149-.148.05-.173.248-.247.198-.075-.05-.322-.099-.223-.198.074-.099.173-.173.223-.321.074-.124.148-.247.173-.124.025.1-.025.272.148.075.198-.198.248-.1.248-.025 0 .099.024.173.123.099.1-.074.025.148.1.222.049.074 0 .297.098.223.1-.075.272-.248.223-.396.099-.099-.1-.198-.198-.272zm-9.745-3.609c-.05.05-.1.1-.173.05-.075-.05 0-.149-.124-.149s-.173.124-.272.173c-.1.05-.223 0-.223-.05-.025-.049 0-.172-.124-.172-.123-.025-.148-.099-.148-.198s-.148-.123-.148-.198c.024-.074.098-.049.098.025 0 .05.174.05.174.074.024.05.05.05.123.025.075-.05.1.074.149.099.05 0 .272-.124.37-.173.1-.05.199.025.322.025.124 0 .05-.124.05-.173 0-.075.173-.1.223-.149.049-.05.247 0 .37.025.1.025.174-.025.248-.099.074-.05.124-.025.223.05.099.074.049.074-.05.123-.099.074-.445 0-.544.025a.705.705 0 00-.322.272c-.05.099.075.173.173.222.1.05.174.124.149.198 0 0-.074.05-.173 0-.075-.05-.149-.148-.272-.148-.075-.025-.05.074-.1.123zm.791 3.115c-.099-.025-.05.099-.148.074-.1-.025-.05.025-.025.148.025.124.148.05.074.173-.05.124-.099.173-.074.198.025.025.148-.148.173-.05a.231.231 0 010 .223c-.025.05-.198-.123-.222-.05-.025.075 0 .075 0 .198a.7.7 0 01-.149.396c-.074.074-.198 0-.321-.074-.124-.074-.198-.322-.198-.322.05-.123.222-.32.321-.296.1.025-.148-.272-.099-.37a.806.806 0 00.1-.322c0-.1-.025-.173.32-.198.347-.025.57.025.545.124-.025.123-.198.173-.297.148z" fill="#fff"/><path d="M53.906 28.95c-.05-.049-.198-.049-.272-.32-.025-.124-.149-.248-.248-.371-.099-.124-.222-.223-.272-.173-.024.024.198.321.297.346.074.024.198.247.223.395.05.149.148.272.173.297.025.025-.025-.223.025-.124.05.075.197.1.074-.05z" fill="#fff"/><path d="M102.422 19v-6.3h5.571V19h-1.152v-5.598l.27.288h-3.807l.27-.288V19h-1.152zm10.273.09c-.492 0-.945-.081-1.359-.243a3.325 3.325 0 01-1.08-.675 3.121 3.121 0 01-.711-1.026 3.284 3.284 0 01-.252-1.296c0-.468.084-.897.252-1.287.168-.396.405-.738.711-1.026a3.249 3.249 0 011.08-.684 3.673 3.673 0 011.35-.243c.492 0 .942.081 1.35.243.414.162.774.39 1.08.684.306.288.543.63.711 1.026.168.39.252.819.252 1.287 0 .468-.084.9-.252 1.296a3.002 3.002 0 01-.711 1.026 3.325 3.325 0 01-1.08.675 3.602 3.602 0 01-1.341.243zm-.009-1.026c.318 0 .612-.054.882-.162.27-.108.504-.261.702-.459a2.268 2.268 0 00.63-1.593c0-.324-.057-.618-.171-.882a2.065 2.065 0 00-.459-.702 2.003 2.003 0 00-.702-.468 2.353 2.353 0 00-.882-.162c-.318 0-.612.054-.882.162a2.118 2.118 0 00-.702.468 2.18 2.18 0 00-.468.702 2.31 2.31 0 00-.162.882c0 .318.054.612.162.882.114.27.27.507.468.711.198.198.432.351.702.459.27.108.564.162.882.162zm4.686.936v-6.3h2.592c.558 0 1.035.09 1.431.27.402.18.711.438.927.774.216.336.324.735.324 1.197 0 .462-.108.861-.324 1.197a2.078 2.078 0 01-.927.774c-.396.18-.873.27-1.431.27h-1.944l.522-.549V19h-1.17zm1.17-2.241l-.522-.567h1.89c.516 0 .903-.108 1.161-.324.264-.222.396-.531.396-.927 0-.402-.132-.711-.396-.927-.258-.216-.645-.324-1.161-.324h-1.89l.522-.576v3.645zm6.35 2.241v-5.598l.279.288h-2.358v-.99h5.328v.99h-2.358l.27-.288V19h-1.161zm3.14 0l2.835-6.3h1.152l2.844 6.3h-1.224l-2.439-5.679h.468L129.238 19h-1.206zm1.305-1.458l.315-.918h3.402l.315.918h-4.032zm6.384 1.548c-.102 0-.204-.009-.306-.027a14.992 14.992 0 01-.333-.063l.081-1.017a.979.979 0 00.27.036.711.711 0 00.603-.306c.15-.21.258-.516.324-.918s.111-.897.135-1.485l.09-2.61h4.635V19h-1.152v-5.598l.27.288h-2.997l.252-.297-.063 1.872a15.28 15.28 0 01-.126 1.647 4.751 4.751 0 01-.306 1.197c-.132.318-.309.561-.531.729-.222.168-.504.252-.846.252zM102.422 33v-6.3h5.571V33h-1.152v-5.598l.27.288h-3.807l.27-.288V33h-1.152zm10.273.09c-.492 0-.945-.081-1.359-.243a3.325 3.325 0 01-1.08-.675 3.121 3.121 0 01-.711-1.026 3.284 3.284 0 01-.252-1.296c0-.468.084-.897.252-1.287.168-.396.405-.738.711-1.026a3.249 3.249 0 011.08-.684 3.673 3.673 0 011.35-.243c.492 0 .942.081 1.35.243.414.162.774.39 1.08.684.306.288.543.63.711 1.026.168.39.252.819.252 1.287 0 .468-.084.9-.252 1.296a3.002 3.002 0 01-.711 1.026 3.325 3.325 0 01-1.08.675 3.602 3.602 0 01-1.341.243zm-.009-1.026c.318 0 .612-.054.882-.162.27-.108.504-.261.702-.459a2.268 2.268 0 00.63-1.593c0-.324-.057-.618-.171-.882a2.065 2.065 0 00-.459-.702 2.003 2.003 0 00-.702-.468 2.353 2.353 0 00-.882-.162c-.318 0-.612.054-.882.162a2.118 2.118 0 00-.702.468 2.18 2.18 0 00-.468.702 2.31 2.31 0 00-.162.882c0 .318.054.612.162.882.114.27.27.507.468.711.198.198.432.351.702.459.27.108.564.162.882.162zm7.183.936v-6.3h.954l2.763 4.599h-.513l2.718-4.599h.954l.018 6.3h-1.116l-.009-4.563h.234l-2.304 3.843h-.522l-2.34-3.843h.27V33h-1.107zm9.737-3.681h3.132v.963h-3.132v-.963zm.09 2.7h3.555V33h-4.725v-6.3h4.599v.981h-3.429v4.338zm11.881.981l-1.836-3.069.99-.585L142.927 33h-1.35zm-3.006-2.655v-1.008h1.899v1.008h-1.899zm2.223-.36l-1.089-.144 1.845-3.141h1.242l-1.998 3.285zM135.097 33h-1.35l2.196-3.654.999.585L135.097 33zm3.816 0h-1.143v-6.3h1.143V33zm-.801-2.655h-1.908v-1.008h1.908v1.008zm-2.223-.36l-2.007-3.285h1.242l1.836 3.141-1.071.144zm7.85 3.015v-6.3h2.592c.558 0 1.035.09 1.431.27.402.18.711.438.927.774.216.336.324.735.324 1.197 0 .462-.108.861-.324 1.197a2.078 2.078 0 01-.927.774c-.396.18-.873.27-1.431.27h-1.944l.522-.549V33h-1.17zm1.17-2.241l-.522-.567h1.89c.516 0 .903-.108 1.161-.324.264-.222.396-.531.396-.927 0-.402-.132-.711-.396-.927-.258-.216-.645-.324-1.161-.324h-1.89l.522-.576v3.645zm6.291-1.44h3.132v.963H151.2v-.963zm.09 2.7h3.555V33h-4.725v-6.3h4.599v.981h-3.429v4.338zm4.869.981v-6.3h4.275l-.009.99h-3.393l.27-.279.009 5.589h-1.152zm5.264 0v-6.3h1.152v4.473l3.384-4.473h1.089V33h-1.152v-4.464L162.512 33h-1.089zm10.317.09c-.492 0-.945-.081-1.359-.243a3.325 3.325 0 01-1.08-.675 3.121 3.121 0 01-.711-1.026 3.284 3.284 0 01-.252-1.296c0-.468.084-.897.252-1.287.168-.396.405-.738.711-1.026a3.249 3.249 0 011.08-.684 3.673 3.673 0 011.35-.243c.492 0 .942.081 1.35.243.414.162.774.39 1.08.684.306.288.543.63.711 1.026.168.39.252.819.252 1.287 0 .468-.084.9-.252 1.296a3.002 3.002 0 01-.711 1.026 3.325 3.325 0 01-1.08.675 3.602 3.602 0 01-1.341.243zm-.009-1.026c.318 0 .612-.054.882-.162.27-.108.504-.261.702-.459a2.268 2.268 0 00.63-1.593c0-.324-.057-.618-.171-.882a2.065 2.065 0 00-.459-.702 2.003 2.003 0 00-.702-.468 2.353 2.353 0 00-.882-.162c-.318 0-.612.054-.882.162a2.118 2.118 0 00-.702.468 2.18 2.18 0 00-.468.702 2.31 2.31 0 00-.162.882c0 .318.054.612.162.882.114.27.27.507.468.711.198.198.432.351.702.459.27.108.564.162.882.162zm9.114-5.364h1.17V33h-1.17v-6.3zm-3.258 6.3h-1.17v-6.3h1.17V33zm3.348-2.7h-3.447v-.999h3.447v.999zm2.046 2.7l2.835-6.3h1.152l2.844 6.3h-1.224l-2.439-5.679h.468L184.187 33h-1.206zm1.305-1.458l.315-.918h3.402l.315.918h-4.032zm6.384 1.548c-.102 0-.204-.009-.306-.027a14.992 14.992 0 01-.333-.063l.081-1.017a.979.979 0 00.27.036.711.711 0 00.603-.306c.15-.21.258-.516.324-.918s.111-.897.135-1.485l.09-2.61h4.635V33h-1.152v-5.598l.27.288h-2.997l.252-.297-.063 1.872a15.28 15.28 0 01-.126 1.647 4.751 4.751 0 01-.306 1.197c-.132.318-.309.561-.531.729-.222.168-.504.252-.846.252zm10.179-4.257c.75 0 1.329.168 1.737.504.408.336.612.84.612 1.512 0 .708-.225 1.245-.675 1.611-.444.36-1.065.54-1.863.54h-2.709v-6.3h1.152v2.133h1.746zm-.243 3.267c.45 0 .798-.105 1.044-.315.252-.21.378-.516.378-.918 0-.396-.123-.684-.369-.864-.246-.186-.597-.279-1.053-.279h-1.503V32.1h1.503zm8.215-5.4h1.17V33h-1.17v-6.3zm-3.258 6.3h-1.17v-6.3h1.17V33zm3.348-2.7h-3.447v-.999h3.447v.999zm5.772 2.79c-.492 0-.945-.081-1.359-.243a3.325 3.325 0 01-1.08-.675 3.121 3.121 0 01-.711-1.026 3.284 3.284 0 01-.252-1.296c0-.468.084-.897.252-1.287.168-.396.405-.738.711-1.026a3.249 3.249 0 011.08-.684 3.673 3.673 0 011.35-.243c.492 0 .942.081 1.35.243.414.162.774.39 1.08.684.306.288.543.63.711 1.026.168.39.252.819.252 1.287 0 .468-.084.9-.252 1.296a3.002 3.002 0 01-.711 1.026 3.325 3.325 0 01-1.08.675 3.602 3.602 0 01-1.341.243zm-.009-1.026c.318 0 .612-.054.882-.162.27-.108.504-.261.702-.459a2.268 2.268 0 00.63-1.593c0-.324-.057-.618-.171-.882a2.065 2.065 0 00-.459-.702 2.003 2.003 0 00-.702-.468 2.353 2.353 0 00-.882-.162c-.318 0-.612.054-.882.162a2.118 2.118 0 00-.702.468 2.18 2.18 0 00-.468.702 2.31 2.31 0 00-.162.882c0 .318.054.612.162.882.114.27.27.507.468.711.198.198.432.351.702.459.27.108.564.162.882.162zm4.696.936v-6.3h.954l2.763 4.599h-.513l2.718-4.599h.954l.018 6.3h-1.116l-.009-4.563h.234l-2.304 3.843h-.522l-2.34-3.843h.27V33h-1.107zm8.747-.99c.33.114.621.144.873.09.252-.054.477-.237.675-.549l.306-.477.117-.126 2.196-4.248h1.152l-2.736 5.085c-.222.426-.486.75-.792.972a1.877 1.877 0 01-.99.369 2.255 2.255 0 01-1.089-.198l.288-.918zm1.944-.054l-2.808-5.256h1.251l2.196 4.356-.639.9zM105.311 47.09c-.48 0-.927-.078-1.341-.234a3.348 3.348 0 01-1.071-.675 3.162 3.162 0 01-.702-1.035 3.284 3.284 0 01-.252-1.296c0-.468.084-.9.252-1.296.168-.396.405-.738.711-1.026a3.154 3.154 0 011.071-.675 3.602 3.602 0 011.341-.243c.516 0 .987.09 1.413.27.426.174.786.435 1.08.783l-.756.711a2.232 2.232 0 00-.765-.549 2.224 2.224 0 00-.918-.189c-.33 0-.633.054-.909.162-.27.108-.507.261-.711.459a2.18 2.18 0 00-.468.702c-.108.27-.162.567-.162.891 0 .324.054.621.162.891.114.27.27.504.468.702.204.198.441.351.711.459.276.108.579.162.909.162.33 0 .636-.06.918-.18a2.29 2.29 0 00.765-.567l.756.72a2.882 2.882 0 01-1.08.783c-.426.18-.9.27-1.422.27zm6.382 0c-.492 0-.945-.081-1.359-.243a3.325 3.325 0 01-1.08-.675 3.121 3.121 0 01-.711-1.026 3.284 3.284 0 01-.252-1.296c0-.468.084-.897.252-1.287.168-.396.405-.738.711-1.026a3.249 3.249 0 011.08-.684 3.673 3.673 0 011.35-.243c.492 0 .942.081 1.35.243.414.162.774.39 1.08.684.306.288.543.63.711 1.026.168.39.252.819.252 1.287 0 .468-.084.9-.252 1.296a3.002 3.002 0 01-.711 1.026 3.325 3.325 0 01-1.08.675 3.602 3.602 0 01-1.341.243zm-.009-1.026c.318 0 .612-.054.882-.162.27-.108.504-.261.702-.459a2.268 2.268 0 00.63-1.593c0-.324-.057-.618-.171-.882a2.065 2.065 0 00-.459-.702 2.003 2.003 0 00-.702-.468 2.353 2.353 0 00-.882-.162c-.318 0-.612.054-.882.162a2.118 2.118 0 00-.702.468 2.18 2.18 0 00-.468.702 2.31 2.31 0 00-.162.882c0 .318.054.612.162.882.114.27.27.507.468.711.198.198.432.351.702.459.27.108.564.162.882.162zm5.921.936v-5.598l.279.288h-2.358v-.99h5.328v.99h-2.358l.27-.288V47h-1.161zm4.258 0v-6.3h2.592c.558 0 1.035.09 1.431.27.402.18.711.438.927.774.216.336.324.735.324 1.197 0 .462-.108.861-.324 1.197a2.078 2.078 0 01-.927.774c-.396.18-.873.27-1.431.27h-1.944l.522-.549V47h-1.17zm1.17-2.241l-.522-.567h1.89c.516 0 .903-.108 1.161-.324.264-.222.396-.531.396-.927 0-.402-.132-.711-.396-.927-.258-.216-.645-.324-1.161-.324h-1.89l.522-.576v3.645zm5.161 1.251c.33.114.621.144.873.09.252-.054.477-.237.675-.549l.306-.477.117-.126 2.196-4.248h1.152l-2.736 5.085c-.222.426-.486.75-.792.972a1.877 1.877 0 01-.99.369 2.255 2.255 0 01-1.089-.198l.288-.918zm1.944-.054L127.33 40.7h1.251l2.196 4.356-.639.9zm8.285.504v-4.77h-2.466l-.045 1.116c-.018.42-.045.819-.081 1.197-.03.372-.081.711-.153 1.017a2.583 2.583 0 01-.279.765c-.12.204-.267.339-.441.405l-1.26-.18a.652.652 0 00.558-.234c.15-.168.267-.402.351-.702.084-.3.147-.651.189-1.053a20.6 20.6 0 00.09-1.323l.072-1.998h4.617v5.76h-1.152zm-4.941 1.881l.009-2.331h6.993v2.331h-1.08V47h-4.833v1.341h-1.089zm12.532-7.641h1.17V47h-1.17v-6.3zm-3.258 6.3h-1.17v-6.3h1.17V47zm3.348-2.7h-3.447v-.999h3.447v.999zm2.856 2.7v-6.3h1.152v4.473l3.384-4.473h1.089V47h-1.152v-4.464L150.049 47h-1.089zm11.149-2.448c-.33.138-.651.24-.963.306a4.388 4.388 0 01-.909.099c-.804 0-1.425-.192-1.863-.576-.432-.39-.648-.948-.648-1.674V40.7h1.161v1.881c0 .444.129.783.387 1.017.258.234.627.351 1.107.351.288 0 .576-.033.864-.099a3.57 3.57 0 00.846-.306l.018 1.008zm-.18 2.448v-6.3h1.161V47h-1.161zm4.007-3.681h3.132v.963h-3.132v-.963zm.09 2.7h3.555V47h-4.725v-6.3h4.599v.981h-3.429v4.338zm7.757 1.071c-.48 0-.927-.078-1.341-.234a3.348 3.348 0 01-1.071-.675 3.162 3.162 0 01-.702-1.035 3.284 3.284 0 01-.252-1.296c0-.468.084-.9.252-1.296.168-.396.405-.738.711-1.026a3.154 3.154 0 011.071-.675 3.602 3.602 0 011.341-.243c.516 0 .987.09 1.413.27.426.174.786.435 1.08.783l-.756.711a2.232 2.232 0 00-.765-.549 2.224 2.224 0 00-.918-.189c-.33 0-.633.054-.909.162-.27.108-.507.261-.711.459a2.18 2.18 0 00-.468.702c-.108.27-.162.567-.162.891 0 .324.054.621.162.891.114.27.27.504.468.702.204.198.441.351.711.459.276.108.579.162.909.162.33 0 .636-.06.918-.18a2.29 2.29 0 00.765-.567l.756.72a2.882 2.882 0 01-1.08.783c-.426.18-.9.27-1.422.27zm4.841-.09v-5.598l.279.288h-2.358v-.99h5.328v.99h-2.358l.27-.288V47h-1.161zm4.267 0v-6.3h2.817c.708 0 1.26.141 1.656.423.396.276.594.675.594 1.197 0 .516-.189.915-.567 1.197-.378.276-.876.414-1.494.414l.162-.324c.702 0 1.245.141 1.629.423.384.282.576.69.576 1.224 0 .546-.201.975-.603 1.287-.402.306-.996.459-1.782.459h-2.988zm1.152-.9h1.8c.408 0 .717-.075.927-.225.21-.156.315-.393.315-.711 0-.318-.105-.549-.315-.693-.21-.15-.519-.225-.927-.225h-1.8V46.1zm0-2.709h1.566c.378 0 .666-.075.864-.225.198-.156.297-.378.297-.666 0-.3-.099-.525-.297-.675-.198-.15-.486-.225-.864-.225h-1.566v1.791zm5.556 2.619c.33.114.621.144.873.09.252-.054.477-.237.675-.549l.306-.477.117-.126 2.196-4.248h1.152l-2.736 5.085c-.222.426-.486.75-.792.972a1.877 1.877 0 01-.99.369 2.255 2.255 0 01-1.089-.198l.288-.918zm1.944-.054l-2.808-5.256h1.251l2.196 4.356-.639.9z" fill="#00417E"/></svg>