<?xml version="1.0" encoding="utf-8"?><svg viewBox="0 0 32 32" xmlns="http://www.w3.org/2000/svg" xmlns:xlink="http://www.w3.org/1999/xlink"><style>:root>svg{display:none}:root>svg:target{display:block}</style><svg fill="none" viewBox="0 0 32 32" id="icon-arrow-decor" xmlns="http://www.w3.org/2000/svg"><path fill-rule="evenodd" clip-rule="evenodd" d="M26.111 1.304c-4.921 4.265-10.333 4.65-14.656 1.04L10.17 1.272l-1.32 1.313-1.32 1.312 1.01.89c2.79 2.46 5.478 3.533 8.868 3.542 1.254.003 2.364.09 2.467.195.103.105-4.327 4.762-9.844 10.35L0 29.034l1.446 1.483c.796.816 1.57 1.483 1.72 1.483.15 0 4.713-4.494 10.138-9.985 5.832-5.903 9.986-9.91 10.162-9.8.192.12.24.678.136 1.581-.337 2.93 1.067 6.947 3.355 9.593l1.041 1.206L29.2 23.4c.66-.657 1.201-1.3 1.201-1.43 0-.128-.416-.748-.924-1.377-1.682-2.078-2.13-3.443-2.13-6.492 0-2.575.046-2.797.981-4.706.54-1.101 1.587-2.725 2.327-3.608L32 4.183 29.945 2.09C28.815.94 27.828 0 27.751 0c-.076.001-.814.588-1.64 1.304z" fill="#fff" fill-opacity=".4"/></svg><svg fill="none" viewBox="0 0 16 16" id="icon-arrow-next" xmlns="http://www.w3.org/2000/svg"><path d="M6 14l5-6-5-6" stroke="currentColor" stroke-width="1.5" stroke-linecap="round" stroke-linejoin="round"/></svg><svg fill="none" viewBox="0 0 16 16" id="icon-arrow-prev" xmlns="http://www.w3.org/2000/svg"><path d="M11 2L6 8l5 6" stroke="currentColor" stroke-width="1.5" stroke-linecap="round" stroke-linejoin="round"/></svg><svg fill="none" viewBox="0 0 16 16" id="icon-caret" xmlns="http://www.w3.org/2000/svg"><path d="M2.5 5.5l6 5 6-5" stroke="#00417E" stroke-width="1.5" stroke-linecap="round" stroke-linejoin="round"/></svg><svg fill="none" viewBox="0 0 15 15" id="icon-search" xmlns="http://www.w3.org/2000/svg"><path fill-rule="evenodd" clip-rule="evenodd" d="M6 1.75a4.25 4.25 0 100 8.5 4.25 4.25 0 000-8.5zM.25 6a5.75 5.75 0 1110.32 3.49l3.628 3.648-1.063 1.058-3.624-3.642A5.75 5.75 0 01.25 6z" fill="currentColor"/></svg></svg>