<?xml version="1.0" encoding="utf-8"?><svg viewBox="0 0 49 48" xmlns="http://www.w3.org/2000/svg" xmlns:xlink="http://www.w3.org/1999/xlink"><style>:root>svg{display:none}:root>svg:target{display:block}</style><svg fill="none" viewBox="0 0 17 16" id="icon-actual" xmlns="http://www.w3.org/2000/svg"><path clip-rule="evenodd" d="M5.5 5.997h-3a1 1 0 01-1-1V2A1 1 0 012.5 1h3a1 1 0 011 1v2.997a1 1 0 01-1 1zM14.5 5.997h-3a1 1 0 01-1-1V2a1 1 0 011-.999h3a1 1 0 011 1v2.997a1 1 0 01-1 1zM5.5 14.99h-3a1 1 0 01-1-.998v-2.999a1 1 0 011-.999h3a1 1 0 011 1v2.998a1 1 0 01-1 .999zM14.5 14.99h-3a1 1 0 01-1-.998v-2.999a1 1 0 011-.999h3a1 1 0 011 1v2.998a1 1 0 01-1 .999z" stroke="currentColor" stroke-width="1.5" stroke-linecap="round" stroke-linejoin="round"/></svg><svg fill="none" viewBox="0 0 10 11" id="icon-arrow-breadcrumb" xmlns="http://www.w3.org/2000/svg"><path d="M4 8.5l2-3-2-3" stroke="#00417E" stroke-opacity=".4" stroke-linecap="round" stroke-linejoin="round"/></svg><svg fill="none" viewBox="0 0 32 32" id="icon-arrow-decor" xmlns="http://www.w3.org/2000/svg"><path fill-rule="evenodd" clip-rule="evenodd" d="M26.111 1.304c-4.921 4.265-10.333 4.65-14.656 1.04L10.17 1.272l-1.32 1.313-1.32 1.312 1.01.89c2.79 2.46 5.478 3.533 8.868 3.542 1.254.003 2.364.09 2.467.195.103.105-4.327 4.762-9.844 10.35L0 29.034l1.446 1.483c.796.816 1.57 1.483 1.72 1.483.15 0 4.713-4.494 10.138-9.985 5.832-5.903 9.986-9.91 10.162-9.8.192.12.24.678.136 1.581-.337 2.93 1.067 6.947 3.355 9.593l1.041 1.206L29.2 23.4c.66-.657 1.201-1.3 1.201-1.43 0-.128-.416-.748-.924-1.377-1.682-2.078-2.13-3.443-2.13-6.492 0-2.575.046-2.797.981-4.706.54-1.101 1.587-2.725 2.327-3.608L32 4.183 29.945 2.09C28.815.94 27.828 0 27.751 0c-.076.001-.814.588-1.64 1.304z" fill="#fff" fill-opacity=".4"/></svg><svg fill="none" viewBox="0 0 49 48" id="icon-arrow-decor-right" xmlns="http://www.w3.org/2000/svg"><path fill-rule="evenodd" clip-rule="evenodd" d="M44.86 19.991c-7.62-.645-12.478-4.874-13.158-11.456L31.5 6.58l-2.181-.036-2.182-.035.12 1.576c.332 4.353 1.712 7.488 4.551 10.341 1.05 1.056 1.911 2.06 1.913 2.232 0 .172-7.527.26-16.728.196L.261 20.738l.002 2.427c.002 1.335.106 2.53.232 2.657.126.126 7.63.283 16.676.349 9.723.07 16.488.283 16.545.52.063.26-.353.755-1.179 1.407-2.678 2.112-4.782 6.576-5.026 10.66l-.11 1.86 1.985.033c1.091.018 2.071-.054 2.177-.16.105-.105.263-.961.35-1.902.286-3.111 1.027-4.604 3.519-7.096 2.106-2.106 2.326-2.249 4.672-3.024 1.354-.447 3.56-.896 4.903-.996l2.442-.183-.014-3.436c-.008-1.89-.068-3.488-.133-3.552-.066-.062-1.165-.203-2.444-.31z" fill="currentColor"/></svg><svg fill="none" viewBox="0 0 16 16" id="icon-arrow-next" xmlns="http://www.w3.org/2000/svg"><path d="M6 14l5-6-5-6" stroke="currentColor" stroke-width="1.5" stroke-linecap="round" stroke-linejoin="round"/></svg><svg fill="none" viewBox="0 0 16 16" id="icon-arrow-prev" xmlns="http://www.w3.org/2000/svg"><path d="M11 2L6 8l5 6" stroke="currentColor" stroke-width="1.5" stroke-linecap="round" stroke-linejoin="round"/></svg><svg fill="none" viewBox="0 0 16 16" id="icon-calendar" xmlns="http://www.w3.org/2000/svg"><path d="M5 9.005h1M10 9.005h1M5 11.005h1M10 11.005h1M4 5.005v-4M12 5.005v-4" stroke="currentColor" stroke-width="1.5" stroke-linecap="round" stroke-linejoin="round"/><path clip-rule="evenodd" d="M14 15.005H2a1 1 0 01-1-1v-10a1 1 0 011-1h12a1 1 0 011 1v10a1 1 0 01-1 1z" stroke="currentColor" stroke-width="1.5" stroke-linecap="round" stroke-linejoin="round"/></svg><svg fill="none" viewBox="0 0 16 16" id="icon-caret" xmlns="http://www.w3.org/2000/svg"><path d="M2.5 5.5l6 5 6-5" stroke="#00417E" stroke-width="1.5" stroke-linecap="round" stroke-linejoin="round"/></svg><svg fill="none" viewBox="0 0 14 11" id="icon-check" xmlns="http://www.w3.org/2000/svg"><path d="M1.682 5.268A1 1 0 10.318 6.732l1.364-1.464zm3.374 4.51l-.682.731a1 1 0 001.423-.06l-.741-.671zM13.74 1.67A1 1 0 0012.26.329l1.482 1.342zM.318 6.731l4.056 3.778 1.363-1.463-4.055-3.778L.318 6.732zm5.479 3.718l7.944-8.778L12.26.329 4.314 9.107l1.483 1.342z" fill="#fff"/></svg><svg fill="none" viewBox="0 0 24 24" id="icon-close" xmlns="http://www.w3.org/2000/svg"><path fill-rule="evenodd" clip-rule="evenodd" d="M3.293 3.293a1 1 0 011.414 0L12 10.586l7.293-7.293a1 1 0 111.414 1.414L13.414 12l7.293 7.293a1 1 0 01-1.414 1.414L12 13.414l-7.293 7.293a1 1 0 01-1.414-1.414L10.586 12 3.293 4.707a1 1 0 010-1.414z" fill="currentColor"/><path fill-rule="evenodd" clip-rule="evenodd" d="M3.293 3.293a1 1 0 011.414 0L12 10.586l7.293-7.293a1 1 0 111.414 1.414L13.414 12l7.293 7.293a1 1 0 01-1.414 1.414L12 13.414l-7.293 7.293a1 1 0 01-1.414-1.414L10.586 12 3.293 4.707a1 1 0 010-1.414z" fill="currentColor"/></svg><svg fill="none" viewBox="0 0 24 24" id="icon-filters" xmlns="http://www.w3.org/2000/svg"><path d="M17 2.75a.75.75 0 01.75.75V5h4.5a.75.75 0 010 1.5h-4.5V8a.75.75 0 01-1.5 0V3.5a.75.75 0 01.75-.75zm-16 3A.75.75 0 011.75 5H14a.75.75 0 010 1.5H1.75A.75.75 0 011 5.75zM7 9a.75.75 0 01.75.75v4.5a.75.75 0 01-1.5 0v-1.5h-4.5a.75.75 0 010-1.5h4.5v-1.5A.75.75 0 017 9zm2.25 3a.75.75 0 01.75-.75h12.25a.75.75 0 010 1.5H10a.75.75 0 01-.75-.75zM13 15.25a.75.75 0 01.75.75v1.5h8.5a.75.75 0 010 1.5h-8.5v1.5a.75.75 0 01-1.5 0V16a.75.75 0 01.75-.75zm-12 3a.75.75 0 01.75-.75H10a.75.75 0 010 1.5H1.75a.75.75 0 01-.75-.75z" fill="currentColor"/><path d="M17 2.75a.75.75 0 01.75.75V5h4.5a.75.75 0 010 1.5h-4.5V8a.75.75 0 01-1.5 0V3.5a.75.75 0 01.75-.75zm-16 3A.75.75 0 011.75 5H14a.75.75 0 010 1.5H1.75A.75.75 0 011 5.75zM7 9a.75.75 0 01.75.75v4.5a.75.75 0 01-1.5 0v-1.5h-4.5a.75.75 0 010-1.5h4.5v-1.5A.75.75 0 017 9zm2.25 3a.75.75 0 01.75-.75h12.25a.75.75 0 010 1.5H10a.75.75 0 01-.75-.75zM13 15.25a.75.75 0 01.75.75v1.5h8.5a.75.75 0 010 1.5h-8.5v1.5a.75.75 0 01-1.5 0V16a.75.75 0 01.75-.75zm-12 3a.75.75 0 01.75-.75H10a.75.75 0 010 1.5H1.75a.75.75 0 01-.75-.75z" fill="currentColor"/></svg><svg fill="none" viewBox="0 0 15 15" id="icon-search" xmlns="http://www.w3.org/2000/svg"><path fill-rule="evenodd" clip-rule="evenodd" d="M6 1.75a4.25 4.25 0 100 8.5 4.25 4.25 0 000-8.5zM.25 6a5.75 5.75 0 1110.32 3.49l3.628 3.648-1.063 1.058-3.624-3.642A5.75 5.75 0 01.25 6z" fill="currentColor"/></svg></svg>