<?xml version="1.0" encoding="utf-8"?><svg viewBox="0 0 49 48" xmlns="http://www.w3.org/2000/svg" xmlns:xlink="http://www.w3.org/1999/xlink"><style>:root>svg{display:none}:root>svg:target{display:block}</style><svg fill="none" viewBox="0 0 17 16" id="icon-actual" xmlns="http://www.w3.org/2000/svg"><path clip-rule="evenodd" d="M5.5 5.997h-3a1 1 0 01-1-1V2A1 1 0 012.5 1h3a1 1 0 011 1v2.997a1 1 0 01-1 1zM14.5 5.997h-3a1 1 0 01-1-1V2a1 1 0 011-.999h3a1 1 0 011 1v2.997a1 1 0 01-1 1zM5.5 14.99h-3a1 1 0 01-1-.998v-2.999a1 1 0 011-.999h3a1 1 0 011 1v2.998a1 1 0 01-1 .999zM14.5 14.99h-3a1 1 0 01-1-.998v-2.999a1 1 0 011-.999h3a1 1 0 011 1v2.998a1 1 0 01-1 .999z" stroke="currentColor" stroke-width="1.5" stroke-linecap="round" stroke-linejoin="round"/></svg><svg fill="none" viewBox="0 0 10 11" id="icon-arrow-breadcrumb" xmlns="http://www.w3.org/2000/svg"><path d="M4 8.5l2-3-2-3" stroke="#00417E" stroke-opacity=".4" stroke-linecap="round" stroke-linejoin="round"/></svg><svg fill="none" viewBox="0 0 32 32" id="icon-arrow-decor" xmlns="http://www.w3.org/2000/svg"><path fill-rule="evenodd" clip-rule="evenodd" d="M26.111 1.304c-4.921 4.265-10.333 4.65-14.656 1.04L10.17 1.272l-1.32 1.313-1.32 1.312 1.01.89c2.79 2.46 5.478 3.533 8.868 3.542 1.254.003 2.364.09 2.467.195.103.105-4.327 4.762-9.844 10.35L0 29.034l1.446 1.483c.796.816 1.57 1.483 1.72 1.483.15 0 4.713-4.494 10.138-9.985 5.832-5.903 9.986-9.91 10.162-9.8.192.12.24.678.136 1.581-.337 2.93 1.067 6.947 3.355 9.593l1.041 1.206L29.2 23.4c.66-.657 1.201-1.3 1.201-1.43 0-.128-.416-.748-.924-1.377-1.682-2.078-2.13-3.443-2.13-6.492 0-2.575.046-2.797.981-4.706.54-1.101 1.587-2.725 2.327-3.608L32 4.183 29.945 2.09C28.815.94 27.828 0 27.751 0c-.076.001-.814.588-1.64 1.304z" fill="#fff" fill-opacity=".4"/></svg><svg fill="none" viewBox="0 0 49 48" id="icon-arrow-decor-right" xmlns="http://www.w3.org/2000/svg"><path fill-rule="evenodd" clip-rule="evenodd" d="M44.86 19.991c-7.62-.645-12.478-4.874-13.158-11.456L31.5 6.58l-2.181-.036-2.182-.035.12 1.576c.332 4.353 1.712 7.488 4.551 10.341 1.05 1.056 1.911 2.06 1.913 2.232 0 .172-7.527.26-16.728.196L.261 20.738l.002 2.427c.002 1.335.106 2.53.232 2.657.126.126 7.63.283 16.676.349 9.723.07 16.488.283 16.545.52.063.26-.353.755-1.179 1.407-2.678 2.112-4.782 6.576-5.026 10.66l-.11 1.86 1.985.033c1.091.018 2.071-.054 2.177-.16.105-.105.263-.961.35-1.902.286-3.111 1.027-4.604 3.519-7.096 2.106-2.106 2.326-2.249 4.672-3.024 1.354-.447 3.56-.896 4.903-.996l2.442-.183-.014-3.436c-.008-1.89-.068-3.488-.133-3.552-.066-.062-1.165-.203-2.444-.31z" fill="currentColor"/></svg><svg fill="none" viewBox="0 0 16 16" id="icon-arrow-next" xmlns="http://www.w3.org/2000/svg"><path d="M6 14l5-6-5-6" stroke="currentColor" stroke-width="1.5" stroke-linecap="round" stroke-linejoin="round"/></svg><svg fill="none" viewBox="0 0 16 16" id="icon-arrow-prev" xmlns="http://www.w3.org/2000/svg"><path d="M11 2L6 8l5 6" stroke="currentColor" stroke-width="1.5" stroke-linecap="round" stroke-linejoin="round"/></svg><svg fill="none" viewBox="0 0 16 16" id="icon-calendar" xmlns="http://www.w3.org/2000/svg"><path d="M5 9.005h1M10 9.005h1M5 11.005h1M10 11.005h1M4 5.005v-4M12 5.005v-4" stroke="currentColor" stroke-width="1.5" stroke-linecap="round" stroke-linejoin="round"/><path clip-rule="evenodd" d="M14 15.005H2a1 1 0 01-1-1v-10a1 1 0 011-1h12a1 1 0 011 1v10a1 1 0 01-1 1z" stroke="currentColor" stroke-width="1.5" stroke-linecap="round" stroke-linejoin="round"/></svg><svg fill="none" viewBox="0 0 16 16" id="icon-caret" xmlns="http://www.w3.org/2000/svg"><path d="M2.5 5.5l6 5 6-5" stroke="#00417E" stroke-width="1.5" stroke-linecap="round" stroke-linejoin="round"/></svg><svg fill="none" viewBox="0 0 16 16" id="icon-caret-red" xmlns="http://www.w3.org/2000/svg"><path d="M2.5 5.5l6 5 6-5" stroke="#FF370B" stroke-width="1.5" stroke-linecap="round" stroke-linejoin="round"/></svg><svg fill="none" viewBox="0 0 14 11" id="icon-check" xmlns="http://www.w3.org/2000/svg"><path d="M1.682 5.268A1 1 0 10.318 6.732l1.364-1.464zm3.374 4.51l-.682.731a1 1 0 001.423-.06l-.741-.671zM13.74 1.67A1 1 0 0012.26.329l1.482 1.342zM.318 6.731l4.056 3.778 1.363-1.463-4.055-3.778L.318 6.732zm5.479 3.718l7.944-8.778L12.26.329 4.314 9.107l1.483 1.342z" fill="#fff"/></svg><svg fill="none" viewBox="0 0 24 24" id="icon-close" xmlns="http://www.w3.org/2000/svg"><path fill-rule="evenodd" clip-rule="evenodd" d="M3.293 3.293a1 1 0 011.414 0L12 10.586l7.293-7.293a1 1 0 111.414 1.414L13.414 12l7.293 7.293a1 1 0 01-1.414 1.414L12 13.414l-7.293 7.293a1 1 0 01-1.414-1.414L10.586 12 3.293 4.707a1 1 0 010-1.414z" fill="currentColor"/><path fill-rule="evenodd" clip-rule="evenodd" d="M3.293 3.293a1 1 0 011.414 0L12 10.586l7.293-7.293a1 1 0 111.414 1.414L13.414 12l7.293 7.293a1 1 0 01-1.414 1.414L12 13.414l-7.293 7.293a1 1 0 01-1.414-1.414L10.586 12 3.293 4.707a1 1 0 010-1.414z" fill="currentColor"/></svg><svg fill="none" viewBox="0 0 24 24" id="icon-filters" xmlns="http://www.w3.org/2000/svg"><path d="M17 2.75a.75.75 0 01.75.75V5h4.5a.75.75 0 010 1.5h-4.5V8a.75.75 0 01-1.5 0V3.5a.75.75 0 01.75-.75zm-16 3A.75.75 0 011.75 5H14a.75.75 0 010 1.5H1.75A.75.75 0 011 5.75zM7 9a.75.75 0 01.75.75v4.5a.75.75 0 01-1.5 0v-1.5h-4.5a.75.75 0 010-1.5h4.5v-1.5A.75.75 0 017 9zm2.25 3a.75.75 0 01.75-.75h12.25a.75.75 0 010 1.5H10a.75.75 0 01-.75-.75zM13 15.25a.75.75 0 01.75.75v1.5h8.5a.75.75 0 010 1.5h-8.5v1.5a.75.75 0 01-1.5 0V16a.75.75 0 01.75-.75zm-12 3a.75.75 0 01.75-.75H10a.75.75 0 010 1.5H1.75a.75.75 0 01-.75-.75z" fill="currentColor"/><path d="M17 2.75a.75.75 0 01.75.75V5h4.5a.75.75 0 010 1.5h-4.5V8a.75.75 0 01-1.5 0V3.5a.75.75 0 01.75-.75zm-16 3A.75.75 0 011.75 5H14a.75.75 0 010 1.5H1.75A.75.75 0 011 5.75zM7 9a.75.75 0 01.75.75v4.5a.75.75 0 01-1.5 0v-1.5h-4.5a.75.75 0 010-1.5h4.5v-1.5A.75.75 0 017 9zm2.25 3a.75.75 0 01.75-.75h12.25a.75.75 0 010 1.5H10a.75.75 0 01-.75-.75zM13 15.25a.75.75 0 01.75.75v1.5h8.5a.75.75 0 010 1.5h-8.5v1.5a.75.75 0 01-1.5 0V16a.75.75 0 01.75-.75zm-12 3a.75.75 0 01.75-.75H10a.75.75 0 010 1.5H1.75a.75.75 0 01-.75-.75z" fill="currentColor"/></svg><svg fill="none" viewBox="0 0 16 16" id="icon-list-mark" xmlns="http://www.w3.org/2000/svg"><path fill-rule="evenodd" clip-rule="evenodd" d="M15.34 1.03c-.098.043-.116.059-.371.335-.28.302-.277.3-.548.595a310.585 310.585 0 01-1.611 1.752c-.187.206-.59.645-.655.712-.052.054-.308.333-.627.681-.134.148-.296.324-.359.391l-.282.307-.306.333a828.183 828.183 0 01-4.193 4.554 1.226 1.226 0 01-.228.206.421.421 0 01-.36-.01 9.255 9.255 0 01-.58-.491 20.115 20.115 0 00-.35-.306 37.434 37.434 0 01-.519-.453 28.961 28.961 0 00-.415-.364 13.665 13.665 0 01-.246-.214 70.429 70.429 0 00-.56-.49c-.426-.37-.556-.467-.74-.553a1.684 1.684 0 00-2.117.56C.083 8.85 0 9.118 0 9.46c0 .233.012.314.07.472.112.301.196.422.762 1.087a870.79 870.79 0 012.525 2.97c.026.028.146.17.266.314.12.145.243.289.273.32.03.03.082.09.116.132.06.074.422.509.51.61.123.143.307.318.399.377a1.626 1.626 0 001.817-.04c.194-.138.335-.298.53-.602.09-.141.196-.304.234-.361.039-.058.151-.232.251-.388s.215-.334.257-.396c.041-.063.101-.156.133-.208l.147-.23c.05-.075.165-.253.257-.397l.243-.373c.042-.061.085-.13.096-.152.01-.022.071-.119.135-.214a41.4 41.4 0 00.501-.771c.028-.048.633-.981.772-1.192a136.59 136.59 0 001.72-2.673l.32-.496a35.785 35.785 0 01.414-.636c.084-.136.339-.53.48-.744.065-.096.271-.415.46-.71a142.652 142.652 0 01.924-1.432 21.46 21.46 0 00.368-.578l.114-.174c.033-.051.113-.17.177-.262.064-.092.116-.173.116-.178 0-.01.1-.168.41-.644.169-.258.203-.33.203-.424a.514.514 0 00-.214-.394.54.54 0 00-.445-.043z" fill="#A29061"/></svg><svg fill="none" viewBox="0 0 40 40" id="icon-lk-nav-01" xmlns="http://www.w3.org/2000/svg"><path fill-rule="evenodd" clip-rule="evenodd" d="M35.333 0H13.43c-.986.003-1.9.515-2.42 1.352L3.39 8.972A2.857 2.857 0 002 11.428v25.714A2.857 2.857 0 004.857 40h30.476a2.857 2.857 0 002.858-2.857V2.857A2.857 2.857 0 0035.333 0zM10.57 5.829V8.57H7.828L10.57 5.83zm24.763 31.314H4.857v-25.62h.057l.057-.056h8.457V3.01l.057-.058v-.057h21.81l.038 34.248z" fill="#A29061"/><path fill-rule="evenodd" clip-rule="evenodd" d="M29.71 21.905H10.476c-.796 0-1.442.671-1.442 1.5 0 .828.646 1.5 1.442 1.5H29.71c.797 0 1.443-.672 1.443-1.5 0-.829-.646-1.5-1.443-1.5zM26.575 27.79h-16.15c-.787 0-1.425.671-1.425 1.5 0 .828.638 1.5 1.425 1.5h16.15c.787 0 1.425-.672 1.425-1.5 0-.829-.638-1.5-1.425-1.5zM22.95 18.095h5.715a2.857 2.857 0 002.857-2.857V9.524a2.857 2.857 0 00-2.857-2.857h-5.714a2.857 2.857 0 00-2.857 2.857v5.714a2.857 2.857 0 002.857 2.857zm0-8.571h5.715v5.714H22.95V9.524z" fill="#A29061"/></svg><svg fill="none" viewBox="0 0 40 40" id="icon-lk-nav-02" xmlns="http://www.w3.org/2000/svg"><g clip-path="url(#oclip0_1793_5126)"><mask id="oa" fill="#fff"><path fill-rule="evenodd" clip-rule="evenodd" d="M7.5 18.5V2h32.502v27.6a8.4 8.4 0 01-8.4 8.4H5.078"/></mask><path d="M7.5 2V-.8H4.7V2h2.8zm32.502 0h2.8V-.8h-2.8V2zM10.3 18.5V2H4.7v16.5h5.6zM7.5 4.8h32.502V-.8H7.5v5.6zM37.202 2v27.6h5.6V2h-5.6zm-5.6 33.2H5.078v5.6h26.524v-5.6zm5.6-5.6a5.6 5.6 0 01-5.6 5.6v5.6c6.186 0 11.2-5.014 11.2-11.2h-5.6z" fill="#A29061" mask="url(#oa)"/><path d="M8.6 33a3.6 3.6 0 11-7.2 0V19.4h7.2V33zM15 17h12M15 11h14M15 23h16M15 29h10" stroke="#A29061" stroke-width="2.8" stroke-linecap="round" stroke-linejoin="round"/></g><defs><clipPath id="oclip0_1793_5126"><path fill="#fff" d="M0 0h40v40H0z"/></clipPath></defs></svg><svg fill="none" viewBox="0 0 40 40" id="icon-lk-nav-03" xmlns="http://www.w3.org/2000/svg"><path d="M32.181 23.096l-1.383.219c.012.074.03.146.053.217l1.33-.436zm-1.02-8.787l-1.398.055v.003l1.399-.058zm-22.333.003l-1.399-.056 1.4.056zm-1.016 8.762l1.331.432c.023-.07.04-.14.051-.212l-1.382-.22zm6.649 8.003v-1.4a1.4 1.4 0 00-1.4 1.4h1.4zm0-1.4a1.4 1.4 0 100 2.8v-2.8zm11.077 1.4h1.4a1.4 1.4 0 00-1.4-1.4v1.4zm6.643 1.4c2.445 0 4.446-1.98 4.446-4.419h-2.8c0 .874-.73 1.619-1.646 1.619v2.8zm4.446-4.419c0-1.579-1-2.442-1.558-2.994-.574-.567-1.152-1.167-1.558-2.404l-2.66.872c.61 1.862 1.556 2.838 2.25 3.524.71.702.726.77.726 1.002h2.8zm-4.446-4.962l1.383-.22v-.002l-.003-.012-.007-.046-.028-.18a149.853 149.853 0 01-.417-2.92c-.238-1.794-.485-3.937-.548-5.465l-2.798.116c.07 1.665.332 3.916.57 5.717a152.881 152.881 0 00.426 2.978l.029.186.008.05.002.012v.004l1.383-.218zm.38-8.842c-.266-6.745-5.606-12.256-12.565-12.256v2.8c5.376 0 9.557 4.243 9.767 9.566l2.798-.11zM19.996 1.998c-6.96 0-12.298 5.523-12.567 12.258l2.798.112c.213-5.317 4.395-9.57 9.77-9.57v-2.8zM7.43 14.256c-.06 1.527-.307 3.662-.545 5.45a144.105 144.105 0 01-.445 3.087l-.007.046-.002.01a.17.17 0 000 .004l1.382.22a949.634 949.634 0 001.382.22l.001-.003.002-.013.008-.049a77.82 77.82 0 00.132-.868c.086-.577.203-1.38.323-2.285.239-1.795.5-4.04.567-5.707l-2.798-.112zm-.949 8.386c-.408 1.259-.987 1.862-1.573 2.46-.603.616-1.541 1.494-1.541 3.123h2.8c0-.357.075-.484.74-1.163.683-.696 1.627-1.675 2.237-3.556l-2.663-.864zm-3.114 5.583c0 2.521 2.102 4.252 4.446 4.252v-2.8c-1.019 0-1.646-.69-1.646-1.452h-2.8zm4.446 4.252H32.18v-2.8H7.811v2.8zm5.249-1.4a6.94 6.94 0 006.938 6.939v-2.8a4.14 4.14 0 01-4.138-4.139h-2.8zm6.938 6.939a6.94 6.94 0 006.939-6.939h-2.8a4.14 4.14 0 01-4.139 4.139v2.8zm5.539-8.339H14.46v2.8h11.077v-2.8z" fill="#A29061"/></svg><svg fill="none" viewBox="0 0 40 40" id="icon-lk-nav-04" xmlns="http://www.w3.org/2000/svg"><path fill-rule="evenodd" clip-rule="evenodd" d="M35.479 9.27h-7.726V6.694a2.575 2.575 0 00-2.575-2.575H14.876a2.575 2.575 0 00-2.575 2.575V9.27H4.575A2.575 2.575 0 002 11.845v21.46a2.575 2.575 0 002.575 2.576H35.48a2.575 2.575 0 002.575-2.575V11.845A2.575 2.575 0 0035.48 9.27zM14.876 6.694h10.302V9.27H14.876V6.694zm20.601 5.15v6.448c-.199-.003-.396.041-.575.128a53.425 53.425 0 01-10.764 3.657 2.575 2.575 0 00-2.396-1.648H18.31a2.575 2.575 0 00-2.42 1.717A47.492 47.492 0 015.002 18.42a1.27 1.27 0 00-.472-.128v-6.447h30.946zm-13.732 11.16v2.576H18.31v-2.575h3.434zM4.575 33.307V21.107a50.989 50.989 0 0011.159 3.675v.798a2.575 2.575 0 002.575 2.575h3.434a2.575 2.575 0 002.575-2.575v-.927a45.058 45.058 0 0011.16-3.743v12.396H4.574z" fill="#A29061"/></svg><svg fill="none" viewBox="0 0 40 40" id="icon-lk-nav-05" xmlns="http://www.w3.org/2000/svg"><path fill-rule="evenodd" clip-rule="evenodd" d="M32 37.273H4.727V2.727h15.455V0H4.727A2.727 2.727 0 002 2.727v34.546A2.727 2.727 0 004.727 40H32a2.727 2.727 0 002.727-2.727V20H32v17.273z" fill="#A29061"/><path fill-rule="evenodd" clip-rule="evenodd" d="M36.654 3.4l-1.927-1.927a2.727 2.727 0 00-3.855 0S15.718 16.609 15.491 17.527l-.682 2.728a2.727 2.727 0 003.309 3.309l2.727-.682c.91-.237 15.81-15.618 15.81-15.618a2.727 2.727 0 000-3.855V3.4zM21.927 18.127l-1.863-1.863-.064-.055 12.8-12.8 1.927 1.927-12.8 12.791z" fill="#A29061"/></svg><svg fill="none" viewBox="0 0 40 40" id="icon-lk-nav-06" xmlns="http://www.w3.org/2000/svg"><path clip-rule="evenodd" d="M20.414 27.1L8 37V4h24v33l-11.586-9.9z" stroke="#A29061" stroke-width="2.8" stroke-linejoin="round"/></svg><svg fill="none" viewBox="0 0 32 43" id="icon-pdf" xmlns="http://www.w3.org/2000/svg"><path d="M25.6 41.5H6.4a4.875 4.875 0 01-3.46-1.446A4.976 4.976 0 011.5 36.55V6.45c0-1.317.52-2.577 1.44-3.504A4.875 4.875 0 016.4 1.5h14.054a.625.625 0 01.436.183l.002.001 9.42 9.495.002.001c.117.12.185.283.186.456V36.55c0 1.317-.52 2.577-1.44 3.504A4.875 4.875 0 0125.6 41.5z" stroke="#A29061" stroke-width="3"/><path d="M30.828 12.094h-7.643a3.172 3.172 0 01-2.252-.94A3.222 3.222 0 0120 8.884V1.181A1.184 1.184 0 0120.72.09a1.16 1.16 0 011.276.257l9.66 9.736a1.18 1.18 0 01.255 1.285 1.175 1.175 0 01-1.083.726zM9.68 34.096c-.544 0-1.02-.12-1.428-.36-.408-.24-.728-.604-.96-1.092-.224-.496-.336-1.12-.336-1.872 0-.76.108-1.384.324-1.872.216-.488.528-.852.936-1.092.408-.24.896-.36 1.464-.36.608 0 1.152.14 1.632.42.488.272.872.656 1.152 1.152.288.496.432 1.08.432 1.752 0 .68-.144 1.268-.432 1.764-.28.496-.664.88-1.152 1.152a3.252 3.252 0 01-1.632.408zm-3.816 2.232v-8.784h1.788v1.32l-.036 1.92.12 1.908v3.636H5.864zm3.492-3.768c.312 0 .588-.072.828-.216.248-.144.444-.348.588-.612.152-.272.228-.592.228-.96 0-.376-.076-.696-.228-.96a1.548 1.548 0 00-.588-.612 1.578 1.578 0 00-.828-.216c-.312 0-.592.072-.84.216a1.548 1.548 0 00-.588.612c-.144.264-.216.584-.216.96 0 .368.072.688.216.96.144.264.34.468.588.612.248.144.528.216.84.216zm7.565 1.536a3.319 3.319 0 01-1.644-.408 3.126 3.126 0 01-1.164-1.164c-.28-.496-.42-1.08-.42-1.752 0-.68.14-1.268.42-1.764.288-.496.676-.88 1.164-1.152a3.319 3.319 0 011.644-.408c.544 0 1.02.12 1.428.36.408.24.724.604.948 1.092.224.488.336 1.112.336 1.872 0 .752-.108 1.376-.324 1.872-.216.488-.528.852-.936 1.092-.4.24-.884.36-1.452.36zm.324-1.536c.304 0 .58-.072.828-.216.248-.144.444-.348.588-.612.152-.272.228-.592.228-.96 0-.376-.076-.696-.228-.96a1.548 1.548 0 00-.588-.612 1.619 1.619 0 00-.828-.216c-.312 0-.592.072-.84.216a1.633 1.633 0 00-.6.612c-.144.264-.216.584-.216.96 0 .368.072.688.216.96.152.264.352.468.6.612.248.144.528.216.84.216zM18.937 34v-1.32l.036-1.92-.12-1.908v-3.756h1.872V34h-1.788zm3.749 0v-6.6c0-.728.216-1.308.648-1.74.432-.44 1.048-.66 1.848-.66.272 0 .532.028.78.084.256.056.472.144.648.264l-.492 1.356a1.275 1.275 0 00-.348-.168 1.36 1.36 0 00-.408-.06c-.272 0-.484.08-.636.24-.144.152-.216.384-.216.696v.6l.048.804V34h-1.872zm-.996-4.872v-1.44h4.476v1.44H21.69z" fill="#A29061"/></svg><svg fill="none" viewBox="0 0 15 15" id="icon-search" xmlns="http://www.w3.org/2000/svg"><path fill-rule="evenodd" clip-rule="evenodd" d="M6 1.75a4.25 4.25 0 100 8.5 4.25 4.25 0 000-8.5zM.25 6a5.75 5.75 0 1110.32 3.49l3.628 3.648-1.063 1.058-3.624-3.642A5.75 5.75 0 01.25 6z" fill="currentColor"/></svg><svg fill="none" viewBox="0 0 26 26" id="icon-star" xmlns="http://www.w3.org/2000/svg"><path clip-rule="evenodd" d="M13 20.571L5.584 24.5 7 16.178l-6-5.893 8.292-1.214L13 1.5l3.708 7.571L25 10.285l-6 5.893 1.416 8.322L13 20.571z" stroke="#fff" stroke-width="2" stroke-linejoin="round"/></svg></svg>