<svg width="146" height="151" fill="none" xmlns="http://www.w3.org/2000/svg"><path d="M128.777 108.829a4.943 4.943 0 011.283-1.267 4.36 4.36 0 011.547-.623 4.279 4.279 0 013.244.76c.509.361.91.784 1.204 1.268.294.484.482 1 .563 1.548a4.1 4.1 0 01-.08 1.666 4.753 4.753 0 01-.765 1.635 4.638 4.638 0 01-1.31 1.263 3.593 3.593 0 01-1.605.581l-.165-1.073c.46-.067.87-.216 1.233-.45.368-.228.685-.529.949-.9.273-.385.463-.79.569-1.215a3.083 3.083 0 00-.381-2.406 3.377 3.377 0 00-.907-.939 3.455 3.455 0 00-1.196-.555 3.131 3.131 0 00-1.234-.024 3.143 3.143 0 00-1.153.462c-.367.24-.687.552-.96.937a3.432 3.432 0 00-.549 1.185 3.13 3.13 0 00.001 1.325l-1.068.198a3.72 3.72 0 01.011-1.714 4.689 4.689 0 01.769-1.662zm-2.768 5.017l4.497 4.497-.84.84-5.261-1.392.34-.339 1.34 5.312-.763.763-4.497-4.497.738-.738 3.581 3.581-.213.059-1.179-4.811.356-.357 4.879 1.231-.127.195-3.598-3.598.747-.746zm-9.298 9.148c.508-.389 1.044-.624 1.608-.704a3.123 3.123 0 011.634.198c.53.219.985.575 1.365 1.07.385.502.612 1.034.68 1.596a3.03 3.03 0 01-.239 1.62c-.223.524-.589.981-1.096 1.371-.502.385-1.034.617-1.598.697a2.93 2.93 0 01-1.627-.189c-.521-.206-.976-.562-1.366-1.07-.384-.501-.611-1.033-.68-1.596a3.02 3.02 0 01.232-1.63c.223-.524.586-.978 1.087-1.363zm.614.8a2.148 2.148 0 00-.699.884 1.943 1.943 0 00-.134 1.086c.063.385.231.755.504 1.111.277.361.589.616.935.765.35.154.711.205 1.084.151.366-.049.71-.198 1.034-.446.324-.248.557-.543.698-.884.142-.34.187-.702.135-1.086-.047-.377-.21-.746-.487-1.108a2.392 2.392 0 00-.952-.767 2.05 2.05 0 00-1.084-.152 2.152 2.152 0 00-1.034.446zm-5.886 3.373l2.981 4.801-.403-.103 2.223-1.38.532.857-4.935 3.063-.531-.856 2.212-1.374-.076.401-2.982-4.802.979-.607zm-7.67 4.547a2.975 2.975 0 011.477-.24 2.75 2.75 0 011.389.594c.424.341.777.842 1.06 1.504.283.662.405 1.263.366 1.802-.047.542-.222 1.008-.525 1.398a3.02 3.02 0 01-1.216.911c-.574.246-1.135.337-1.683.276a3.01 3.01 0 01-1.496-.6c-.446-.332-.797-.795-1.051-1.391-.255-.596-.349-1.173-.284-1.732a3.003 3.003 0 01.6-1.496c.335-.439.789-.781 1.363-1.026zm2.214-3.4l3.414 7.989-1.015.434-.674-1.578-.514-1.386-.69-1.31-1.58-3.696 1.059-.453zm-1.73 4.289c-.375.16-.673.388-.895.683-.23.298-.363.638-.4 1.019-.041.392.026.793.202 1.205.179.42.422.742.727.969a1.95 1.95 0 001.013.415c.366.043.737-.015 1.112-.175a2.19 2.19 0 00.896-.683c.222-.295.355-.635.4-1.019.04-.374-.029-.771-.209-1.19a2.482 2.482 0 00-.72-.984 2.062 2.062 0 00-1.013-.416 2.2 2.2 0 00-1.113.176zm-8.543 2.486c.656-.181 1.272-.205 1.847-.073a3.08 3.08 0 011.463.793c.4.396.683.899.85 1.508.168.61.185 1.186.053 1.728a3.003 3.003 0 01-.797 1.402 3.25 3.25 0 01-1.474.841c-.594.163-1.154.176-1.682.039a2.832 2.832 0 01-1.37-.818c-.391-.398-.674-.914-.848-1.546a1.368 1.368 0 01-.033-.165 1.295 1.295 0 01-.036-.177l5.218-1.435.22.798-4.64 1.276.375-.402c.1.396.278.725.532.987.255.261.556.436.903.523.342.097.71.091 1.103-.017.386-.107.705-.29.957-.55a1.85 1.85 0 00.505-.923 2.251 2.251 0 00-.038-1.134l-.051-.185a2.256 2.256 0 00-.58-1.023 2.075 2.075 0 00-1.002-.521 2.578 2.578 0 00-1.242.055c-.362.1-.673.252-.933.456a2.229 2.229 0 00-.634.772l-.81-.549c.188-.4.468-.743.837-1.027a3.695 3.695 0 011.307-.633zm-6.278 1.835l.953 5.571-.335-.247 2.579-.441.17.994-5.725.979-.17-.994 2.567-.439-.222.343-.953-5.572 1.136-.194zm-7.714 5.439c-.808.036-1.433-.115-1.875-.451-.443-.337-.682-.833-.718-1.488-.037-.687.166-1.23.61-1.631.442-.392 1.088-.608 1.935-.645l2.757-.137.343 6.35-1.15.063-.116-2.145-1.786.084zm.095-3.346c-.52.02-.905.145-1.157.375-.26.231-.379.557-.356.981.023.415.17.712.445.889.274.178.675.256 1.202.236l1.511-.058-.134-2.492-1.51.069zm-8.463-.322l-.83 6.306-2.927-.386c-.738-.097-1.298-.316-1.68-.657-.392-.334-.554-.759-.486-1.274.068-.516.323-.89.765-1.122.433-.225.979-.295 1.637-.208l-.22.286c-.753-.099-1.294-.312-1.622-.637-.328-.326-.457-.759-.386-1.298.072-.547.335-.948.788-1.203.444-.248 1.087-.317 1.928-.206l3.033.399zm-1.234.733l-1.832-.241c-.476-.063-.842-.038-1.1.073-.257.119-.407.342-.45.667-.044.333.035.59.238.77.193.186.523.311.991.372l1.904.251.25-1.892zm-.357 2.713l-1.713-.226c-.437-.057-.776-.021-1.02.108a.811.811 0 00-.435.645c-.04.301.045.542.255.723.203.18.522.299.958.356l1.713.226.242-1.832zm-9.171-5.032c.628.16 1.155.439 1.582.837.42.395.709.865.867 1.409.159.544.16 1.123.004 1.735-.156.612-.434 1.12-.833 1.521-.4.402-.877.673-1.433.812-.565.145-1.162.137-1.79-.023-.558-.142-1.026-.381-1.402-.716a2.382 2.382 0 01-.775-1.238l.988-.33c.125.354.316.638.576.852.249.221.54.373.874.458.403.103.786.106 1.15.008.362-.097.679-.285.948-.563.267-.27.456-.627.569-1.068.113-.442.117-.85.014-1.223a2.027 2.027 0 00-.563-.948 2.247 2.247 0 00-1.013-.543 2.17 2.17 0 00-.984-.028 1.988 1.988 0 00-.916.485l-.713-.751a2.548 2.548 0 011.275-.728c.492-.114 1.017-.1 1.575.042zm-7.374-1.945c.63.256 1.133.611 1.51 1.066.37.451.596.958.679 1.518.076.557-.005 1.129-.242 1.715-.238.585-.574 1.053-1.01 1.403a2.994 2.994 0 01-1.484.628c-.558.077-1.118 0-1.681-.228-.571-.231-1.024-.562-1.36-.991a2.842 2.842 0 01-.59-1.483c-.069-.554.02-1.135.267-1.743a1.31 1.31 0 01.074-.151c.024-.06.05-.114.079-.163l5.015 2.034-.31.767-4.46-1.808.542-.091c-.161.375-.22.744-.177 1.107.043.362.176.684.399.964.212.285.508.504.886.657.37.15.735.199 1.093.146.355-.046.676-.188.963-.426.283-.23.503-.538.66-.924l.071-.178c.16-.393.213-.781.162-1.164a2.076 2.076 0 00-.48-1.023 2.572 2.572 0 00-1.019-.711 2.6 2.6 0 00-1.017-.206 2.244 2.244 0 00-.973.227l-.31-.928a2.782 2.782 0 011.29-.306c.459-.004.933.094 1.423.292zm-32.045-24.423c.327.55.541 1.112.64 1.686a4.33 4.33 0 01-.054 1.666 4.283 4.283 0 01-2.005 2.661 4.288 4.288 0 01-1.646.59 4.13 4.13 0 01-1.644-.11 4.104 4.104 0 01-1.492-.746 4.77 4.77 0 01-1.187-1.36 4.654 4.654 0 01-.626-1.708 3.61 3.61 0 01.116-1.704l1.049.284a3.043 3.043 0 00-.086 1.308c.06.43.207.841.44 1.232.242.406.536.743.882 1.011a3.08 3.08 0 002.354.623 3.353 3.353 0 001.226-.451c.399-.237.73-.527.99-.869a3.122 3.122 0 00.564-2.361 3.591 3.591 0 00-.47-1.257 3.424 3.424 0 00-.863-.98 3.116 3.116 0 00-1.212-.535l.25-1.057a3.722 3.722 0 011.564.703c.47.352.874.811 1.21 1.374zm-3.445-4.492l-5.929 2.301-.43-1.108 3.396-4.252.173.447-5.401-.916-.39-1.007 5.928-2.3.378.973-4.72 1.832.03-.218 4.878.861.183.47-3.094 3.968-.127-.195 4.743-1.841.382.985zm-4.597-12.111c.151.621.149 1.206-.006 1.754a3.127 3.127 0 01-.843 1.415 3.284 3.284 0 01-1.53.816c-.614.149-1.193.141-1.735-.024a3.038 3.038 0 01-1.385-.874c-.389-.416-.659-.935-.81-1.557-.149-.614-.146-1.195.01-1.743a2.933 2.933 0 01.83-1.412c.398-.393.909-.665 1.53-.816.615-.149 1.193-.14 1.735.024.54.157 1.006.447 1.397.871.389.416.658.931.807 1.546zm-.98.237a2.15 2.15 0 00-.525-.996 1.948 1.948 0 00-.94-.562 2.48 2.48 0 00-1.219.012c-.443.107-.802.289-1.078.545a1.948 1.948 0 00-.577.93 2.15 2.15 0 00-.01 1.127c.096.396.271.728.525.996.255.267.568.455.94.562.364.11.767.11 1.21.003a2.397 2.397 0 001.087-.56c.281-.266.473-.576.577-.93a2.15 2.15 0 00.01-1.127zm-.74-6.879l-5.6.76.258-.326.351 2.593-.998.135-.781-5.755.999-.136.35 2.58-.335-.232 5.601-.76.155 1.141zm-1.04-8.933a2.983 2.983 0 01-.383 1.446c-.254.428-.624.77-1.108 1.027-.484.249-1.085.367-1.805.356-.72-.01-1.318-.144-1.794-.4-.476-.263-.831-.612-1.064-1.048a3.03 3.03 0 01-.338-1.481c.01-.624.155-1.174.434-1.65a3 3 0 011.157-1.122c.485-.273 1.05-.404 1.699-.394.648.01 1.213.159 1.697.446a3 3 0 011.122 1.158c.265.484.392 1.038.383 1.662zm2.203 3.406l-8.687-.134.017-1.104 1.716.027 1.475.095 1.478-.097 4.02.062-.019 1.151zm-3.213-3.326a2.151 2.151 0 00-.259-1.096 1.948 1.948 0 00-.768-.78c-.34-.197-.735-.3-1.183-.306-.456-.007-.85.083-1.18.27-.34.179-.603.43-.792.756a2.15 2.15 0 00-.293 1.087c-.006.4.08.766.259 1.096.179.323.435.583.768.78.325.19.716.287 1.172.294a2.48 2.48 0 001.192-.257c.339-.187.603-.439.792-.756.189-.325.286-.688.292-1.088zm1.205-8.943c-.102.672-.33 1.245-.685 1.717a3.08 3.08 0 01-1.318 1.014c-.525.204-1.1.258-1.724.164-.625-.095-1.158-.313-1.6-.655a3 3 0 01-.957-1.298 3.244 3.244 0 01-.169-1.688c.092-.61.308-1.127.648-1.553a2.84 2.84 0 011.304-.919c.523-.196 1.109-.245 1.758-.147.047.008.102.02.164.038.063.01.122.022.176.038l-.81 5.351-.818-.124.72-4.757.214.505a2.137 2.137 0 00-1.117.086 1.87 1.87 0 00-.845.613 2.022 2.022 0 00-.433 1.014c-.06.396-.022.762.113 1.098.127.334.34.613.638.837.29.221.64.363 1.052.426l.19.029c.42.063.81.025 1.17-.115.354-.148.649-.383.883-.703.235-.321.386-.707.455-1.158a2.603 2.603 0 00-.037-1.037 2.235 2.235 0 00-.448-.893l.83-.517c.29.335.49.729.599 1.182.11.446.126.93.047 1.452zm.844-6.392L7.93 61.913l.362-.205-.646 2.535-.977-.249 1.434-5.628.977.249-.643 2.523-.222-.341 5.477 1.395-.285 1.116zm-1.869-9.222c.297-.751.69-1.26 1.178-1.527.488-.267 1.038-.283 1.65-.048.643.246 1.057.654 1.241 1.222.178.565.11 1.242-.2 2.03l-1 2.573-5.939-2.279.413-1.076 2.006.77.652-1.665zm3.016 1.453c.194-.482.237-.886.13-1.21-.104-.33-.354-.572-.75-.724-.388-.15-.72-.135-.993.043-.274.177-.51.511-.706 1.001l-.564 1.403 2.33.895.553-1.408zm3.657-7.503l-5.416-3.335 1.548-2.513c.39-.634.819-1.056 1.287-1.266.464-.22.918-.195 1.361.078.443.273.68.658.711 1.157.029.487-.13 1.013-.479 1.579l-.171-.317c.398-.647.813-1.054 1.245-1.22.431-.167.878-.108 1.341.178.47.289.73.693.777 1.21.045.507-.155 1.122-.6 1.844l-1.604 2.605zm-.165-1.426l.969-1.573c.252-.41.38-.753.382-1.033-.003-.284-.145-.512-.424-.684-.286-.176-.553-.21-.8-.098-.249.1-.497.35-.745.753L16.42 45.61l1.625 1zm-2.33-1.434l.906-1.472c.231-.374.337-.7.318-.974a.812.812 0 00-.41-.661c-.259-.16-.514-.18-.765-.062-.247.11-.485.354-.716.728l-.906 1.471 1.573.97zm8.355-6.375c-.402.508-.871.877-1.408 1.104a3.102 3.102 0 01-1.64.218c-.562-.077-1.09-.311-1.587-.703-.495-.392-.845-.852-1.05-1.381a3.016 3.016 0 01-.157-1.639c.098-.575.348-1.117.75-1.625.357-.452.766-.782 1.225-.99a2.39 2.39 0 011.446-.203l-.1 1.037c-.375-.03-.712.03-1.014.178a2.07 2.07 0 00-.774.612 2.24 2.24 0 00-.476 1.047 2.03 2.03 0 00.128 1.095c.139.354.387.673.744.956.358.282.728.453 1.11.51a2.03 2.03 0 001.096-.128c.348-.143.651-.377.91-.704a2.17 2.17 0 00.425-.887 1.98 1.98 0 00-.07-1.034l.977-.345c.191.468.24.955.145 1.461-.096.496-.322.97-.68 1.421zm4.64-5.816c-.488.473-1.016.791-1.584.953a3.08 3.08 0 01-1.664.01c-.54-.156-1.031-.46-1.471-.913-.44-.453-.733-.95-.878-1.49a3 3 0 01.023-1.612c.155-.54.45-1.023.887-1.446.442-.43.927-.71 1.455-.845a2.838 2.838 0 011.594.057c.535.161 1.031.476 1.489.947.033.034.07.077.108.129.045.046.084.092.117.137l-3.882 3.771-.577-.594 3.451-3.352-.135.532a2.138 2.138 0 00-.941-.607 1.872 1.872 0 00-1.044-.024c-.346.08-.665.262-.958.546a2.063 2.063 0 00-.574.942c-.101.344-.1.694.002 1.052.097.353.29.678.58.976l.134.138c.295.304.629.51 1 .617a2.08 2.08 0 001.13-.026c.38-.113.734-.329 1.061-.647.27-.261.47-.544.598-.848a2.23 2.23 0 00.184-.982l.975.09c.027.443-.053.877-.24 1.304a3.692 3.692 0 01-.84 1.185zm35.247-19.571a4.931 4.931 0 01-1.8-.098 4.356 4.356 0 01-1.502-.726 4.348 4.348 0 01-1.08-1.248 4.292 4.292 0 01-.539-1.664c-.074-.62-.03-1.2.13-1.744.16-.543.416-1.029.767-1.458.35-.437.78-.79 1.287-1.06a4.77 4.77 0 011.725-.534 4.651 4.651 0 011.815.12 3.608 3.608 0 011.51.798l-.684.844a3.047 3.047 0 00-1.161-.61 3.282 3.282 0 00-1.305-.097 3.584 3.584 0 00-1.282.395 3.08 3.08 0 00-1.525 1.899c-.112.409-.14.843-.085 1.304.055.46.186.88.393 1.258a3.122 3.122 0 001.929 1.473c.424.11.87.137 1.34.08a3.425 3.425 0 001.245-.39c.378-.215.704-.512.981-.892l.865.658c-.33.474-.756.856-1.277 1.144a4.685 4.685 0 01-1.747.548zm5.903-1.362l.319-6.352 1.186.06 2.497 4.834-.48-.024 3.04-4.557 1.08.054-.32 6.352-1.042-.052.254-5.058.186.118-2.777 4.102-.504-.026-2.36-4.444.23-.036-.255 5.082-1.054-.053zm12.764.704c-.63-.115-1.163-.355-1.6-.72a3.127 3.127 0 01-.95-1.345 3.283 3.283 0 01-.123-1.73c.114-.621.356-1.146.727-1.575a3.038 3.038 0 011.362-.91c.538-.186 1.122-.221 1.752-.106.621.113 1.151.353 1.589.717.447.358.764.803.951 1.333.197.524.238 1.1.123 1.73-.113.622-.356 1.147-.727 1.575-.363.43-.818.737-1.364.922-.538.186-1.118.223-1.74.109zm.181-.992a2.14 2.14 0 001.124-.075c.356-.122.655-.332.896-.629a2.48 2.48 0 00.485-1.119c.082-.449.062-.85-.06-1.206a1.947 1.947 0 00-.615-.906 2.151 2.151 0 00-1.025-.468 2.151 2.151 0 00-1.123.075 2.056 2.056 0 00-.896.63c-.248.288-.413.656-.495 1.105-.08.44-.057.847.07 1.22.128.365.333.667.615.905.282.239.623.395 1.024.468zm6.713 2.136l1.581-5.427.193.369-2.512-.732.282-.968 5.576 1.625-.282.968-2.5-.728.35-.211-1.582 5.426-1.106-.322zm8.397 2.593a2.982 2.982 0 01-1.167-.937 2.75 2.75 0 01-.488-1.43c-.03-.543.105-1.14.408-1.794.302-.654.667-1.146 1.094-1.477.434-.328.897-.51 1.39-.547.5-.033.997.065 1.491.294.566.262 1.01.617 1.331 1.066.321.449.506.953.555 1.514.053.553-.057 1.123-.33 1.711-.272.588-.638 1.045-1.097 1.37-.459.325-.963.51-1.513.556-.55.045-1.108-.064-1.674-.326zm-4.008.63l3.65-7.884 1.002.464-.72 1.557-.686 1.31-.512 1.39-1.689 3.647-1.045-.484zm4.344-1.585c.37.171.74.24 1.107.208a1.947 1.947 0 001.025-.385 2.4 2.4 0 00.76-.957c.192-.413.269-.81.233-1.188a1.952 1.952 0 00-.369-1.03 2.152 2.152 0 00-.875-.71 2.194 2.194 0 00-1.107-.208c-.368.032-.71.16-1.025.385-.304.22-.553.537-.744.951a2.481 2.481 0 00-.249 1.194c.033.386.156.73.37 1.03.22.305.511.542.874.71zm7.507 4.622c-.573-.365-1.004-.805-1.293-1.32a3.086 3.086 0 01-.394-1.617c.026-.562.208-1.11.548-1.642.339-.534.754-.933 1.246-1.199a3 3 0 011.574-.35 3.243 3.243 0 011.612.528c.52.331.906.738 1.158 1.22.252.484.356 1.005.313 1.565-.033.558-.225 1.114-.577 1.667-.026.04-.059.086-.1.135-.035.054-.07.103-.107.146l-4.566-2.905.444-.699 4.06 2.583-.549-.008c.226-.34.35-.692.373-1.057a1.863 1.863 0 00-.218-1.02 2.026 2.026 0 00-.753-.807 2.061 2.061 0 00-1.049-.34 1.85 1.85 0 00-1.023.245 2.255 2.255 0 00-.816.79l-.103.162c-.227.357-.35.73-.369 1.116-.007.384.088.748.286 1.092.199.345.49.64.875.884a2.6 2.6 0 00.964.386c.331.059.664.043.997-.048l.137.969a2.775 2.775 0 01-1.323.068 3.7 3.7 0 01-1.347-.544zm5.507 3.345l3.489-4.447.041.414-2.058-1.615.623-.793 4.569 3.586-.623.793-2.048-1.608.402-.065-3.489 4.446-.906-.711zm9.28 2.078c.568.575.875 1.14.923 1.694.047.554-.161 1.064-.623 1.53-.484.488-1.024.702-1.618.642-.589-.066-1.181-.4-1.777-1.004l-1.95-1.953 4.48-4.513.818.812-1.513 1.524 1.26 1.268zm-2.546 2.173c.363.372.715.575 1.054.607.345.038.667-.093.966-.394.293-.295.414-.604.362-.926-.052-.322-.263-.672-.632-1.05l-1.056-1.082-1.759 1.771 1.065 1.074zm5.319 6.264l5.224-3.627 1.683 2.425c.425.61.64 1.172.645 1.685.016.515-.189.92-.616 1.217-.427.296-.876.36-1.345.188-.458-.169-.876-.526-1.255-1.071l.359-.03c.433.624.64 1.167.62 1.63-.02.461-.254.847-.7 1.158-.454.315-.927.39-1.421.226-.482-.161-.965-.59-1.449-1.287l-1.745-2.514zm1.372.42l1.054 1.518c.274.395.539.65.794.764.262.11.527.072.797-.115.276-.191.412-.422.409-.693.008-.269-.122-.597-.391-.985l-1.095-1.577-1.568 1.089zm2.248-1.56l.985 1.42c.251.36.506.588.766.68.27.095.527.058.77-.11.249-.174.37-.4.363-.677-.003-.27-.13-.586-.381-.948l-.985-1.42-1.518 1.055zm2.53 10.245c-.305-.572-.454-1.15-.447-1.733a3.1 3.1 0 01.458-1.59c.295-.484.722-.874 1.28-1.172.558-.297 1.12-.433 1.686-.408a3.013 3.013 0 011.564.513c.488.32.884.766 1.189 1.338.271.509.409 1.015.415 1.52.016.507-.115.976-.394 1.406l-.909-.509c.177-.33.258-.663.242-.999a2.055 2.055 0 00-.25-.954 2.234 2.234 0 00-.768-.856 2.027 2.027 0 00-1.055-.322c-.38-.015-.771.085-1.173.299-.403.214-.707.485-.913.813a2.02 2.02 0 00-.322 1.055 2.24 2.24 0 00.281 1.114c.161.304.375.553.642.746.277.197.602.314.975.35l-.076 1.034a2.543 2.543 0 01-1.396-.453c-.416-.286-.759-.684-1.029-1.192zm3.554 6.77c-.236-.638-.314-1.25-.232-1.834a3.07 3.07 0 01.663-1.526c.36-.432.836-.758 1.429-.978.592-.22 1.165-.287 1.717-.202a3 3 0 011.465.673c.432.36.754.825.966 1.395.214.577.276 1.135.185 1.672a2.84 2.84 0 01-.696 1.436c-.363.424-.852.75-1.467.979a1.358 1.358 0 01-.162.047c-.06.022-.118.04-.173.051l-1.882-5.074.776-.288 1.674 4.512-.433-.339a2.14 2.14 0 00.936-.616c.239-.276.386-.591.443-.945a2.02 2.02 0 00-.113-1.097 2.061 2.061 0 00-.63-.905 1.852 1.852 0 00-.963-.424 2.253 2.253 0 00-1.127.137l-.18.066c-.398.148-.721.37-.969.667-.238.301-.382.65-.432 1.043-.05.394.004.805.163 1.233.131.352.309.649.535.89.228.247.503.435.823.564l-.476.855a2.785 2.785 0 01-1.096-.745 3.706 3.706 0 01-.744-1.248z" fill="#00417E"/></svg>